<svg width="49" height="48" viewBox="0 0 49 48" fill="none" xmlns="http://www.w3.org/2000/svg">
<path fill-rule="evenodd" clip-rule="evenodd" d="M25.8197 32.0826L32.2406 25.6932C34.146 26.7391 36.3867 27.0119 38.4929 26.4503C40.6525 25.8745 42.4939 24.4685 43.6119 22.5416C43.6127 22.5402 43.6135 22.5388 43.6143 22.5373C44.7323 20.6105 45.0353 18.3207 44.4565 16.1716C43.8779 14.0225 42.4649 12.1901 40.5286 11.0777C37.9211 9.5796 34.881 7.83306 32.2735 6.33498C30.3372 5.22253 28.036 4.92103 25.8763 5.49691C23.7166 6.07278 21.8753 7.47876 20.7573 9.40559C20.7564 9.40702 20.7556 9.40846 20.7548 9.40992C20.1116 10.5184 19.7382 11.7472 19.6473 13.0001C19.6473 12.9993 13.0632 19.5511 13.0632 19.5511C11.8054 19.6413 10.5704 20.013 9.45607 20.6531C9.45466 20.654 9.45319 20.6548 9.45178 20.6556C7.51544 21.7681 6.10249 23.6004 5.52381 25.7495C4.9451 27.8986 5.24808 30.1885 6.36602 32.1153C7.87145 34.71 9.62664 37.7352 11.1321 40.3299C12.25 42.2567 14.0914 43.6627 16.2511 44.2386C18.4108 44.8144 20.7119 44.513 22.6483 43.4005C22.6497 43.3997 22.6511 43.3988 22.6526 43.398C24.589 42.2856 26.0019 40.4532 26.5806 38.3041C27.1449 36.2083 26.8708 33.9787 25.8197 32.0826ZM32.7362 22.7282C31.7271 22.1773 31.0205 22.9243 31.0056 22.9392C27.0097 26.9404 23.0521 30.8537 23.0521 30.8537C22.546 31.382 22.5435 32.0682 22.8401 32.5757C23.0289 32.8989 23.1336 33.0821 23.2768 33.3284C23.5076 33.7255 23.5073 33.7257 23.2873 33.3465C24.0299 34.6265 24.2312 36.1476 23.8467 37.5752C23.4623 39.0028 22.5237 40.22 21.2375 40.9589L21.2331 40.9615C19.9469 41.7004 18.4183 41.9007 16.9836 41.5181C15.549 41.1356 14.3258 40.2016 13.5832 38.9217C12.0777 36.327 10.3225 33.3018 8.81709 30.7071C8.07446 29.4272 7.87321 27.9061 8.25762 26.4784C8.64203 25.0508 9.58063 23.8337 10.8669 23.0947L10.8712 23.0922C11.7299 22.5989 12.6966 22.3456 13.6713 22.3456C14.0466 22.3456 14.4066 22.1973 14.6719 21.9332L22.0411 14.6002C22.3065 14.3361 22.4556 13.9779 22.4556 13.6044C22.4556 12.6346 22.7101 11.6726 23.2059 10.8181L23.2084 10.8138C23.951 9.53381 25.1742 8.59982 26.6088 8.2173C28.0435 7.83481 29.5721 8.03504 30.8584 8.77402C33.4659 10.2721 36.5059 12.0187 39.1134 13.5167C40.3997 14.2557 41.3383 15.4729 41.7227 16.9005C42.1071 18.3281 41.9059 19.8492 41.1633 21.1292L41.1607 21.1335C40.4181 22.4134 39.1949 23.3474 37.7603 23.7299C36.3398 24.1087 34.8272 23.9161 33.5489 23.1949L32.7362 22.7282ZM25.8138 32.0885L25.8133 32.089L25.8179 32.099L25.8449 32.1674C25.8354 32.1409 25.8251 32.1146 25.8138 32.0885ZM13.56 29.4255L12.5665 30.4141C12.0143 30.9637 12.0143 31.856 12.5665 32.4056C13.1188 32.9551 14.0156 32.9551 14.5678 32.4056L15.5613 31.417L16.5548 32.4056C17.1071 32.9551 18.0038 32.9552 18.5561 32.4056C19.1084 31.856 19.1084 30.9637 18.5561 30.4141L17.5626 29.4255L18.5561 28.4369C19.1084 27.8873 19.1083 26.995 18.5561 26.4455C18.0038 25.8959 17.1071 25.8959 16.5548 26.4455L15.5613 27.434L14.5678 26.4454C14.0156 25.8959 13.1188 25.8959 12.5665 26.4454C12.0142 26.995 12.0143 27.8873 12.5665 28.4369L13.56 29.4255Z" fill="#F59E0B"/>
<path fill-rule="evenodd" clip-rule="evenodd" d="M30.4543 18.458C29.8698 17.8763 29.8698 16.9319 30.4543 16.3503C31.0388 15.7687 31.9878 15.7687 32.5723 16.3503C33.1568 16.9319 33.1569 17.8763 32.5724 18.458C31.9878 19.0396 31.0388 19.0396 30.4543 18.458ZM30.4543 12.4979C31.0388 11.9162 31.9878 11.9162 32.5724 12.4978C33.1569 13.0795 33.1568 14.0239 32.5723 14.6055C31.9878 15.1871 31.0388 15.1872 30.4543 14.6055C29.8698 14.0239 29.8698 13.0795 30.4543 12.4979ZM26.5828 16.3503C27.1673 15.7687 28.1164 15.7687 28.7009 16.3503C29.2854 16.9319 29.2854 17.8763 28.7009 18.458C28.1164 19.0396 27.1673 19.0396 26.5828 18.458C25.9983 17.8763 25.9983 16.9319 26.5828 16.3503ZM26.5828 14.6055C25.9983 14.0239 25.9983 13.0795 26.5828 12.4978C27.1673 11.9162 28.1164 11.9162 28.7009 12.4979C29.2854 13.0795 29.2854 14.0239 28.7009 14.6055C28.1164 15.1871 27.1673 15.1871 26.5828 14.6055Z" fill="#B45309"/>
</svg>
