<svg width="158" height="48" viewBox="0 0 158 48" fill="none" xmlns="http://www.w3.org/2000/svg">
<mask id="path-1-outside-1_38_15" maskUnits="userSpaceOnUse" x="49.8976" y="8.81784" width="104" height="41" fill="black">
<rect fill="white" x="49.8976" y="8.81784" width="104" height="41"/>
<path d="M66.4016 40.9218V37.8178H62.0816V37.7858C60.0976 37.7218 58.4656 36.1858 58.1776 34.2658H58.1136V18.8098L56.8976 14.6498H71.0416V20.8258L66.2416 22.3938V19.4498H62.9456V33.0178H66.4016V31.6098H65.4416L63.7456 26.7778H71.2016V38.5218L66.4016 40.9218ZM84.4306 14.6498L86.3506 37.8498H81.5506L80.7826 28.6658H78.4786L77.7106 37.8498H72.9106L73.6466 28.6658L71.9826 23.8658H74.0626L74.4146 19.4818L72.7506 14.6498H79.6306H84.4306ZM78.8626 23.8658H80.3986L80.0146 19.4818H79.2466L78.8626 23.8658ZM108.416 37.8178H103.584V20.6338L100.672 22.8418V30.6178L95.8718 32.7618V22.8418L92.9278 20.6018V37.8178H88.1278V19.2898L86.4958 14.6498H92.9598L98.2718 19.0978L103.584 14.6498H108.416V37.8178ZM119.404 37.8178H110.06V33.0178H112.332V19.4498H110.06V14.6498H118.028L119.692 19.4498H117.132V33.0178H119.404V37.8178ZM125.983 37.8178H121.183V19.4498L119.679 14.6498H133.215V19.4498H125.983V23.8338H130.655L132.319 28.6338H125.983V37.8178ZM142.074 14.5538C144.09 14.5538 146.106 14.5538 148.122 14.5538V28.2178L143.738 30.7458V37.7538H138.938V30.7458L134.554 28.2178V18.5538L133.306 14.5538H139.354V25.4338L141.338 26.5858L143.29 25.4338V18.5538L142.074 14.5538Z"/>
</mask>
<path d="M66.4016 40.9218V37.8178H62.0816V37.7858C60.0976 37.7218 58.4656 36.1858 58.1776 34.2658H58.1136V18.8098L56.8976 14.6498H71.0416V20.8258L66.2416 22.3938V19.4498H62.9456V33.0178H66.4016V31.6098H65.4416L63.7456 26.7778H71.2016V38.5218L66.4016 40.9218ZM84.4306 14.6498L86.3506 37.8498H81.5506L80.7826 28.6658H78.4786L77.7106 37.8498H72.9106L73.6466 28.6658L71.9826 23.8658H74.0626L74.4146 19.4818L72.7506 14.6498H79.6306H84.4306ZM78.8626 23.8658H80.3986L80.0146 19.4818H79.2466L78.8626 23.8658ZM108.416 37.8178H103.584V20.6338L100.672 22.8418V30.6178L95.8718 32.7618V22.8418L92.9278 20.6018V37.8178H88.1278V19.2898L86.4958 14.6498H92.9598L98.2718 19.0978L103.584 14.6498H108.416V37.8178ZM119.404 37.8178H110.06V33.0178H112.332V19.4498H110.06V14.6498H118.028L119.692 19.4498H117.132V33.0178H119.404V37.8178ZM125.983 37.8178H121.183V19.4498L119.679 14.6498H133.215V19.4498H125.983V23.8338H130.655L132.319 28.6338H125.983V37.8178ZM142.074 14.5538C144.09 14.5538 146.106 14.5538 148.122 14.5538V28.2178L143.738 30.7458V37.7538H138.938V30.7458L134.554 28.2178V18.5538L133.306 14.5538H139.354V25.4338L141.338 26.5858L143.29 25.4338V18.5538L142.074 14.5538Z" fill="#111111"/>
<path d="M66.4016 40.9218H61.4016V49.012L68.6377 45.394L66.4016 40.9218ZM66.4016 37.8178H71.4016V32.8178H66.4016V37.8178ZM62.0816 37.8178H57.0816V42.8178H62.0816V37.8178ZM62.0816 37.7858H67.0816V32.9445L62.2428 32.7884L62.0816 37.7858ZM58.1776 34.2658L63.1223 33.5241L62.4835 29.2658H58.1776V34.2658ZM58.1136 34.2658H53.1136V39.2658H58.1136V34.2658ZM58.1136 18.8098H63.1136V18.094L62.9128 17.407L58.1136 18.8098ZM56.8976 14.6498V9.64984H50.2268L52.0984 16.0527L56.8976 14.6498ZM71.0416 14.6498H76.0416V9.64984H71.0416V14.6498ZM71.0416 20.8258L72.5942 25.5787L76.0416 24.4525V20.8258H71.0416ZM66.2416 22.3938H61.2416V29.2872L67.7942 27.1467L66.2416 22.3938ZM66.2416 19.4498H71.2416V14.4498H66.2416V19.4498ZM62.9456 19.4498V14.4498H57.9456V19.4498H62.9456ZM62.9456 33.0178H57.9456V38.0178H62.9456V33.0178ZM66.4016 33.0178V38.0178H71.4016V33.0178H66.4016ZM66.4016 31.6098H71.4016V26.6098H66.4016V31.6098ZM65.4416 31.6098L60.7238 33.2658L61.8975 36.6098H65.4416V31.6098ZM63.7456 26.7778V21.7778H56.6916L59.0278 28.4338L63.7456 26.7778ZM71.2016 26.7778H76.2016V21.7778H71.2016V26.7778ZM71.2016 38.5218L73.4377 42.994L76.2016 41.612V38.5218H71.2016ZM71.4016 40.9218V37.8178H61.4016V40.9218H71.4016ZM66.4016 32.8178H62.0816V42.8178H66.4016V32.8178ZM67.0816 37.8178V37.7858H57.0816V37.8178H67.0816ZM62.2428 32.7884C62.5181 32.7973 62.7346 32.9104 62.8654 33.0299C62.9886 33.1424 63.0897 33.3071 63.1223 33.5241L53.2329 35.0075C53.8621 39.2021 57.4114 42.6378 61.9204 42.7832L62.2428 32.7884ZM58.1776 29.2658H58.1136V39.2658H58.1776V29.2658ZM63.1136 34.2658V18.8098H53.1136V34.2658H63.1136ZM62.9128 17.407L61.6968 13.247L52.0984 16.0527L53.3144 20.2127L62.9128 17.407ZM56.8976 19.6498H71.0416V9.64984H56.8976V19.6498ZM66.0416 14.6498V20.8258H76.0416V14.6498H66.0416ZM69.489 16.073L64.689 17.641L67.7942 27.1467L72.5942 25.5787L69.489 16.073ZM71.2416 22.3938V19.4498H61.2416V22.3938H71.2416ZM66.2416 14.4498H62.9456V24.4498H66.2416V14.4498ZM57.9456 19.4498V33.0178H67.9456V19.4498H57.9456ZM62.9456 38.0178H66.4016V28.0178H62.9456V38.0178ZM71.4016 33.0178V31.6098H61.4016V33.0178H71.4016ZM66.4016 26.6098H65.4416V36.6098H66.4016V26.6098ZM70.1594 29.9539L68.4634 25.1219L59.0278 28.4338L60.7238 33.2658L70.1594 29.9539ZM63.7456 31.7778H71.2016V21.7778H63.7456V31.7778ZM66.2016 26.7778V38.5218H76.2016V26.7778H66.2016ZM68.9655 34.0497L64.1655 36.4497L68.6377 45.394L73.4377 42.994L68.9655 34.0497ZM84.4306 14.6498L89.4135 14.2375L89.0339 9.64984H84.4306V14.6498ZM86.3506 37.8498V42.8498H91.7815L91.3335 37.4375L86.3506 37.8498ZM81.5506 37.8498L76.568 38.2665L76.9513 42.8498H81.5506V37.8498ZM80.7826 28.6658L85.7652 28.2492L85.3819 23.6658H80.7826V28.6658ZM78.4786 28.6658V23.6658H73.8792L73.496 28.2492L78.4786 28.6658ZM77.7106 37.8498V42.8498H82.3099L82.6932 38.2665L77.7106 37.8498ZM72.9106 37.8498L67.9266 37.4504L67.4939 42.8498H72.9106V37.8498ZM73.6466 28.6658L78.6306 29.0653L78.7144 28.0194L78.3708 27.0281L73.6466 28.6658ZM71.9826 23.8658V18.8658H64.9573L67.2584 25.5036L71.9826 23.8658ZM74.0626 23.8658V28.8658H78.6772L79.0465 24.266L74.0626 23.8658ZM74.4146 19.4818L79.3985 19.882L79.4821 18.8411L79.1421 17.8538L74.4146 19.4818ZM72.7506 14.6498V9.64984H65.7406L68.0231 16.2779L72.7506 14.6498ZM78.8626 23.8658L73.8817 23.4296L73.4055 28.8658H78.8626V23.8658ZM80.3986 23.8658V28.8658H85.8557L85.3795 23.4296L80.3986 23.8658ZM80.0146 19.4818L84.9955 19.0456L84.5958 14.4818H80.0146V19.4818ZM79.2466 19.4818V14.4818H74.6654L74.2657 19.0456L79.2466 19.4818ZM79.4476 15.0622L81.3676 38.2622L91.3335 37.4375L89.4135 14.2375L79.4476 15.0622ZM86.3506 32.8498H81.5506V42.8498H86.3506V32.8498ZM86.5332 37.4332L85.7652 28.2492L75.8 29.0825L76.568 38.2665L86.5332 37.4332ZM80.7826 23.6658H78.4786V33.6658H80.7826V23.6658ZM73.496 28.2492L72.728 37.4332L82.6932 38.2665L83.4612 29.0825L73.496 28.2492ZM77.7106 32.8498H72.9106V42.8498H77.7106V32.8498ZM77.8946 38.2493L78.6306 29.0653L68.6626 28.2664L67.9266 37.4504L77.8946 38.2493ZM78.3708 27.0281L76.7068 22.2281L67.2584 25.5036L68.9224 30.3036L78.3708 27.0281ZM71.9826 28.8658H74.0626V18.8658H71.9826V28.8658ZM79.0465 24.266L79.3985 19.882L69.4306 19.0817L69.0786 23.4657L79.0465 24.266ZM79.1421 17.8538L77.4781 13.0218L68.0231 16.2779L69.6871 21.1099L79.1421 17.8538ZM72.7506 19.6498H79.6306V9.64984H72.7506V19.6498ZM79.6306 19.6498H84.4306V9.64984H79.6306V19.6498ZM78.8626 28.8658H80.3986V18.8658H78.8626V28.8658ZM85.3795 23.4296L84.9955 19.0456L75.0337 19.9181L75.4177 24.3021L85.3795 23.4296ZM80.0146 14.4818H79.2466V24.4818H80.0146V14.4818ZM74.2657 19.0456L73.8817 23.4296L83.8435 24.3021L84.2275 19.9181L74.2657 19.0456ZM108.416 37.8178V42.8178H113.416V37.8178H108.416ZM103.584 37.8178H98.5838V42.8178H103.584V37.8178ZM103.584 20.6338H108.584V10.5678L100.563 16.6497L103.584 20.6338ZM100.672 22.8418L97.6509 18.8577L95.6718 20.3582V22.8418H100.672ZM100.672 30.6178L102.711 35.1831L105.672 33.8606V30.6178H100.672ZM95.8718 32.7618H90.8718V40.4713L97.911 37.3271L95.8718 32.7618ZM95.8718 22.8418H100.872V20.3634L98.8994 18.8627L95.8718 22.8418ZM92.9278 20.6018L95.9554 16.6227L87.9278 10.5147V20.6018H92.9278ZM92.9278 37.8178V42.8178H97.9278V37.8178H92.9278ZM88.1278 37.8178H83.1278V42.8178H88.1278V37.8178ZM88.1278 19.2898H93.1278V18.4362L92.8446 17.6308L88.1278 19.2898ZM86.4958 14.6498V9.64984H79.437L81.7791 16.3088L86.4958 14.6498ZM92.9598 14.6498L96.1698 10.8163L94.7768 9.64984H92.9598V14.6498ZM98.2718 19.0978L95.0618 22.9314L98.2718 25.6193L101.482 22.9314L98.2718 19.0978ZM103.584 14.6498V9.64984H101.767L100.374 10.8163L103.584 14.6498ZM108.416 14.6498H113.416V9.64984H108.416V14.6498ZM108.416 32.8178H103.584V42.8178H108.416V32.8178ZM108.584 37.8178V20.6338H98.5838V37.8178H108.584ZM100.563 16.6497L97.6509 18.8577L103.693 26.826L106.605 24.618L100.563 16.6497ZM95.6718 22.8418V30.6178H105.672V22.8418H95.6718ZM98.6327 26.0526L93.8327 28.1966L97.911 37.3271L102.711 35.1831L98.6327 26.0526ZM100.872 32.7618V22.8418H90.8718V32.7618H100.872ZM98.8994 18.8627L95.9554 16.6227L89.9002 24.581L92.8442 26.821L98.8994 18.8627ZM87.9278 20.6018V37.8178H97.9278V20.6018H87.9278ZM92.9278 32.8178H88.1278V42.8178H92.9278V32.8178ZM93.1278 37.8178V19.2898H83.1278V37.8178H93.1278ZM92.8446 17.6308L91.2126 12.9908L81.7791 16.3088L83.4111 20.9488L92.8446 17.6308ZM86.4958 19.6498H92.9598V9.64984H86.4958V19.6498ZM89.7498 18.4834L95.0618 22.9314L101.482 15.2643L96.1698 10.8163L89.7498 18.4834ZM101.482 22.9314L106.794 18.4834L100.374 10.8163L95.0618 15.2643L101.482 22.9314ZM103.584 19.6498H108.416V9.64984H103.584V19.6498ZM103.416 14.6498V37.8178H113.416V14.6498H103.416ZM119.404 37.8178V42.8178H124.404V37.8178H119.404ZM110.06 37.8178H105.06V42.8178H110.06V37.8178ZM110.06 33.0178V28.0178H105.06V33.0178H110.06ZM112.332 33.0178V38.0178H117.332V33.0178H112.332ZM112.332 19.4498H117.332V14.4498H112.332V19.4498ZM110.06 19.4498H105.06V24.4498H110.06V19.4498ZM110.06 14.6498V9.64984H105.06V14.6498H110.06ZM118.028 14.6498L122.752 13.0121L121.587 9.64984H118.028V14.6498ZM119.692 19.4498V24.4498H126.717L124.416 17.8121L119.692 19.4498ZM117.132 19.4498V14.4498H112.132V19.4498H117.132ZM117.132 33.0178H112.132V38.0178H117.132V33.0178ZM119.404 33.0178H124.404V28.0178H119.404V33.0178ZM119.404 32.8178H110.06V42.8178H119.404V32.8178ZM115.06 37.8178V33.0178H105.06V37.8178H115.06ZM110.06 38.0178H112.332V28.0178H110.06V38.0178ZM117.332 33.0178V19.4498H107.332V33.0178H117.332ZM112.332 14.4498H110.06V24.4498H112.332V14.4498ZM115.06 19.4498V14.6498H105.06V19.4498H115.06ZM110.06 19.6498H118.028V9.64984H110.06V19.6498ZM113.304 16.2876L114.968 21.0876L124.416 17.8121L122.752 13.0121L113.304 16.2876ZM119.692 14.4498H117.132V24.4498H119.692V14.4498ZM112.132 19.4498V33.0178H122.132V19.4498H112.132ZM117.132 38.0178H119.404V28.0178H117.132V38.0178ZM114.404 33.0178V37.8178H124.404V33.0178H114.404ZM125.983 37.8178V42.8178H130.983V37.8178H125.983ZM121.183 37.8178H116.183V42.8178H121.183V37.8178ZM121.183 19.4498H126.183V18.6848L125.954 17.9548L121.183 19.4498ZM119.679 14.6498V9.64984H112.872L114.908 16.1448L119.679 14.6498ZM133.215 14.6498H138.215V9.64984H133.215V14.6498ZM133.215 19.4498V24.4498H138.215V19.4498H133.215ZM125.983 19.4498V14.4498H120.983V19.4498H125.983ZM125.983 23.8338H120.983V28.8338H125.983V23.8338ZM130.655 23.8338L135.379 22.1961L134.213 18.8338H130.655V23.8338ZM132.319 28.6338V33.6338H139.344L137.043 26.9961L132.319 28.6338ZM125.983 28.6338V23.6338H120.983V28.6338H125.983ZM125.983 32.8178H121.183V42.8178H125.983V32.8178ZM126.183 37.8178V19.4498H116.183V37.8178H126.183ZM125.954 17.9548L124.45 13.1548L114.908 16.1448L116.412 20.9448L125.954 17.9548ZM119.679 19.6498H133.215V9.64984H119.679V19.6498ZM128.215 14.6498V19.4498H138.215V14.6498H128.215ZM133.215 14.4498H125.983V24.4498H133.215V14.4498ZM120.983 19.4498V23.8338H130.983V19.4498H120.983ZM125.983 28.8338H130.655V18.8338H125.983V28.8338ZM125.931 25.4716L127.595 30.2716L137.043 26.9961L135.379 22.1961L125.931 25.4716ZM132.319 23.6338H125.983V33.6338H132.319V23.6338ZM120.983 28.6338V37.8178H130.983V28.6338H120.983ZM142.074 14.5538V9.55384H135.328L137.29 16.0081L142.074 14.5538ZM148.122 14.5538H153.122V9.55384H148.122V14.5538ZM148.122 28.2178L150.62 32.5493L153.122 31.1064V28.2178H148.122ZM143.738 30.7458L141.24 26.4144L138.738 27.8573V30.7458H143.738ZM143.738 37.7538V42.7538H148.738V37.7538H143.738ZM138.938 37.7538H133.938V42.7538H138.938V37.7538ZM138.938 30.7458H143.938V27.8573L141.436 26.4144L138.938 30.7458ZM134.554 28.2178H129.554V31.1064L132.056 32.5493L134.554 28.2178ZM134.554 18.5538H139.554V17.7919L139.327 17.0646L134.554 18.5538ZM133.306 14.5538V9.55384H126.508L128.533 16.043L133.306 14.5538ZM139.354 14.5538H144.354V9.55384H139.354V14.5538ZM139.354 25.4338H134.354V28.3124L136.843 29.7578L139.354 25.4338ZM141.338 26.5858L138.827 30.9098L141.359 32.3795L143.879 30.8919L141.338 26.5858ZM143.29 25.4338L145.831 29.7399L148.29 28.2888V25.4338H143.29ZM143.29 18.5538H148.29V17.8106L148.074 17.0996L143.29 18.5538ZM142.074 19.5538C142.078 19.5538 142.082 19.5538 142.086 19.5538C142.09 19.5538 142.094 19.5538 142.098 19.5538C142.102 19.5538 142.106 19.5538 142.11 19.5538C142.113 19.5538 142.117 19.5538 142.121 19.5538C142.125 19.5538 142.129 19.5538 142.133 19.5538C142.137 19.5538 142.141 19.5538 142.145 19.5538C142.149 19.5538 142.153 19.5538 142.157 19.5538C142.161 19.5538 142.165 19.5538 142.169 19.5538C142.173 19.5538 142.176 19.5538 142.18 19.5538C142.184 19.5538 142.188 19.5538 142.192 19.5538C142.196 19.5538 142.2 19.5538 142.204 19.5538C142.208 19.5538 142.212 19.5538 142.216 19.5538C142.22 19.5538 142.224 19.5538 142.228 19.5538C142.232 19.5538 142.236 19.5538 142.239 19.5538C142.243 19.5538 142.247 19.5538 142.251 19.5538C142.255 19.5538 142.259 19.5538 142.263 19.5538C142.267 19.5538 142.271 19.5538 142.275 19.5538C142.279 19.5538 142.283 19.5538 142.287 19.5538C142.291 19.5538 142.295 19.5538 142.299 19.5538C142.302 19.5538 142.306 19.5538 142.31 19.5538C142.314 19.5538 142.318 19.5538 142.322 19.5538C142.326 19.5538 142.33 19.5538 142.334 19.5538C142.338 19.5538 142.342 19.5538 142.346 19.5538C142.35 19.5538 142.354 19.5538 142.358 19.5538C142.362 19.5538 142.365 19.5538 142.369 19.5538C142.373 19.5538 142.377 19.5538 142.381 19.5538C142.385 19.5538 142.389 19.5538 142.393 19.5538C142.397 19.5538 142.401 19.5538 142.405 19.5538C142.409 19.5538 142.413 19.5538 142.417 19.5538C142.421 19.5538 142.425 19.5538 142.428 19.5538C142.432 19.5538 142.436 19.5538 142.44 19.5538C142.444 19.5538 142.448 19.5538 142.452 19.5538C142.456 19.5538 142.46 19.5538 142.464 19.5538C142.468 19.5538 142.472 19.5538 142.476 19.5538C142.48 19.5538 142.484 19.5538 142.488 19.5538C142.491 19.5538 142.495 19.5538 142.499 19.5538C142.503 19.5538 142.507 19.5538 142.511 19.5538C142.515 19.5538 142.519 19.5538 142.523 19.5538C142.527 19.5538 142.531 19.5538 142.535 19.5538C142.539 19.5538 142.543 19.5538 142.547 19.5538C142.551 19.5538 142.554 19.5538 142.558 19.5538C142.562 19.5538 142.566 19.5538 142.57 19.5538C142.574 19.5538 142.578 19.5538 142.582 19.5538C142.586 19.5538 142.59 19.5538 142.594 19.5538C142.598 19.5538 142.602 19.5538 142.606 19.5538C142.61 19.5538 142.614 19.5538 142.617 19.5538C142.621 19.5538 142.625 19.5538 142.629 19.5538C142.633 19.5538 142.637 19.5538 142.641 19.5538C142.645 19.5538 142.649 19.5538 142.653 19.5538C142.657 19.5538 142.661 19.5538 142.665 19.5538C142.669 19.5538 142.673 19.5538 142.677 19.5538C142.68 19.5538 142.684 19.5538 142.688 19.5538C142.692 19.5538 142.696 19.5538 142.7 19.5538C142.704 19.5538 142.708 19.5538 142.712 19.5538C142.716 19.5538 142.72 19.5538 142.724 19.5538C142.728 19.5538 142.732 19.5538 142.736 19.5538C142.74 19.5538 142.743 19.5538 142.747 19.5538C142.751 19.5538 142.755 19.5538 142.759 19.5538C142.763 19.5538 142.767 19.5538 142.771 19.5538C142.775 19.5538 142.779 19.5538 142.783 19.5538C142.787 19.5538 142.791 19.5538 142.795 19.5538C142.799 19.5538 142.803 19.5538 142.806 19.5538C142.81 19.5538 142.814 19.5538 142.818 19.5538C142.822 19.5538 142.826 19.5538 142.83 19.5538C142.834 19.5538 142.838 19.5538 142.842 19.5538C142.846 19.5538 142.85 19.5538 142.854 19.5538C142.858 19.5538 142.862 19.5538 142.866 19.5538C142.869 19.5538 142.873 19.5538 142.877 19.5538C142.881 19.5538 142.885 19.5538 142.889 19.5538C142.893 19.5538 142.897 19.5538 142.901 19.5538C142.905 19.5538 142.909 19.5538 142.913 19.5538C142.917 19.5538 142.921 19.5538 142.925 19.5538C142.929 19.5538 142.932 19.5538 142.936 19.5538C142.94 19.5538 142.944 19.5538 142.948 19.5538C142.952 19.5538 142.956 19.5538 142.96 19.5538C142.964 19.5538 142.968 19.5538 142.972 19.5538C142.976 19.5538 142.98 19.5538 142.984 19.5538C142.988 19.5538 142.992 19.5538 142.995 19.5538C142.999 19.5538 143.003 19.5538 143.007 19.5538C143.011 19.5538 143.015 19.5538 143.019 19.5538C143.023 19.5538 143.027 19.5538 143.031 19.5538C143.035 19.5538 143.039 19.5538 143.043 19.5538C143.047 19.5538 143.051 19.5538 143.055 19.5538C143.058 19.5538 143.062 19.5538 143.066 19.5538C143.07 19.5538 143.074 19.5538 143.078 19.5538C143.082 19.5538 143.086 19.5538 143.09 19.5538C143.094 19.5538 143.098 19.5538 143.102 19.5538C143.106 19.5538 143.11 19.5538 143.114 19.5538C143.118 19.5538 143.121 19.5538 143.125 19.5538C143.129 19.5538 143.133 19.5538 143.137 19.5538C143.141 19.5538 143.145 19.5538 143.149 19.5538C143.153 19.5538 143.157 19.5538 143.161 19.5538C143.165 19.5538 143.169 19.5538 143.173 19.5538C143.177 19.5538 143.181 19.5538 143.184 19.5538C143.188 19.5538 143.192 19.5538 143.196 19.5538C143.2 19.5538 143.204 19.5538 143.208 19.5538C143.212 19.5538 143.216 19.5538 143.22 19.5538C143.224 19.5538 143.228 19.5538 143.232 19.5538C143.236 19.5538 143.24 19.5538 143.244 19.5538C143.247 19.5538 143.251 19.5538 143.255 19.5538C143.259 19.5538 143.263 19.5538 143.267 19.5538C143.271 19.5538 143.275 19.5538 143.279 19.5538C143.283 19.5538 143.287 19.5538 143.291 19.5538C143.295 19.5538 143.299 19.5538 143.303 19.5538C143.307 19.5538 143.31 19.5538 143.314 19.5538C143.318 19.5538 143.322 19.5538 143.326 19.5538C143.33 19.5538 143.334 19.5538 143.338 19.5538C143.342 19.5538 143.346 19.5538 143.35 19.5538C143.354 19.5538 143.358 19.5538 143.362 19.5538C143.366 19.5538 143.37 19.5538 143.373 19.5538C143.377 19.5538 143.381 19.5538 143.385 19.5538C143.389 19.5538 143.393 19.5538 143.397 19.5538C143.401 19.5538 143.405 19.5538 143.409 19.5538C143.413 19.5538 143.417 19.5538 143.421 19.5538C143.425 19.5538 143.429 19.5538 143.433 19.5538C143.436 19.5538 143.44 19.5538 143.444 19.5538C143.448 19.5538 143.452 19.5538 143.456 19.5538C143.46 19.5538 143.464 19.5538 143.468 19.5538C143.472 19.5538 143.476 19.5538 143.48 19.5538C143.484 19.5538 143.488 19.5538 143.492 19.5538C143.496 19.5538 143.499 19.5538 143.503 19.5538C143.507 19.5538 143.511 19.5538 143.515 19.5538C143.519 19.5538 143.523 19.5538 143.527 19.5538C143.531 19.5538 143.535 19.5538 143.539 19.5538C143.543 19.5538 143.547 19.5538 143.551 19.5538C143.555 19.5538 143.559 19.5538 143.562 19.5538C143.566 19.5538 143.57 19.5538 143.574 19.5538C143.578 19.5538 143.582 19.5538 143.586 19.5538C143.59 19.5538 143.594 19.5538 143.598 19.5538C143.602 19.5538 143.606 19.5538 143.61 19.5538C143.614 19.5538 143.618 19.5538 143.622 19.5538C143.625 19.5538 143.629 19.5538 143.633 19.5538C143.637 19.5538 143.641 19.5538 143.645 19.5538C143.649 19.5538 143.653 19.5538 143.657 19.5538C143.661 19.5538 143.665 19.5538 143.669 19.5538C143.673 19.5538 143.677 19.5538 143.681 19.5538C143.685 19.5538 143.688 19.5538 143.692 19.5538C143.696 19.5538 143.7 19.5538 143.704 19.5538C143.708 19.5538 143.712 19.5538 143.716 19.5538C143.72 19.5538 143.724 19.5538 143.728 19.5538C143.732 19.5538 143.736 19.5538 143.74 19.5538C143.744 19.5538 143.748 19.5538 143.751 19.5538C143.755 19.5538 143.759 19.5538 143.763 19.5538C143.767 19.5538 143.771 19.5538 143.775 19.5538C143.779 19.5538 143.783 19.5538 143.787 19.5538C143.791 19.5538 143.795 19.5538 143.799 19.5538C143.803 19.5538 143.807 19.5538 143.811 19.5538C143.814 19.5538 143.818 19.5538 143.822 19.5538C143.826 19.5538 143.83 19.5538 143.834 19.5538C143.838 19.5538 143.842 19.5538 143.846 19.5538C143.85 19.5538 143.854 19.5538 143.858 19.5538C143.862 19.5538 143.866 19.5538 143.87 19.5538C143.874 19.5538 143.877 19.5538 143.881 19.5538C143.885 19.5538 143.889 19.5538 143.893 19.5538C143.897 19.5538 143.901 19.5538 143.905 19.5538C143.909 19.5538 143.913 19.5538 143.917 19.5538C143.921 19.5538 143.925 19.5538 143.929 19.5538C143.933 19.5538 143.937 19.5538 143.94 19.5538C143.944 19.5538 143.948 19.5538 143.952 19.5538C143.956 19.5538 143.96 19.5538 143.964 19.5538C143.968 19.5538 143.972 19.5538 143.976 19.5538C143.98 19.5538 143.984 19.5538 143.988 19.5538C143.992 19.5538 143.996 19.5538 144 19.5538C144.003 19.5538 144.007 19.5538 144.011 19.5538C144.015 19.5538 144.019 19.5538 144.023 19.5538C144.027 19.5538 144.031 19.5538 144.035 19.5538C144.039 19.5538 144.043 19.5538 144.047 19.5538C144.051 19.5538 144.055 19.5538 144.059 19.5538C144.063 19.5538 144.066 19.5538 144.07 19.5538C144.074 19.5538 144.078 19.5538 144.082 19.5538C144.086 19.5538 144.09 19.5538 144.094 19.5538C144.098 19.5538 144.102 19.5538 144.106 19.5538C144.11 19.5538 144.114 19.5538 144.118 19.5538C144.122 19.5538 144.126 19.5538 144.129 19.5538C144.133 19.5538 144.137 19.5538 144.141 19.5538C144.145 19.5538 144.149 19.5538 144.153 19.5538C144.157 19.5538 144.161 19.5538 144.165 19.5538C144.169 19.5538 144.173 19.5538 144.177 19.5538C144.181 19.5538 144.185 19.5538 144.189 19.5538C144.192 19.5538 144.196 19.5538 144.2 19.5538C144.204 19.5538 144.208 19.5538 144.212 19.5538C144.216 19.5538 144.22 19.5538 144.224 19.5538C144.228 19.5538 144.232 19.5538 144.236 19.5538C144.24 19.5538 144.244 19.5538 144.248 19.5538C144.252 19.5538 144.255 19.5538 144.259 19.5538C144.263 19.5538 144.267 19.5538 144.271 19.5538C144.275 19.5538 144.279 19.5538 144.283 19.5538C144.287 19.5538 144.291 19.5538 144.295 19.5538C144.299 19.5538 144.303 19.5538 144.307 19.5538C144.311 19.5538 144.315 19.5538 144.318 19.5538C144.322 19.5538 144.326 19.5538 144.33 19.5538C144.334 19.5538 144.338 19.5538 144.342 19.5538C144.346 19.5538 144.35 19.5538 144.354 19.5538C144.358 19.5538 144.362 19.5538 144.366 19.5538C144.37 19.5538 144.374 19.5538 144.378 19.5538C144.381 19.5538 144.385 19.5538 144.389 19.5538C144.393 19.5538 144.397 19.5538 144.401 19.5538C144.405 19.5538 144.409 19.5538 144.413 19.5538C144.417 19.5538 144.421 19.5538 144.425 19.5538C144.429 19.5538 144.433 19.5538 144.437 19.5538C144.441 19.5538 144.444 19.5538 144.448 19.5538C144.452 19.5538 144.456 19.5538 144.46 19.5538C144.464 19.5538 144.468 19.5538 144.472 19.5538C144.476 19.5538 144.48 19.5538 144.484 19.5538C144.488 19.5538 144.492 19.5538 144.496 19.5538C144.5 19.5538 144.504 19.5538 144.507 19.5538C144.511 19.5538 144.515 19.5538 144.519 19.5538C144.523 19.5538 144.527 19.5538 144.531 19.5538C144.535 19.5538 144.539 19.5538 144.543 19.5538C144.547 19.5538 144.551 19.5538 144.555 19.5538C144.559 19.5538 144.563 19.5538 144.567 19.5538C144.57 19.5538 144.574 19.5538 144.578 19.5538C144.582 19.5538 144.586 19.5538 144.59 19.5538C144.594 19.5538 144.598 19.5538 144.602 19.5538C144.606 19.5538 144.61 19.5538 144.614 19.5538C144.618 19.5538 144.622 19.5538 144.626 19.5538C144.63 19.5538 144.633 19.5538 144.637 19.5538C144.641 19.5538 144.645 19.5538 144.649 19.5538C144.653 19.5538 144.657 19.5538 144.661 19.5538C144.665 19.5538 144.669 19.5538 144.673 19.5538C144.677 19.5538 144.681 19.5538 144.685 19.5538C144.689 19.5538 144.693 19.5538 144.696 19.5538C144.7 19.5538 144.704 19.5538 144.708 19.5538C144.712 19.5538 144.716 19.5538 144.72 19.5538C144.724 19.5538 144.728 19.5538 144.732 19.5538C144.736 19.5538 144.74 19.5538 144.744 19.5538C144.748 19.5538 144.752 19.5538 144.756 19.5538C144.759 19.5538 144.763 19.5538 144.767 19.5538C144.771 19.5538 144.775 19.5538 144.779 19.5538C144.783 19.5538 144.787 19.5538 144.791 19.5538C144.795 19.5538 144.799 19.5538 144.803 19.5538C144.807 19.5538 144.811 19.5538 144.815 19.5538C144.819 19.5538 144.822 19.5538 144.826 19.5538C144.83 19.5538 144.834 19.5538 144.838 19.5538C144.842 19.5538 144.846 19.5538 144.85 19.5538C144.854 19.5538 144.858 19.5538 144.862 19.5538C144.866 19.5538 144.87 19.5538 144.874 19.5538C144.878 19.5538 144.882 19.5538 144.885 19.5538C144.889 19.5538 144.893 19.5538 144.897 19.5538C144.901 19.5538 144.905 19.5538 144.909 19.5538C144.913 19.5538 144.917 19.5538 144.921 19.5538C144.925 19.5538 144.929 19.5538 144.933 19.5538C144.937 19.5538 144.941 19.5538 144.945 19.5538C144.948 19.5538 144.952 19.5538 144.956 19.5538C144.96 19.5538 144.964 19.5538 144.968 19.5538C144.972 19.5538 144.976 19.5538 144.98 19.5538C144.984 19.5538 144.988 19.5538 144.992 19.5538C144.996 19.5538 145 19.5538 145.004 19.5538C145.008 19.5538 145.011 19.5538 145.015 19.5538C145.019 19.5538 145.023 19.5538 145.027 19.5538C145.031 19.5538 145.035 19.5538 145.039 19.5538C145.043 19.5538 145.047 19.5538 145.051 19.5538C145.055 19.5538 145.059 19.5538 145.063 19.5538C145.067 19.5538 145.071 19.5538 145.074 19.5538C145.078 19.5538 145.082 19.5538 145.086 19.5538C145.09 19.5538 145.094 19.5538 145.098 19.5538C145.102 19.5538 145.106 19.5538 145.11 19.5538C145.114 19.5538 145.118 19.5538 145.122 19.5538C145.126 19.5538 145.13 19.5538 145.134 19.5538C145.137 19.5538 145.141 19.5538 145.145 19.5538C145.149 19.5538 145.153 19.5538 145.157 19.5538C145.161 19.5538 145.165 19.5538 145.169 19.5538C145.173 19.5538 145.177 19.5538 145.181 19.5538C145.185 19.5538 145.189 19.5538 145.193 19.5538C145.197 19.5538 145.2 19.5538 145.204 19.5538C145.208 19.5538 145.212 19.5538 145.216 19.5538C145.22 19.5538 145.224 19.5538 145.228 19.5538C145.232 19.5538 145.236 19.5538 145.24 19.5538C145.244 19.5538 145.248 19.5538 145.252 19.5538C145.256 19.5538 145.26 19.5538 145.263 19.5538C145.267 19.5538 145.271 19.5538 145.275 19.5538C145.279 19.5538 145.283 19.5538 145.287 19.5538C145.291 19.5538 145.295 19.5538 145.299 19.5538C145.303 19.5538 145.307 19.5538 145.311 19.5538C145.315 19.5538 145.319 19.5538 145.323 19.5538C145.326 19.5538 145.33 19.5538 145.334 19.5538C145.338 19.5538 145.342 19.5538 145.346 19.5538C145.35 19.5538 145.354 19.5538 145.358 19.5538C145.362 19.5538 145.366 19.5538 145.37 19.5538C145.374 19.5538 145.378 19.5538 145.382 19.5538C145.386 19.5538 145.389 19.5538 145.393 19.5538C145.397 19.5538 145.401 19.5538 145.405 19.5538C145.409 19.5538 145.413 19.5538 145.417 19.5538C145.421 19.5538 145.425 19.5538 145.429 19.5538C145.433 19.5538 145.437 19.5538 145.441 19.5538C145.445 19.5538 145.449 19.5538 145.452 19.5538C145.456 19.5538 145.46 19.5538 145.464 19.5538C145.468 19.5538 145.472 19.5538 145.476 19.5538C145.48 19.5538 145.484 19.5538 145.488 19.5538C145.492 19.5538 145.496 19.5538 145.5 19.5538C145.504 19.5538 145.508 19.5538 145.512 19.5538C145.515 19.5538 145.519 19.5538 145.523 19.5538C145.527 19.5538 145.531 19.5538 145.535 19.5538C145.539 19.5538 145.543 19.5538 145.547 19.5538C145.551 19.5538 145.555 19.5538 145.559 19.5538C145.563 19.5538 145.567 19.5538 145.571 19.5538C145.575 19.5538 145.578 19.5538 145.582 19.5538C145.586 19.5538 145.59 19.5538 145.594 19.5538C145.598 19.5538 145.602 19.5538 145.606 19.5538C145.61 19.5538 145.614 19.5538 145.618 19.5538C145.622 19.5538 145.626 19.5538 145.63 19.5538C145.634 19.5538 145.638 19.5538 145.641 19.5538C145.645 19.5538 145.649 19.5538 145.653 19.5538C145.657 19.5538 145.661 19.5538 145.665 19.5538C145.669 19.5538 145.673 19.5538 145.677 19.5538C145.681 19.5538 145.685 19.5538 145.689 19.5538C145.693 19.5538 145.697 19.5538 145.701 19.5538C145.704 19.5538 145.708 19.5538 145.712 19.5538C145.716 19.5538 145.72 19.5538 145.724 19.5538C145.728 19.5538 145.732 19.5538 145.736 19.5538C145.74 19.5538 145.744 19.5538 145.748 19.5538C145.752 19.5538 145.756 19.5538 145.76 19.5538C145.764 19.5538 145.767 19.5538 145.771 19.5538C145.775 19.5538 145.779 19.5538 145.783 19.5538C145.787 19.5538 145.791 19.5538 145.795 19.5538C145.799 19.5538 145.803 19.5538 145.807 19.5538C145.811 19.5538 145.815 19.5538 145.819 19.5538C145.823 19.5538 145.827 19.5538 145.83 19.5538C145.834 19.5538 145.838 19.5538 145.842 19.5538C145.846 19.5538 145.85 19.5538 145.854 19.5538C145.858 19.5538 145.862 19.5538 145.866 19.5538C145.87 19.5538 145.874 19.5538 145.878 19.5538C145.882 19.5538 145.886 19.5538 145.89 19.5538C145.893 19.5538 145.897 19.5538 145.901 19.5538C145.905 19.5538 145.909 19.5538 145.913 19.5538C145.917 19.5538 145.921 19.5538 145.925 19.5538C145.929 19.5538 145.933 19.5538 145.937 19.5538C145.941 19.5538 145.945 19.5538 145.949 19.5538C145.953 19.5538 145.956 19.5538 145.96 19.5538C145.964 19.5538 145.968 19.5538 145.972 19.5538C145.976 19.5538 145.98 19.5538 145.984 19.5538C145.988 19.5538 145.992 19.5538 145.996 19.5538C146 19.5538 146.004 19.5538 146.008 19.5538C146.012 19.5538 146.016 19.5538 146.019 19.5538C146.023 19.5538 146.027 19.5538 146.031 19.5538C146.035 19.5538 146.039 19.5538 146.043 19.5538C146.047 19.5538 146.051 19.5538 146.055 19.5538C146.059 19.5538 146.063 19.5538 146.067 19.5538C146.071 19.5538 146.075 19.5538 146.079 19.5538C146.082 19.5538 146.086 19.5538 146.09 19.5538C146.094 19.5538 146.098 19.5538 146.102 19.5538C146.106 19.5538 146.11 19.5538 146.114 19.5538C146.118 19.5538 146.122 19.5538 146.126 19.5538C146.13 19.5538 146.134 19.5538 146.138 19.5538C146.142 19.5538 146.145 19.5538 146.149 19.5538C146.153 19.5538 146.157 19.5538 146.161 19.5538C146.165 19.5538 146.169 19.5538 146.173 19.5538C146.177 19.5538 146.181 19.5538 146.185 19.5538C146.189 19.5538 146.193 19.5538 146.197 19.5538C146.201 19.5538 146.205 19.5538 146.208 19.5538C146.212 19.5538 146.216 19.5538 146.22 19.5538C146.224 19.5538 146.228 19.5538 146.232 19.5538C146.236 19.5538 146.24 19.5538 146.244 19.5538C146.248 19.5538 146.252 19.5538 146.256 19.5538C146.26 19.5538 146.264 19.5538 146.268 19.5538C146.271 19.5538 146.275 19.5538 146.279 19.5538C146.283 19.5538 146.287 19.5538 146.291 19.5538C146.295 19.5538 146.299 19.5538 146.303 19.5538C146.307 19.5538 146.311 19.5538 146.315 19.5538C146.319 19.5538 146.323 19.5538 146.327 19.5538C146.331 19.5538 146.334 19.5538 146.338 19.5538C146.342 19.5538 146.346 19.5538 146.35 19.5538C146.354 19.5538 146.358 19.5538 146.362 19.5538C146.366 19.5538 146.37 19.5538 146.374 19.5538C146.378 19.5538 146.382 19.5538 146.386 19.5538C146.39 19.5538 146.394 19.5538 146.397 19.5538C146.401 19.5538 146.405 19.5538 146.409 19.5538C146.413 19.5538 146.417 19.5538 146.421 19.5538C146.425 19.5538 146.429 19.5538 146.433 19.5538C146.437 19.5538 146.441 19.5538 146.445 19.5538C146.449 19.5538 146.453 19.5538 146.457 19.5538C146.46 19.5538 146.464 19.5538 146.468 19.5538C146.472 19.5538 146.476 19.5538 146.48 19.5538C146.484 19.5538 146.488 19.5538 146.492 19.5538C146.496 19.5538 146.5 19.5538 146.504 19.5538C146.508 19.5538 146.512 19.5538 146.516 19.5538C146.52 19.5538 146.523 19.5538 146.527 19.5538C146.531 19.5538 146.535 19.5538 146.539 19.5538C146.543 19.5538 146.547 19.5538 146.551 19.5538C146.555 19.5538 146.559 19.5538 146.563 19.5538C146.567 19.5538 146.571 19.5538 146.575 19.5538C146.579 19.5538 146.583 19.5538 146.586 19.5538C146.59 19.5538 146.594 19.5538 146.598 19.5538C146.602 19.5538 146.606 19.5538 146.61 19.5538C146.614 19.5538 146.618 19.5538 146.622 19.5538C146.626 19.5538 146.63 19.5538 146.634 19.5538C146.638 19.5538 146.642 19.5538 146.646 19.5538C146.649 19.5538 146.653 19.5538 146.657 19.5538C146.661 19.5538 146.665 19.5538 146.669 19.5538C146.673 19.5538 146.677 19.5538 146.681 19.5538C146.685 19.5538 146.689 19.5538 146.693 19.5538C146.697 19.5538 146.701 19.5538 146.705 19.5538C146.709 19.5538 146.712 19.5538 146.716 19.5538C146.72 19.5538 146.724 19.5538 146.728 19.5538C146.732 19.5538 146.736 19.5538 146.74 19.5538C146.744 19.5538 146.748 19.5538 146.752 19.5538C146.756 19.5538 146.76 19.5538 146.764 19.5538C146.768 19.5538 146.772 19.5538 146.775 19.5538C146.779 19.5538 146.783 19.5538 146.787 19.5538C146.791 19.5538 146.795 19.5538 146.799 19.5538C146.803 19.5538 146.807 19.5538 146.811 19.5538C146.815 19.5538 146.819 19.5538 146.823 19.5538C146.827 19.5538 146.831 19.5538 146.835 19.5538C146.838 19.5538 146.842 19.5538 146.846 19.5538C146.85 19.5538 146.854 19.5538 146.858 19.5538C146.862 19.5538 146.866 19.5538 146.87 19.5538C146.874 19.5538 146.878 19.5538 146.882 19.5538C146.886 19.5538 146.89 19.5538 146.894 19.5538C146.898 19.5538 146.901 19.5538 146.905 19.5538C146.909 19.5538 146.913 19.5538 146.917 19.5538C146.921 19.5538 146.925 19.5538 146.929 19.5538C146.933 19.5538 146.937 19.5538 146.941 19.5538C146.945 19.5538 146.949 19.5538 146.953 19.5538C146.957 19.5538 146.961 19.5538 146.964 19.5538C146.968 19.5538 146.972 19.5538 146.976 19.5538C146.98 19.5538 146.984 19.5538 146.988 19.5538C146.992 19.5538 146.996 19.5538 147 19.5538C147.004 19.5538 147.008 19.5538 147.012 19.5538C147.016 19.5538 147.02 19.5538 147.024 19.5538C147.027 19.5538 147.031 19.5538 147.035 19.5538C147.039 19.5538 147.043 19.5538 147.047 19.5538C147.051 19.5538 147.055 19.5538 147.059 19.5538C147.063 19.5538 147.067 19.5538 147.071 19.5538C147.075 19.5538 147.079 19.5538 147.083 19.5538C147.087 19.5538 147.09 19.5538 147.094 19.5538C147.098 19.5538 147.102 19.5538 147.106 19.5538C147.11 19.5538 147.114 19.5538 147.118 19.5538C147.122 19.5538 147.126 19.5538 147.13 19.5538C147.134 19.5538 147.138 19.5538 147.142 19.5538C147.146 19.5538 147.15 19.5538 147.153 19.5538C147.157 19.5538 147.161 19.5538 147.165 19.5538C147.169 19.5538 147.173 19.5538 147.177 19.5538C147.181 19.5538 147.185 19.5538 147.189 19.5538C147.193 19.5538 147.197 19.5538 147.201 19.5538C147.205 19.5538 147.209 19.5538 147.213 19.5538C147.216 19.5538 147.22 19.5538 147.224 19.5538C147.228 19.5538 147.232 19.5538 147.236 19.5538C147.24 19.5538 147.244 19.5538 147.248 19.5538C147.252 19.5538 147.256 19.5538 147.26 19.5538C147.264 19.5538 147.268 19.5538 147.272 19.5538C147.276 19.5538 147.279 19.5538 147.283 19.5538C147.287 19.5538 147.291 19.5538 147.295 19.5538C147.299 19.5538 147.303 19.5538 147.307 19.5538C147.311 19.5538 147.315 19.5538 147.319 19.5538C147.323 19.5538 147.327 19.5538 147.331 19.5538C147.335 19.5538 147.339 19.5538 147.342 19.5538C147.346 19.5538 147.35 19.5538 147.354 19.5538C147.358 19.5538 147.362 19.5538 147.366 19.5538C147.37 19.5538 147.374 19.5538 147.378 19.5538C147.382 19.5538 147.386 19.5538 147.39 19.5538C147.394 19.5538 147.398 19.5538 147.402 19.5538C147.405 19.5538 147.409 19.5538 147.413 19.5538C147.417 19.5538 147.421 19.5538 147.425 19.5538C147.429 19.5538 147.433 19.5538 147.437 19.5538C147.441 19.5538 147.445 19.5538 147.449 19.5538C147.453 19.5538 147.457 19.5538 147.461 19.5538C147.465 19.5538 147.468 19.5538 147.472 19.5538C147.476 19.5538 147.48 19.5538 147.484 19.5538C147.488 19.5538 147.492 19.5538 147.496 19.5538C147.5 19.5538 147.504 19.5538 147.508 19.5538C147.512 19.5538 147.516 19.5538 147.52 19.5538C147.524 19.5538 147.528 19.5538 147.531 19.5538C147.535 19.5538 147.539 19.5538 147.543 19.5538C147.547 19.5538 147.551 19.5538 147.555 19.5538C147.559 19.5538 147.563 19.5538 147.567 19.5538C147.571 19.5538 147.575 19.5538 147.579 19.5538C147.583 19.5538 147.587 19.5538 147.591 19.5538C147.594 19.5538 147.598 19.5538 147.602 19.5538C147.606 19.5538 147.61 19.5538 147.614 19.5538C147.618 19.5538 147.622 19.5538 147.626 19.5538C147.63 19.5538 147.634 19.5538 147.638 19.5538C147.642 19.5538 147.646 19.5538 147.65 19.5538C147.654 19.5538 147.657 19.5538 147.661 19.5538C147.665 19.5538 147.669 19.5538 147.673 19.5538C147.677 19.5538 147.681 19.5538 147.685 19.5538C147.689 19.5538 147.693 19.5538 147.697 19.5538C147.701 19.5538 147.705 19.5538 147.709 19.5538C147.713 19.5538 147.717 19.5538 147.72 19.5538C147.724 19.5538 147.728 19.5538 147.732 19.5538C147.736 19.5538 147.74 19.5538 147.744 19.5538C147.748 19.5538 147.752 19.5538 147.756 19.5538C147.76 19.5538 147.764 19.5538 147.768 19.5538C147.772 19.5538 147.776 19.5538 147.78 19.5538C147.783 19.5538 147.787 19.5538 147.791 19.5538C147.795 19.5538 147.799 19.5538 147.803 19.5538C147.807 19.5538 147.811 19.5538 147.815 19.5538C147.819 19.5538 147.823 19.5538 147.827 19.5538C147.831 19.5538 147.835 19.5538 147.839 19.5538C147.843 19.5538 147.846 19.5538 147.85 19.5538C147.854 19.5538 147.858 19.5538 147.862 19.5538C147.866 19.5538 147.87 19.5538 147.874 19.5538C147.878 19.5538 147.882 19.5538 147.886 19.5538C147.89 19.5538 147.894 19.5538 147.898 19.5538C147.902 19.5538 147.906 19.5538 147.909 19.5538C147.913 19.5538 147.917 19.5538 147.921 19.5538C147.925 19.5538 147.929 19.5538 147.933 19.5538C147.937 19.5538 147.941 19.5538 147.945 19.5538C147.949 19.5538 147.953 19.5538 147.957 19.5538C147.961 19.5538 147.965 19.5538 147.969 19.5538C147.972 19.5538 147.976 19.5538 147.98 19.5538C147.984 19.5538 147.988 19.5538 147.992 19.5538C147.996 19.5538 148 19.5538 148.004 19.5538C148.008 19.5538 148.012 19.5538 148.016 19.5538C148.02 19.5538 148.024 19.5538 148.028 19.5538C148.032 19.5538 148.035 19.5538 148.039 19.5538C148.043 19.5538 148.047 19.5538 148.051 19.5538C148.055 19.5538 148.059 19.5538 148.063 19.5538C148.067 19.5538 148.071 19.5538 148.075 19.5538C148.079 19.5538 148.083 19.5538 148.087 19.5538C148.091 19.5538 148.095 19.5538 148.098 19.5538C148.102 19.5538 148.106 19.5538 148.11 19.5538C148.114 19.5538 148.118 19.5538 148.122 19.5538V9.55384C148.118 9.55384 148.114 9.55384 148.11 9.55384C148.106 9.55384 148.102 9.55384 148.098 9.55384C148.095 9.55384 148.091 9.55384 148.087 9.55384C148.083 9.55384 148.079 9.55384 148.075 9.55384C148.071 9.55384 148.067 9.55384 148.063 9.55384C148.059 9.55384 148.055 9.55384 148.051 9.55384C148.047 9.55384 148.043 9.55384 148.039 9.55384C148.035 9.55384 148.032 9.55384 148.028 9.55384C148.024 9.55384 148.02 9.55384 148.016 9.55384C148.012 9.55384 148.008 9.55384 148.004 9.55384C148 9.55384 147.996 9.55384 147.992 9.55384C147.988 9.55384 147.984 9.55384 147.98 9.55384C147.976 9.55384 147.972 9.55384 147.969 9.55384C147.965 9.55384 147.961 9.55384 147.957 9.55384C147.953 9.55384 147.949 9.55384 147.945 9.55384C147.941 9.55384 147.937 9.55384 147.933 9.55384C147.929 9.55384 147.925 9.55384 147.921 9.55384C147.917 9.55384 147.913 9.55384 147.909 9.55384C147.906 9.55384 147.902 9.55384 147.898 9.55384C147.894 9.55384 147.89 9.55384 147.886 9.55384C147.882 9.55384 147.878 9.55384 147.874 9.55384C147.87 9.55384 147.866 9.55384 147.862 9.55384C147.858 9.55384 147.854 9.55384 147.85 9.55384C147.846 9.55384 147.843 9.55384 147.839 9.55384C147.835 9.55384 147.831 9.55384 147.827 9.55384C147.823 9.55384 147.819 9.55384 147.815 9.55384C147.811 9.55384 147.807 9.55384 147.803 9.55384C147.799 9.55384 147.795 9.55384 147.791 9.55384C147.787 9.55384 147.783 9.55384 147.78 9.55384C147.776 9.55384 147.772 9.55384 147.768 9.55384C147.764 9.55384 147.76 9.55384 147.756 9.55384C147.752 9.55384 147.748 9.55384 147.744 9.55384C147.74 9.55384 147.736 9.55384 147.732 9.55384C147.728 9.55384 147.724 9.55384 147.72 9.55384C147.717 9.55384 147.713 9.55384 147.709 9.55384C147.705 9.55384 147.701 9.55384 147.697 9.55384C147.693 9.55384 147.689 9.55384 147.685 9.55384C147.681 9.55384 147.677 9.55384 147.673 9.55384C147.669 9.55384 147.665 9.55384 147.661 9.55384C147.657 9.55384 147.654 9.55384 147.65 9.55384C147.646 9.55384 147.642 9.55384 147.638 9.55384C147.634 9.55384 147.63 9.55384 147.626 9.55384C147.622 9.55384 147.618 9.55384 147.614 9.55384C147.61 9.55384 147.606 9.55384 147.602 9.55384C147.598 9.55384 147.594 9.55384 147.591 9.55384C147.587 9.55384 147.583 9.55384 147.579 9.55384C147.575 9.55384 147.571 9.55384 147.567 9.55384C147.563 9.55384 147.559 9.55384 147.555 9.55384C147.551 9.55384 147.547 9.55384 147.543 9.55384C147.539 9.55384 147.535 9.55384 147.531 9.55384C147.528 9.55384 147.524 9.55384 147.52 9.55384C147.516 9.55384 147.512 9.55384 147.508 9.55384C147.504 9.55384 147.5 9.55384 147.496 9.55384C147.492 9.55384 147.488 9.55384 147.484 9.55384C147.48 9.55384 147.476 9.55384 147.472 9.55384C147.468 9.55384 147.465 9.55384 147.461 9.55384C147.457 9.55384 147.453 9.55384 147.449 9.55384C147.445 9.55384 147.441 9.55384 147.437 9.55384C147.433 9.55384 147.429 9.55384 147.425 9.55384C147.421 9.55384 147.417 9.55384 147.413 9.55384C147.409 9.55384 147.405 9.55384 147.402 9.55384C147.398 9.55384 147.394 9.55384 147.39 9.55384C147.386 9.55384 147.382 9.55384 147.378 9.55384C147.374 9.55384 147.37 9.55384 147.366 9.55384C147.362 9.55384 147.358 9.55384 147.354 9.55384C147.35 9.55384 147.346 9.55384 147.342 9.55384C147.339 9.55384 147.335 9.55384 147.331 9.55384C147.327 9.55384 147.323 9.55384 147.319 9.55384C147.315 9.55384 147.311 9.55384 147.307 9.55384C147.303 9.55384 147.299 9.55384 147.295 9.55384C147.291 9.55384 147.287 9.55384 147.283 9.55384C147.279 9.55384 147.276 9.55384 147.272 9.55384C147.268 9.55384 147.264 9.55384 147.26 9.55384C147.256 9.55384 147.252 9.55384 147.248 9.55384C147.244 9.55384 147.24 9.55384 147.236 9.55384C147.232 9.55384 147.228 9.55384 147.224 9.55384C147.22 9.55384 147.216 9.55384 147.213 9.55384C147.209 9.55384 147.205 9.55384 147.201 9.55384C147.197 9.55384 147.193 9.55384 147.189 9.55384C147.185 9.55384 147.181 9.55384 147.177 9.55384C147.173 9.55384 147.169 9.55384 147.165 9.55384C147.161 9.55384 147.157 9.55384 147.153 9.55384C147.15 9.55384 147.146 9.55384 147.142 9.55384C147.138 9.55384 147.134 9.55384 147.13 9.55384C147.126 9.55384 147.122 9.55384 147.118 9.55384C147.114 9.55384 147.11 9.55384 147.106 9.55384C147.102 9.55384 147.098 9.55384 147.094 9.55384C147.09 9.55384 147.087 9.55384 147.083 9.55384C147.079 9.55384 147.075 9.55384 147.071 9.55384C147.067 9.55384 147.063 9.55384 147.059 9.55384C147.055 9.55384 147.051 9.55384 147.047 9.55384C147.043 9.55384 147.039 9.55384 147.035 9.55384C147.031 9.55384 147.027 9.55384 147.024 9.55384C147.02 9.55384 147.016 9.55384 147.012 9.55384C147.008 9.55384 147.004 9.55384 147 9.55384C146.996 9.55384 146.992 9.55384 146.988 9.55384C146.984 9.55384 146.98 9.55384 146.976 9.55384C146.972 9.55384 146.968 9.55384 146.964 9.55384C146.961 9.55384 146.957 9.55384 146.953 9.55384C146.949 9.55384 146.945 9.55384 146.941 9.55384C146.937 9.55384 146.933 9.55384 146.929 9.55384C146.925 9.55384 146.921 9.55384 146.917 9.55384C146.913 9.55384 146.909 9.55384 146.905 9.55384C146.901 9.55384 146.898 9.55384 146.894 9.55384C146.89 9.55384 146.886 9.55384 146.882 9.55384C146.878 9.55384 146.874 9.55384 146.87 9.55384C146.866 9.55384 146.862 9.55384 146.858 9.55384C146.854 9.55384 146.85 9.55384 146.846 9.55384C146.842 9.55384 146.838 9.55384 146.835 9.55384C146.831 9.55384 146.827 9.55384 146.823 9.55384C146.819 9.55384 146.815 9.55384 146.811 9.55384C146.807 9.55384 146.803 9.55384 146.799 9.55384C146.795 9.55384 146.791 9.55384 146.787 9.55384C146.783 9.55384 146.779 9.55384 146.775 9.55384C146.772 9.55384 146.768 9.55384 146.764 9.55384C146.76 9.55384 146.756 9.55384 146.752 9.55384C146.748 9.55384 146.744 9.55384 146.74 9.55384C146.736 9.55384 146.732 9.55384 146.728 9.55384C146.724 9.55384 146.72 9.55384 146.716 9.55384C146.712 9.55384 146.709 9.55384 146.705 9.55384C146.701 9.55384 146.697 9.55384 146.693 9.55384C146.689 9.55384 146.685 9.55384 146.681 9.55384C146.677 9.55384 146.673 9.55384 146.669 9.55384C146.665 9.55384 146.661 9.55384 146.657 9.55384C146.653 9.55384 146.649 9.55384 146.646 9.55384C146.642 9.55384 146.638 9.55384 146.634 9.55384C146.63 9.55384 146.626 9.55384 146.622 9.55384C146.618 9.55384 146.614 9.55384 146.61 9.55384C146.606 9.55384 146.602 9.55384 146.598 9.55384C146.594 9.55384 146.59 9.55384 146.586 9.55384C146.583 9.55384 146.579 9.55384 146.575 9.55384C146.571 9.55384 146.567 9.55384 146.563 9.55384C146.559 9.55384 146.555 9.55384 146.551 9.55384C146.547 9.55384 146.543 9.55384 146.539 9.55384C146.535 9.55384 146.531 9.55384 146.527 9.55384C146.523 9.55384 146.52 9.55384 146.516 9.55384C146.512 9.55384 146.508 9.55384 146.504 9.55384C146.5 9.55384 146.496 9.55384 146.492 9.55384C146.488 9.55384 146.484 9.55384 146.48 9.55384C146.476 9.55384 146.472 9.55384 146.468 9.55384C146.464 9.55384 146.46 9.55384 146.457 9.55384C146.453 9.55384 146.449 9.55384 146.445 9.55384C146.441 9.55384 146.437 9.55384 146.433 9.55384C146.429 9.55384 146.425 9.55384 146.421 9.55384C146.417 9.55384 146.413 9.55384 146.409 9.55384C146.405 9.55384 146.401 9.55384 146.397 9.55384C146.394 9.55384 146.39 9.55384 146.386 9.55384C146.382 9.55384 146.378 9.55384 146.374 9.55384C146.37 9.55384 146.366 9.55384 146.362 9.55384C146.358 9.55384 146.354 9.55384 146.35 9.55384C146.346 9.55384 146.342 9.55384 146.338 9.55384C146.334 9.55384 146.331 9.55384 146.327 9.55384C146.323 9.55384 146.319 9.55384 146.315 9.55384C146.311 9.55384 146.307 9.55384 146.303 9.55384C146.299 9.55384 146.295 9.55384 146.291 9.55384C146.287 9.55384 146.283 9.55384 146.279 9.55384C146.275 9.55384 146.271 9.55384 146.268 9.55384C146.264 9.55384 146.26 9.55384 146.256 9.55384C146.252 9.55384 146.248 9.55384 146.244 9.55384C146.24 9.55384 146.236 9.55384 146.232 9.55384C146.228 9.55384 146.224 9.55384 146.22 9.55384C146.216 9.55384 146.212 9.55384 146.208 9.55384C146.205 9.55384 146.201 9.55384 146.197 9.55384C146.193 9.55384 146.189 9.55384 146.185 9.55384C146.181 9.55384 146.177 9.55384 146.173 9.55384C146.169 9.55384 146.165 9.55384 146.161 9.55384C146.157 9.55384 146.153 9.55384 146.149 9.55384C146.145 9.55384 146.142 9.55384 146.138 9.55384C146.134 9.55384 146.13 9.55384 146.126 9.55384C146.122 9.55384 146.118 9.55384 146.114 9.55384C146.11 9.55384 146.106 9.55384 146.102 9.55384C146.098 9.55384 146.094 9.55384 146.09 9.55384C146.086 9.55384 146.082 9.55384 146.079 9.55384C146.075 9.55384 146.071 9.55384 146.067 9.55384C146.063 9.55384 146.059 9.55384 146.055 9.55384C146.051 9.55384 146.047 9.55384 146.043 9.55384C146.039 9.55384 146.035 9.55384 146.031 9.55384C146.027 9.55384 146.023 9.55384 146.019 9.55384C146.016 9.55384 146.012 9.55384 146.008 9.55384C146.004 9.55384 146 9.55384 145.996 9.55384C145.992 9.55384 145.988 9.55384 145.984 9.55384C145.98 9.55384 145.976 9.55384 145.972 9.55384C145.968 9.55384 145.964 9.55384 145.96 9.55384C145.956 9.55384 145.953 9.55384 145.949 9.55384C145.945 9.55384 145.941 9.55384 145.937 9.55384C145.933 9.55384 145.929 9.55384 145.925 9.55384C145.921 9.55384 145.917 9.55384 145.913 9.55384C145.909 9.55384 145.905 9.55384 145.901 9.55384C145.897 9.55384 145.893 9.55384 145.89 9.55384C145.886 9.55384 145.882 9.55384 145.878 9.55384C145.874 9.55384 145.87 9.55384 145.866 9.55384C145.862 9.55384 145.858 9.55384 145.854 9.55384C145.85 9.55384 145.846 9.55384 145.842 9.55384C145.838 9.55384 145.834 9.55384 145.83 9.55384C145.827 9.55384 145.823 9.55384 145.819 9.55384C145.815 9.55384 145.811 9.55384 145.807 9.55384C145.803 9.55384 145.799 9.55384 145.795 9.55384C145.791 9.55384 145.787 9.55384 145.783 9.55384C145.779 9.55384 145.775 9.55384 145.771 9.55384C145.767 9.55384 145.764 9.55384 145.76 9.55384C145.756 9.55384 145.752 9.55384 145.748 9.55384C145.744 9.55384 145.74 9.55384 145.736 9.55384C145.732 9.55384 145.728 9.55384 145.724 9.55384C145.72 9.55384 145.716 9.55384 145.712 9.55384C145.708 9.55384 145.704 9.55384 145.701 9.55384C145.697 9.55384 145.693 9.55384 145.689 9.55384C145.685 9.55384 145.681 9.55384 145.677 9.55384C145.673 9.55384 145.669 9.55384 145.665 9.55384C145.661 9.55384 145.657 9.55384 145.653 9.55384C145.649 9.55384 145.645 9.55384 145.641 9.55384C145.638 9.55384 145.634 9.55384 145.63 9.55384C145.626 9.55384 145.622 9.55384 145.618 9.55384C145.614 9.55384 145.61 9.55384 145.606 9.55384C145.602 9.55384 145.598 9.55384 145.594 9.55384C145.59 9.55384 145.586 9.55384 145.582 9.55384C145.578 9.55384 145.575 9.55384 145.571 9.55384C145.567 9.55384 145.563 9.55384 145.559 9.55384C145.555 9.55384 145.551 9.55384 145.547 9.55384C145.543 9.55384 145.539 9.55384 145.535 9.55384C145.531 9.55384 145.527 9.55384 145.523 9.55384C145.519 9.55384 145.515 9.55384 145.512 9.55384C145.508 9.55384 145.504 9.55384 145.5 9.55384C145.496 9.55384 145.492 9.55384 145.488 9.55384C145.484 9.55384 145.48 9.55384 145.476 9.55384C145.472 9.55384 145.468 9.55384 145.464 9.55384C145.46 9.55384 145.456 9.55384 145.452 9.55384C145.449 9.55384 145.445 9.55384 145.441 9.55384C145.437 9.55384 145.433 9.55384 145.429 9.55384C145.425 9.55384 145.421 9.55384 145.417 9.55384C145.413 9.55384 145.409 9.55384 145.405 9.55384C145.401 9.55384 145.397 9.55384 145.393 9.55384C145.389 9.55384 145.386 9.55384 145.382 9.55384C145.378 9.55384 145.374 9.55384 145.37 9.55384C145.366 9.55384 145.362 9.55384 145.358 9.55384C145.354 9.55384 145.35 9.55384 145.346 9.55384C145.342 9.55384 145.338 9.55384 145.334 9.55384C145.33 9.55384 145.326 9.55384 145.323 9.55384C145.319 9.55384 145.315 9.55384 145.311 9.55384C145.307 9.55384 145.303 9.55384 145.299 9.55384C145.295 9.55384 145.291 9.55384 145.287 9.55384C145.283 9.55384 145.279 9.55384 145.275 9.55384C145.271 9.55384 145.267 9.55384 145.263 9.55384C145.26 9.55384 145.256 9.55384 145.252 9.55384C145.248 9.55384 145.244 9.55384 145.24 9.55384C145.236 9.55384 145.232 9.55384 145.228 9.55384C145.224 9.55384 145.22 9.55384 145.216 9.55384C145.212 9.55384 145.208 9.55384 145.204 9.55384C145.2 9.55384 145.197 9.55384 145.193 9.55384C145.189 9.55384 145.185 9.55384 145.181 9.55384C145.177 9.55384 145.173 9.55384 145.169 9.55384C145.165 9.55384 145.161 9.55384 145.157 9.55384C145.153 9.55384 145.149 9.55384 145.145 9.55384C145.141 9.55384 145.137 9.55384 145.134 9.55384C145.13 9.55384 145.126 9.55384 145.122 9.55384C145.118 9.55384 145.114 9.55384 145.11 9.55384C145.106 9.55384 145.102 9.55384 145.098 9.55384C145.094 9.55384 145.09 9.55384 145.086 9.55384C145.082 9.55384 145.078 9.55384 145.074 9.55384C145.071 9.55384 145.067 9.55384 145.063 9.55384C145.059 9.55384 145.055 9.55384 145.051 9.55384C145.047 9.55384 145.043 9.55384 145.039 9.55384C145.035 9.55384 145.031 9.55384 145.027 9.55384C145.023 9.55384 145.019 9.55384 145.015 9.55384C145.011 9.55384 145.008 9.55384 145.004 9.55384C145 9.55384 144.996 9.55384 144.992 9.55384C144.988 9.55384 144.984 9.55384 144.98 9.55384C144.976 9.55384 144.972 9.55384 144.968 9.55384C144.964 9.55384 144.96 9.55384 144.956 9.55384C144.952 9.55384 144.948 9.55384 144.945 9.55384C144.941 9.55384 144.937 9.55384 144.933 9.55384C144.929 9.55384 144.925 9.55384 144.921 9.55384C144.917 9.55384 144.913 9.55384 144.909 9.55384C144.905 9.55384 144.901 9.55384 144.897 9.55384C144.893 9.55384 144.889 9.55384 144.885 9.55384C144.882 9.55384 144.878 9.55384 144.874 9.55384C144.87 9.55384 144.866 9.55384 144.862 9.55384C144.858 9.55384 144.854 9.55384 144.85 9.55384C144.846 9.55384 144.842 9.55384 144.838 9.55384C144.834 9.55384 144.83 9.55384 144.826 9.55384C144.822 9.55384 144.819 9.55384 144.815 9.55384C144.811 9.55384 144.807 9.55384 144.803 9.55384C144.799 9.55384 144.795 9.55384 144.791 9.55384C144.787 9.55384 144.783 9.55384 144.779 9.55384C144.775 9.55384 144.771 9.55384 144.767 9.55384C144.763 9.55384 144.759 9.55384 144.756 9.55384C144.752 9.55384 144.748 9.55384 144.744 9.55384C144.74 9.55384 144.736 9.55384 144.732 9.55384C144.728 9.55384 144.724 9.55384 144.72 9.55384C144.716 9.55384 144.712 9.55384 144.708 9.55384C144.704 9.55384 144.7 9.55384 144.696 9.55384C144.693 9.55384 144.689 9.55384 144.685 9.55384C144.681 9.55384 144.677 9.55384 144.673 9.55384C144.669 9.55384 144.665 9.55384 144.661 9.55384C144.657 9.55384 144.653 9.55384 144.649 9.55384C144.645 9.55384 144.641 9.55384 144.637 9.55384C144.633 9.55384 144.63 9.55384 144.626 9.55384C144.622 9.55384 144.618 9.55384 144.614 9.55384C144.61 9.55384 144.606 9.55384 144.602 9.55384C144.598 9.55384 144.594 9.55384 144.59 9.55384C144.586 9.55384 144.582 9.55384 144.578 9.55384C144.574 9.55384 144.57 9.55384 144.567 9.55384C144.563 9.55384 144.559 9.55384 144.555 9.55384C144.551 9.55384 144.547 9.55384 144.543 9.55384C144.539 9.55384 144.535 9.55384 144.531 9.55384C144.527 9.55384 144.523 9.55384 144.519 9.55384C144.515 9.55384 144.511 9.55384 144.507 9.55384C144.504 9.55384 144.5 9.55384 144.496 9.55384C144.492 9.55384 144.488 9.55384 144.484 9.55384C144.48 9.55384 144.476 9.55384 144.472 9.55384C144.468 9.55384 144.464 9.55384 144.46 9.55384C144.456 9.55384 144.452 9.55384 144.448 9.55384C144.444 9.55384 144.441 9.55384 144.437 9.55384C144.433 9.55384 144.429 9.55384 144.425 9.55384C144.421 9.55384 144.417 9.55384 144.413 9.55384C144.409 9.55384 144.405 9.55384 144.401 9.55384C144.397 9.55384 144.393 9.55384 144.389 9.55384C144.385 9.55384 144.381 9.55384 144.378 9.55384C144.374 9.55384 144.37 9.55384 144.366 9.55384C144.362 9.55384 144.358 9.55384 144.354 9.55384C144.35 9.55384 144.346 9.55384 144.342 9.55384C144.338 9.55384 144.334 9.55384 144.33 9.55384C144.326 9.55384 144.322 9.55384 144.318 9.55384C144.315 9.55384 144.311 9.55384 144.307 9.55384C144.303 9.55384 144.299 9.55384 144.295 9.55384C144.291 9.55384 144.287 9.55384 144.283 9.55384C144.279 9.55384 144.275 9.55384 144.271 9.55384C144.267 9.55384 144.263 9.55384 144.259 9.55384C144.255 9.55384 144.252 9.55384 144.248 9.55384C144.244 9.55384 144.24 9.55384 144.236 9.55384C144.232 9.55384 144.228 9.55384 144.224 9.55384C144.22 9.55384 144.216 9.55384 144.212 9.55384C144.208 9.55384 144.204 9.55384 144.2 9.55384C144.196 9.55384 144.192 9.55384 144.189 9.55384C144.185 9.55384 144.181 9.55384 144.177 9.55384C144.173 9.55384 144.169 9.55384 144.165 9.55384C144.161 9.55384 144.157 9.55384 144.153 9.55384C144.149 9.55384 144.145 9.55384 144.141 9.55384C144.137 9.55384 144.133 9.55384 144.129 9.55384C144.126 9.55384 144.122 9.55384 144.118 9.55384C144.114 9.55384 144.11 9.55384 144.106 9.55384C144.102 9.55384 144.098 9.55384 144.094 9.55384C144.09 9.55384 144.086 9.55384 144.082 9.55384C144.078 9.55384 144.074 9.55384 144.07 9.55384C144.066 9.55384 144.063 9.55384 144.059 9.55384C144.055 9.55384 144.051 9.55384 144.047 9.55384C144.043 9.55384 144.039 9.55384 144.035 9.55384C144.031 9.55384 144.027 9.55384 144.023 9.55384C144.019 9.55384 144.015 9.55384 144.011 9.55384C144.007 9.55384 144.003 9.55384 144 9.55384C143.996 9.55384 143.992 9.55384 143.988 9.55384C143.984 9.55384 143.98 9.55384 143.976 9.55384C143.972 9.55384 143.968 9.55384 143.964 9.55384C143.96 9.55384 143.956 9.55384 143.952 9.55384C143.948 9.55384 143.944 9.55384 143.94 9.55384C143.937 9.55384 143.933 9.55384 143.929 9.55384C143.925 9.55384 143.921 9.55384 143.917 9.55384C143.913 9.55384 143.909 9.55384 143.905 9.55384C143.901 9.55384 143.897 9.55384 143.893 9.55384C143.889 9.55384 143.885 9.55384 143.881 9.55384C143.877 9.55384 143.874 9.55384 143.87 9.55384C143.866 9.55384 143.862 9.55384 143.858 9.55384C143.854 9.55384 143.85 9.55384 143.846 9.55384C143.842 9.55384 143.838 9.55384 143.834 9.55384C143.83 9.55384 143.826 9.55384 143.822 9.55384C143.818 9.55384 143.814 9.55384 143.811 9.55384C143.807 9.55384 143.803 9.55384 143.799 9.55384C143.795 9.55384 143.791 9.55384 143.787 9.55384C143.783 9.55384 143.779 9.55384 143.775 9.55384C143.771 9.55384 143.767 9.55384 143.763 9.55384C143.759 9.55384 143.755 9.55384 143.751 9.55384C143.748 9.55384 143.744 9.55384 143.74 9.55384C143.736 9.55384 143.732 9.55384 143.728 9.55384C143.724 9.55384 143.72 9.55384 143.716 9.55384C143.712 9.55384 143.708 9.55384 143.704 9.55384C143.7 9.55384 143.696 9.55384 143.692 9.55384C143.688 9.55384 143.685 9.55384 143.681 9.55384C143.677 9.55384 143.673 9.55384 143.669 9.55384C143.665 9.55384 143.661 9.55384 143.657 9.55384C143.653 9.55384 143.649 9.55384 143.645 9.55384C143.641 9.55384 143.637 9.55384 143.633 9.55384C143.629 9.55384 143.625 9.55384 143.622 9.55384C143.618 9.55384 143.614 9.55384 143.61 9.55384C143.606 9.55384 143.602 9.55384 143.598 9.55384C143.594 9.55384 143.59 9.55384 143.586 9.55384C143.582 9.55384 143.578 9.55384 143.574 9.55384C143.57 9.55384 143.566 9.55384 143.562 9.55384C143.559 9.55384 143.555 9.55384 143.551 9.55384C143.547 9.55384 143.543 9.55384 143.539 9.55384C143.535 9.55384 143.531 9.55384 143.527 9.55384C143.523 9.55384 143.519 9.55384 143.515 9.55384C143.511 9.55384 143.507 9.55384 143.503 9.55384C143.499 9.55384 143.496 9.55384 143.492 9.55384C143.488 9.55384 143.484 9.55384 143.48 9.55384C143.476 9.55384 143.472 9.55384 143.468 9.55384C143.464 9.55384 143.46 9.55384 143.456 9.55384C143.452 9.55384 143.448 9.55384 143.444 9.55384C143.44 9.55384 143.436 9.55384 143.433 9.55384C143.429 9.55384 143.425 9.55384 143.421 9.55384C143.417 9.55384 143.413 9.55384 143.409 9.55384C143.405 9.55384 143.401 9.55384 143.397 9.55384C143.393 9.55384 143.389 9.55384 143.385 9.55384C143.381 9.55384 143.377 9.55384 143.373 9.55384C143.37 9.55384 143.366 9.55384 143.362 9.55384C143.358 9.55384 143.354 9.55384 143.35 9.55384C143.346 9.55384 143.342 9.55384 143.338 9.55384C143.334 9.55384 143.33 9.55384 143.326 9.55384C143.322 9.55384 143.318 9.55384 143.314 9.55384C143.31 9.55384 143.307 9.55384 143.303 9.55384C143.299 9.55384 143.295 9.55384 143.291 9.55384C143.287 9.55384 143.283 9.55384 143.279 9.55384C143.275 9.55384 143.271 9.55384 143.267 9.55384C143.263 9.55384 143.259 9.55384 143.255 9.55384C143.251 9.55384 143.247 9.55384 143.244 9.55384C143.24 9.55384 143.236 9.55384 143.232 9.55384C143.228 9.55384 143.224 9.55384 143.22 9.55384C143.216 9.55384 143.212 9.55384 143.208 9.55384C143.204 9.55384 143.2 9.55384 143.196 9.55384C143.192 9.55384 143.188 9.55384 143.184 9.55384C143.181 9.55384 143.177 9.55384 143.173 9.55384C143.169 9.55384 143.165 9.55384 143.161 9.55384C143.157 9.55384 143.153 9.55384 143.149 9.55384C143.145 9.55384 143.141 9.55384 143.137 9.55384C143.133 9.55384 143.129 9.55384 143.125 9.55384C143.121 9.55384 143.118 9.55384 143.114 9.55384C143.11 9.55384 143.106 9.55384 143.102 9.55384C143.098 9.55384 143.094 9.55384 143.09 9.55384C143.086 9.55384 143.082 9.55384 143.078 9.55384C143.074 9.55384 143.07 9.55384 143.066 9.55384C143.062 9.55384 143.058 9.55384 143.055 9.55384C143.051 9.55384 143.047 9.55384 143.043 9.55384C143.039 9.55384 143.035 9.55384 143.031 9.55384C143.027 9.55384 143.023 9.55384 143.019 9.55384C143.015 9.55384 143.011 9.55384 143.007 9.55384C143.003 9.55384 142.999 9.55384 142.995 9.55384C142.992 9.55384 142.988 9.55384 142.984 9.55384C142.98 9.55384 142.976 9.55384 142.972 9.55384C142.968 9.55384 142.964 9.55384 142.96 9.55384C142.956 9.55384 142.952 9.55384 142.948 9.55384C142.944 9.55384 142.94 9.55384 142.936 9.55384C142.932 9.55384 142.929 9.55384 142.925 9.55384C142.921 9.55384 142.917 9.55384 142.913 9.55384C142.909 9.55384 142.905 9.55384 142.901 9.55384C142.897 9.55384 142.893 9.55384 142.889 9.55384C142.885 9.55384 142.881 9.55384 142.877 9.55384C142.873 9.55384 142.869 9.55384 142.866 9.55384C142.862 9.55384 142.858 9.55384 142.854 9.55384C142.85 9.55384 142.846 9.55384 142.842 9.55384C142.838 9.55384 142.834 9.55384 142.83 9.55384C142.826 9.55384 142.822 9.55384 142.818 9.55384C142.814 9.55384 142.81 9.55384 142.806 9.55384C142.803 9.55384 142.799 9.55384 142.795 9.55384C142.791 9.55384 142.787 9.55384 142.783 9.55384C142.779 9.55384 142.775 9.55384 142.771 9.55384C142.767 9.55384 142.763 9.55384 142.759 9.55384C142.755 9.55384 142.751 9.55384 142.747 9.55384C142.743 9.55384 142.74 9.55384 142.736 9.55384C142.732 9.55384 142.728 9.55384 142.724 9.55384C142.72 9.55384 142.716 9.55384 142.712 9.55384C142.708 9.55384 142.704 9.55384 142.7 9.55384C142.696 9.55384 142.692 9.55384 142.688 9.55384C142.684 9.55384 142.68 9.55384 142.677 9.55384C142.673 9.55384 142.669 9.55384 142.665 9.55384C142.661 9.55384 142.657 9.55384 142.653 9.55384C142.649 9.55384 142.645 9.55384 142.641 9.55384C142.637 9.55384 142.633 9.55384 142.629 9.55384C142.625 9.55384 142.621 9.55384 142.617 9.55384C142.614 9.55384 142.61 9.55384 142.606 9.55384C142.602 9.55384 142.598 9.55384 142.594 9.55384C142.59 9.55384 142.586 9.55384 142.582 9.55384C142.578 9.55384 142.574 9.55384 142.57 9.55384C142.566 9.55384 142.562 9.55384 142.558 9.55384C142.554 9.55384 142.551 9.55384 142.547 9.55384C142.543 9.55384 142.539 9.55384 142.535 9.55384C142.531 9.55384 142.527 9.55384 142.523 9.55384C142.519 9.55384 142.515 9.55384 142.511 9.55384C142.507 9.55384 142.503 9.55384 142.499 9.55384C142.495 9.55384 142.491 9.55384 142.488 9.55384C142.484 9.55384 142.48 9.55384 142.476 9.55384C142.472 9.55384 142.468 9.55384 142.464 9.55384C142.46 9.55384 142.456 9.55384 142.452 9.55384C142.448 9.55384 142.444 9.55384 142.44 9.55384C142.436 9.55384 142.432 9.55384 142.428 9.55384C142.425 9.55384 142.421 9.55384 142.417 9.55384C142.413 9.55384 142.409 9.55384 142.405 9.55384C142.401 9.55384 142.397 9.55384 142.393 9.55384C142.389 9.55384 142.385 9.55384 142.381 9.55384C142.377 9.55384 142.373 9.55384 142.369 9.55384C142.365 9.55384 142.362 9.55384 142.358 9.55384C142.354 9.55384 142.35 9.55384 142.346 9.55384C142.342 9.55384 142.338 9.55384 142.334 9.55384C142.33 9.55384 142.326 9.55384 142.322 9.55384C142.318 9.55384 142.314 9.55384 142.31 9.55384C142.306 9.55384 142.302 9.55384 142.299 9.55384C142.295 9.55384 142.291 9.55384 142.287 9.55384C142.283 9.55384 142.279 9.55384 142.275 9.55384C142.271 9.55384 142.267 9.55384 142.263 9.55384C142.259 9.55384 142.255 9.55384 142.251 9.55384C142.247 9.55384 142.243 9.55384 142.239 9.55384C142.236 9.55384 142.232 9.55384 142.228 9.55384C142.224 9.55384 142.22 9.55384 142.216 9.55384C142.212 9.55384 142.208 9.55384 142.204 9.55384C142.2 9.55384 142.196 9.55384 142.192 9.55384C142.188 9.55384 142.184 9.55384 142.18 9.55384C142.176 9.55384 142.173 9.55384 142.169 9.55384C142.165 9.55384 142.161 9.55384 142.157 9.55384C142.153 9.55384 142.149 9.55384 142.145 9.55384C142.141 9.55384 142.137 9.55384 142.133 9.55384C142.129 9.55384 142.125 9.55384 142.121 9.55384C142.117 9.55384 142.113 9.55384 142.11 9.55384C142.106 9.55384 142.102 9.55384 142.098 9.55384C142.094 9.55384 142.09 9.55384 142.086 9.55384C142.082 9.55384 142.078 9.55384 142.074 9.55384V19.5538ZM143.122 14.5538V28.2178H153.122V14.5538H143.122ZM145.624 23.8864L141.24 26.4144L146.236 35.0773L150.62 32.5493L145.624 23.8864ZM138.738 30.7458V37.7538H148.738V30.7458H138.738ZM143.738 32.7538H138.938V42.7538H143.738V32.7538ZM143.938 37.7538V30.7458H133.938V37.7538H143.938ZM141.436 26.4144L137.052 23.8864L132.056 32.5493L136.44 35.0773L141.436 26.4144ZM139.554 28.2178V18.5538H129.554V28.2178H139.554ZM139.327 17.0646L138.079 13.0646L128.533 16.043L129.781 20.043L139.327 17.0646ZM133.306 19.5538H139.354V9.55384H133.306V19.5538ZM134.354 14.5538V25.4338H144.354V14.5538H134.354ZM136.843 29.7578L138.827 30.9098L143.849 22.2619L141.865 21.1099L136.843 29.7578ZM143.879 30.8919L145.831 29.7399L140.749 21.1278L138.797 22.2798L143.879 30.8919ZM148.29 25.4338V18.5538H138.29V25.4338H148.29ZM148.074 17.0996L146.858 13.0996L137.29 16.0081L138.506 20.0081L148.074 17.0996Z" fill="white" mask="url(#path-1-outside-1_38_15)"/>
<path fill-rule="evenodd" clip-rule="evenodd" d="M28.1346 32.0826L35.1312 25.6932C37.2074 26.7391 39.6489 27.0119 41.9439 26.4503C44.2972 25.8745 46.3037 24.4685 47.5219 22.5416C47.5228 22.5402 47.5237 22.5388 47.5246 22.5373C48.7428 20.6105 49.0729 18.3207 48.4423 16.1716C47.8117 14.0225 46.2721 12.1901 44.1622 11.0777C41.3209 9.5796 38.0083 7.83305 35.167 6.33498C33.0571 5.22253 30.5496 4.92103 28.1963 5.49691C25.8429 6.07278 23.8365 7.47876 22.6183 9.40559C22.6174 9.40702 22.6165 9.40846 22.6156 9.40992C21.9147 10.5184 21.5078 11.7472 21.4088 13.0001C21.4088 12.9993 14.2343 19.5511 14.2343 19.5511C12.8639 19.6413 11.518 20.013 10.3039 20.6531C10.3023 20.654 10.3007 20.6548 10.2992 20.6556C8.18924 21.7681 6.64961 23.6004 6.01905 25.7495C5.38845 27.8986 5.7186 30.1885 6.93677 32.1153C8.57717 34.71 10.4897 37.7352 12.1301 40.3299C13.3483 42.2567 15.3548 43.6627 17.7081 44.2386C20.0615 44.8144 22.5689 44.513 24.6788 43.4005C24.6804 43.3997 24.6819 43.3988 24.6835 43.398C26.7935 42.2856 28.3331 40.4532 28.9637 38.3041C29.5786 36.2083 29.2799 33.9787 28.1346 32.0826ZM35.6711 22.7282C34.5716 22.1773 33.8016 22.9243 33.7855 22.9392C29.4313 26.9404 25.1188 30.8537 25.1188 30.8537C24.5674 31.382 24.5646 32.0682 24.8878 32.5757C25.0936 32.8989 25.2077 33.0821 25.3637 33.3284C25.6152 33.7255 25.6148 33.7257 25.3751 33.3465C26.1843 34.6265 26.4036 36.1476 25.9847 37.5752C25.5659 39.0028 24.5431 40.22 23.1415 40.9589L23.1368 40.9615C21.7352 41.7004 20.0696 41.9007 18.5063 41.5182C16.943 41.1356 15.6102 40.2016 14.801 38.9217C13.1605 36.327 11.248 33.3018 9.60759 30.7071C8.79838 29.4272 8.57909 27.9061 8.99796 26.4784C9.41684 25.0508 10.4396 23.8337 11.8411 23.0947L11.8459 23.0922C12.7816 22.5989 13.835 22.3456 14.897 22.3456C15.306 22.3456 15.6982 22.1973 15.9874 21.9332L24.0172 14.6002C24.3064 14.3361 24.4689 13.9779 24.4689 13.6044C24.4689 12.6346 24.7462 11.6726 25.2864 10.8181L25.2891 10.8138C26.0983 9.53381 27.4312 8.59982 28.9944 8.2173C30.5577 7.83481 32.2234 8.03504 33.625 8.77402C36.4663 10.2721 39.7789 12.0187 42.6202 13.5167C44.0218 14.2557 45.0445 15.4729 45.4634 16.9005C45.8823 18.3281 45.663 19.8492 44.8538 21.1292L44.851 21.1335C44.0418 22.4134 42.709 23.3474 41.1457 23.7299C39.5978 24.1087 37.9496 23.9161 36.5567 23.1949L35.6711 22.7282ZM28.1281 32.0885L28.1276 32.089L28.1327 32.099L28.162 32.1674C28.1517 32.1409 28.1404 32.1146 28.1281 32.0885ZM14.7757 29.4255L13.6932 30.4141C13.0914 30.9637 13.0914 31.856 13.6932 32.4056C14.295 32.9551 15.2721 32.9551 15.8739 32.4056L16.9565 31.417L18.039 32.4056C18.6408 32.9551 19.6179 32.9552 20.2198 32.4056C20.8215 31.856 20.8215 30.9637 20.2198 30.4141L19.1372 29.4255L20.2197 28.4369C20.8215 27.8873 20.8215 26.995 20.2197 26.4455C19.6179 25.8959 18.6408 25.8959 18.039 26.4455L16.9565 27.434L15.8739 26.4454C15.2721 25.8959 14.295 25.8959 13.6932 26.4454C13.0914 26.995 13.0914 27.8873 13.6932 28.4369L14.7757 29.4255Z" fill="#F59E0B"/>
<path fill-rule="evenodd" clip-rule="evenodd" d="M33.1847 18.458C32.5478 17.8763 32.5478 16.9319 33.1847 16.3503C33.8216 15.7687 34.8557 15.7687 35.4926 16.3503C36.1295 16.9319 36.1296 17.8763 35.4927 18.458C34.8557 19.0396 33.8216 19.0396 33.1847 18.458ZM33.1847 12.4979C33.8216 11.9162 34.8557 11.9162 35.4927 12.4978C36.1296 13.0795 36.1295 14.0239 35.4926 14.6055C34.8557 15.1871 33.8216 15.1872 33.1847 14.6055C32.5478 14.0239 32.5478 13.0795 33.1847 12.4979ZM28.9661 16.3503C29.603 15.7687 30.6372 15.7687 31.2741 16.3503C31.911 16.9319 31.911 17.8763 31.2741 18.458C30.6372 19.0396 29.603 19.0396 28.9661 18.458C28.3292 17.8763 28.3292 16.9319 28.9661 16.3503ZM28.9661 14.6055C28.3292 14.0239 28.3292 13.0795 28.9661 12.4978C29.603 11.9162 30.6372 11.9162 31.2741 12.4979C31.911 13.0795 31.911 14.0239 31.2741 14.6055C30.6372 15.1871 29.603 15.1871 28.9661 14.6055Z" fill="#B45309"/>
</svg>
