<svg width="156" height="49" viewBox="0 0 156 49" fill="none" xmlns="http://www.w3.org/2000/svg">
<mask id="path-1-outside-1_38_25" maskUnits="userSpaceOnUse" x="47" y="7" width="104" height="41" fill="black">
<rect fill="white" x="47" y="7" width="104" height="41"/>
<path d="M63.504 39.104V36H59.184V35.968C57.2 35.904 55.568 34.368 55.28 32.448H55.216V16.992L54 12.832H68.144V19.008L63.344 20.576V17.632H60.048V31.2H63.504V29.792H62.544L60.848 24.96H68.304V36.704L63.504 39.104ZM81.533 12.832L83.453 36.032H78.653L77.885 26.848H75.581L74.813 36.032H70.013L70.749 26.848L69.085 22.048H71.165L71.517 17.664L69.853 12.832H76.733H81.533ZM75.965 22.048H77.501L77.117 17.664H76.349L75.965 22.048ZM105.518 36H100.686V18.816L97.7743 21.024V28.8L92.9743 30.944V21.024L90.0303 18.784V36H85.2303V17.472L83.5983 12.832H90.0623L95.3743 17.28L100.686 12.832H105.518V36ZM116.507 36H107.163V31.2H109.435V17.632H107.163V12.832H115.131L116.795 17.632H114.235V31.2H116.507V36ZM123.085 36H118.285V17.632L116.781 12.832H130.317V17.632H123.085V22.016H127.757L129.421 26.816H123.085V36ZM139.177 12.736C141.193 12.736 143.209 12.736 145.225 12.736V26.4L140.841 28.928V35.936H136.041V28.928L131.657 26.4V16.736L130.409 12.736H136.457V23.616L138.441 24.768L140.393 23.616V16.736L139.177 12.736Z"/>
</mask>
<path d="M63.504 39.104V36H59.184V35.968C57.2 35.904 55.568 34.368 55.28 32.448H55.216V16.992L54 12.832H68.144V19.008L63.344 20.576V17.632H60.048V31.2H63.504V29.792H62.544L60.848 24.96H68.304V36.704L63.504 39.104ZM81.533 12.832L83.453 36.032H78.653L77.885 26.848H75.581L74.813 36.032H70.013L70.749 26.848L69.085 22.048H71.165L71.517 17.664L69.853 12.832H76.733H81.533ZM75.965 22.048H77.501L77.117 17.664H76.349L75.965 22.048ZM105.518 36H100.686V18.816L97.7743 21.024V28.8L92.9743 30.944V21.024L90.0303 18.784V36H85.2303V17.472L83.5983 12.832H90.0623L95.3743 17.28L100.686 12.832H105.518V36ZM116.507 36H107.163V31.2H109.435V17.632H107.163V12.832H115.131L116.795 17.632H114.235V31.2H116.507V36ZM123.085 36H118.285V17.632L116.781 12.832H130.317V17.632H123.085V22.016H127.757L129.421 26.816H123.085V36ZM139.177 12.736C141.193 12.736 143.209 12.736 145.225 12.736V26.4L140.841 28.928V35.936H136.041V28.928L131.657 26.4V16.736L130.409 12.736H136.457V23.616L138.441 24.768L140.393 23.616V16.736L139.177 12.736Z" fill="#1E1E1E"/>
<path d="M63.504 39.104H58.504V47.1942L65.7401 43.5761L63.504 39.104ZM63.504 36H68.504V31H63.504V36ZM59.184 36H54.184V41H59.184V36ZM59.184 35.968H64.184V31.1267L59.3452 30.9706L59.184 35.968ZM55.28 32.448L60.2247 31.7063L59.5859 27.448H55.28V32.448ZM55.216 32.448H50.216V37.448H55.216V32.448ZM55.216 16.992H60.216V16.2762L60.0152 15.5892L55.216 16.992ZM54 12.832V7.832H47.3292L49.2008 14.2348L54 12.832ZM68.144 12.832H73.144V7.832H68.144V12.832ZM68.144 19.008L69.6966 23.7608L73.144 22.6347V19.008H68.144ZM63.344 20.576H58.344V27.4693L64.8966 25.3288L63.344 20.576ZM63.344 17.632H68.344V12.632H63.344V17.632ZM60.048 17.632V12.632H55.048V17.632H60.048ZM60.048 31.2H55.048V36.2H60.048V31.2ZM63.504 31.2V36.2H68.504V31.2H63.504ZM63.504 29.792H68.504V24.792H63.504V29.792ZM62.544 29.792L57.8262 31.4479L58.9999 34.792H62.544V29.792ZM60.848 24.96V19.96H53.794L56.1302 26.6159L60.848 24.96ZM68.304 24.96H73.304V19.96H68.304V24.96ZM68.304 36.704L70.5401 41.1761L73.304 39.7942V36.704H68.304ZM68.504 39.104V36H58.504V39.104H68.504ZM63.504 31H59.184V41H63.504V31ZM64.184 36V35.968H54.184V36H64.184ZM59.3452 30.9706C59.6205 30.9795 59.837 31.0926 59.9679 31.212C60.091 31.3245 60.1921 31.4893 60.2247 31.7063L50.3353 33.1897C50.9645 37.3843 54.5139 40.82 59.0228 40.9654L59.3452 30.9706ZM55.28 27.448H55.216V37.448H55.28V27.448ZM60.216 32.448V16.992H50.216V32.448H60.216ZM60.0152 15.5892L58.7992 11.4292L49.2008 14.2348L50.4168 18.3948L60.0152 15.5892ZM54 17.832H68.144V7.832H54V17.832ZM63.144 12.832V19.008H73.144V12.832H63.144ZM66.5914 14.2552L61.7914 15.8232L64.8966 25.3288L69.6966 23.7608L66.5914 14.2552ZM68.344 20.576V17.632H58.344V20.576H68.344ZM63.344 12.632H60.048V22.632H63.344V12.632ZM55.048 17.632V31.2H65.048V17.632H55.048ZM60.048 36.2H63.504V26.2H60.048V36.2ZM68.504 31.2V29.792H58.504V31.2H68.504ZM63.504 24.792H62.544V34.792H63.504V24.792ZM67.2618 28.1361L65.5658 23.3041L56.1302 26.6159L57.8262 31.4479L67.2618 28.1361ZM60.848 29.96H68.304V19.96H60.848V29.96ZM63.304 24.96V36.704H73.304V24.96H63.304ZM66.0679 32.2319L61.2679 34.6319L65.7401 43.5761L70.5401 41.1761L66.0679 32.2319ZM81.533 12.832L86.516 12.4196L86.1363 7.832H81.533V12.832ZM83.453 36.032V41.032H88.8839L88.436 35.6196L83.453 36.032ZM78.653 36.032L73.6704 36.4487L74.0537 41.032H78.653V36.032ZM77.885 26.848L82.8676 26.4313L82.4843 21.848H77.885V26.848ZM75.581 26.848V21.848H70.9817L70.5984 26.4313L75.581 26.848ZM74.813 36.032V41.032H79.4123L79.7956 36.4487L74.813 36.032ZM70.013 36.032L65.029 35.6326L64.5963 41.032H70.013V36.032ZM70.749 26.848L75.733 27.2474L75.8168 26.2016L75.4732 25.2103L70.749 26.848ZM69.085 22.048V17.048H62.0597L64.3608 23.6857L69.085 22.048ZM71.165 22.048V27.048H75.7796L76.149 22.4482L71.165 22.048ZM71.517 17.664L76.501 18.0642L76.5845 17.0233L76.2445 16.036L71.517 17.664ZM69.853 12.832V7.832H62.843L65.1255 14.46L69.853 12.832ZM75.965 22.048L70.9841 21.6117L70.5079 27.048H75.965V22.048ZM77.501 22.048V27.048H82.9581L82.4819 21.6117L77.501 22.048ZM77.117 17.664L82.0979 17.2277L81.6982 12.664H77.117V17.664ZM76.349 17.664V12.664H71.7678L71.3681 17.2277L76.349 17.664ZM76.55 13.2444L78.47 36.4444L88.436 35.6196L86.516 12.4196L76.55 13.2444ZM83.453 31.032H78.653V41.032H83.453V31.032ZM83.6356 35.6153L82.8676 26.4313L72.9024 27.2647L73.6704 36.4487L83.6356 35.6153ZM77.885 21.848H75.581V31.848H77.885V21.848ZM70.5984 26.4313L69.8304 35.6153L79.7956 36.4487L80.5636 27.2647L70.5984 26.4313ZM74.813 31.032H70.013V41.032H74.813V31.032ZM74.997 36.4314L75.733 27.2474L65.765 26.4486L65.029 35.6326L74.997 36.4314ZM75.4732 25.2103L73.8092 20.4103L64.3608 23.6857L66.0248 28.4857L75.4732 25.2103ZM69.085 27.048H71.165V17.048H69.085V27.048ZM76.149 22.4482L76.501 18.0642L66.533 17.2638L66.181 21.6478L76.149 22.4482ZM76.2445 16.036L74.5805 11.204L65.1255 14.46L66.7895 19.292L76.2445 16.036ZM69.853 17.832H76.733V7.832H69.853V17.832ZM76.733 17.832H81.533V7.832H76.733V17.832ZM75.965 27.048H77.501V17.048H75.965V27.048ZM82.4819 21.6117L82.0979 17.2277L72.1361 18.1003L72.5201 22.4843L82.4819 21.6117ZM77.117 12.664H76.349V22.664H77.117V12.664ZM71.3681 17.2277L70.9841 21.6117L80.9459 22.4843L81.3299 18.1003L71.3681 17.2277ZM105.518 36V41H110.518V36H105.518ZM100.686 36H95.6863V41H100.686V36ZM100.686 18.816H105.686V8.74998L97.6653 14.8318L100.686 18.816ZM97.7743 21.024L94.7533 17.0398L92.7743 18.5404V21.024H97.7743ZM97.7743 28.8L99.8134 33.3653L102.774 32.0428V28.8H97.7743ZM92.9743 30.944H87.9743V38.6534L95.0134 35.5093L92.9743 30.944ZM92.9743 21.024H97.9743V18.5456L96.0019 17.0449L92.9743 21.024ZM90.0303 18.784L93.0579 14.8049L85.0303 8.69689V18.784H90.0303ZM90.0303 36V41H95.0303V36H90.0303ZM85.2303 36H80.2303V41H85.2303V36ZM85.2303 17.472H90.2303V16.6183L89.947 15.813L85.2303 17.472ZM83.5983 12.832V7.832H76.5394L78.8815 14.491L83.5983 12.832ZM90.0623 12.832L93.2722 8.99847L91.8792 7.832H90.0623V12.832ZM95.3743 17.28L92.1643 21.1135L95.3743 23.8014L98.5842 21.1135L95.3743 17.28ZM100.686 12.832V7.832H98.8693L97.4763 8.99847L100.686 12.832ZM105.518 12.832H110.518V7.832H105.518V12.832ZM105.518 31H100.686V41H105.518V31ZM105.686 36V18.816H95.6863V36H105.686ZM97.6653 14.8318L94.7533 17.0398L100.795 25.0082L103.707 22.8002L97.6653 14.8318ZM92.7743 21.024V28.8H102.774V21.024H92.7743ZM95.7351 24.2347L90.9351 26.3787L95.0134 35.5093L99.8134 33.3653L95.7351 24.2347ZM97.9743 30.944V21.024H87.9743V30.944H97.9743ZM96.0019 17.0449L93.0579 14.8049L87.0026 22.7631L89.9466 25.0031L96.0019 17.0449ZM85.0303 18.784V36H95.0303V18.784H85.0303ZM90.0303 31H85.2303V41H90.0303V31ZM90.2303 36V17.472H80.2303V36H90.2303ZM89.947 15.813L88.315 11.173L78.8815 14.491L80.5135 19.131L89.947 15.813ZM83.5983 17.832H90.0623V7.832H83.5983V17.832ZM86.8523 16.6655L92.1643 21.1135L98.5842 13.4465L93.2722 8.99847L86.8523 16.6655ZM98.5842 21.1135L103.896 16.6655L97.4763 8.99847L92.1643 13.4465L98.5842 21.1135ZM100.686 17.832H105.518V7.832H100.686V17.832ZM100.518 12.832V36H110.518V12.832H100.518ZM116.507 36V41H121.507V36H116.507ZM107.163 36H102.163V41H107.163V36ZM107.163 31.2V26.2H102.163V31.2H107.163ZM109.435 31.2V36.2H114.435V31.2H109.435ZM109.435 17.632H114.435V12.632H109.435V17.632ZM107.163 17.632H102.163V22.632H107.163V17.632ZM107.163 12.832V7.832H102.163V12.832H107.163ZM115.131 12.832L119.855 11.1943L118.689 7.832H115.131V12.832ZM116.795 17.632V22.632H123.82L121.519 15.9943L116.795 17.632ZM114.235 17.632V12.632H109.235V17.632H114.235ZM114.235 31.2H109.235V36.2H114.235V31.2ZM116.507 31.2H121.507V26.2H116.507V31.2ZM116.507 31H107.163V41H116.507V31ZM112.163 36V31.2H102.163V36H112.163ZM107.163 36.2H109.435V26.2H107.163V36.2ZM114.435 31.2V17.632H104.435V31.2H114.435ZM109.435 12.632H107.163V22.632H109.435V12.632ZM112.163 17.632V12.832H102.163V17.632H112.163ZM107.163 17.832H115.131V7.832H107.163V17.832ZM110.406 14.4697L112.07 19.2697L121.519 15.9943L119.855 11.1943L110.406 14.4697ZM116.795 12.632H114.235V22.632H116.795V12.632ZM109.235 17.632V31.2H119.235V17.632H109.235ZM114.235 36.2H116.507V26.2H114.235V36.2ZM111.507 31.2V36H121.507V31.2H111.507ZM123.085 36V41H128.085V36H123.085ZM118.285 36H113.285V41H118.285V36ZM118.285 17.632H123.285V16.867L123.057 16.137L118.285 17.632ZM116.781 12.832V7.832H109.975L112.01 14.327L116.781 12.832ZM130.317 12.832H135.317V7.832H130.317V12.832ZM130.317 17.632V22.632H135.317V17.632H130.317ZM123.085 17.632V12.632H118.085V17.632H123.085ZM123.085 22.016H118.085V27.016H123.085V22.016ZM127.757 22.016L132.481 20.3783L131.316 17.016H127.757V22.016ZM129.421 26.816V31.816H136.447L134.145 25.1783L129.421 26.816ZM123.085 26.816V21.816H118.085V26.816H123.085ZM123.085 31H118.285V41H123.085V31ZM123.285 36V17.632H113.285V36H123.285ZM123.057 16.137L121.553 11.337L112.01 14.327L113.514 19.127L123.057 16.137ZM116.781 17.832H130.317V7.832H116.781V17.832ZM125.317 12.832V17.632H135.317V12.832H125.317ZM130.317 12.632H123.085V22.632H130.317V12.632ZM118.085 17.632V22.016H128.085V17.632H118.085ZM123.085 27.016H127.757V17.016H123.085V27.016ZM123.033 23.6537L124.697 28.4537L134.145 25.1783L132.481 20.3783L123.033 23.6537ZM129.421 21.816H123.085V31.816H129.421V21.816ZM118.085 26.816V36H128.085V26.816H118.085ZM139.177 12.736V7.736H132.431L134.393 14.1903L139.177 12.736ZM145.225 12.736H150.225V7.736H145.225V12.736ZM145.225 26.4L147.722 30.7315L150.225 29.2885V26.4H145.225ZM140.841 28.928L138.343 24.5965L135.841 26.0395V28.928H140.841ZM140.841 35.936V40.936H145.841V35.936H140.841ZM136.041 35.936H131.041V40.936H136.041V35.936ZM136.041 28.928H141.041V26.0395L138.538 24.5965L136.041 28.928ZM131.657 26.4H126.657V29.2885L129.159 30.7315L131.657 26.4ZM131.657 16.736H136.657V15.9741L136.43 15.2468L131.657 16.736ZM130.409 12.736V7.736H123.611L125.635 14.2252L130.409 12.736ZM136.457 12.736H141.457V7.736H136.457V12.736ZM136.457 23.616H131.457V26.4945L133.946 27.9399L136.457 23.616ZM138.441 24.768L135.93 29.0919L138.461 30.5617L140.982 29.074L138.441 24.768ZM140.393 23.616L142.934 27.922L145.393 26.471V23.616H140.393ZM140.393 16.736H145.393V15.9928L145.176 15.2817L140.393 16.736ZM139.177 17.736C139.18 17.736 139.184 17.736 139.188 17.736C139.192 17.736 139.196 17.736 139.2 17.736C139.204 17.736 139.208 17.736 139.212 17.736C139.216 17.736 139.22 17.736 139.224 17.736C139.228 17.736 139.232 17.736 139.236 17.736C139.24 17.736 139.243 17.736 139.247 17.736C139.251 17.736 139.255 17.736 139.259 17.736C139.263 17.736 139.267 17.736 139.271 17.736C139.275 17.736 139.279 17.736 139.283 17.736C139.287 17.736 139.291 17.736 139.295 17.736C139.299 17.736 139.303 17.736 139.306 17.736C139.31 17.736 139.314 17.736 139.318 17.736C139.322 17.736 139.326 17.736 139.33 17.736C139.334 17.736 139.338 17.736 139.342 17.736C139.346 17.736 139.35 17.736 139.354 17.736C139.358 17.736 139.362 17.736 139.366 17.736C139.369 17.736 139.373 17.736 139.377 17.736C139.381 17.736 139.385 17.736 139.389 17.736C139.393 17.736 139.397 17.736 139.401 17.736C139.405 17.736 139.409 17.736 139.413 17.736C139.417 17.736 139.421 17.736 139.425 17.736C139.429 17.736 139.432 17.736 139.436 17.736C139.44 17.736 139.444 17.736 139.448 17.736C139.452 17.736 139.456 17.736 139.46 17.736C139.464 17.736 139.468 17.736 139.472 17.736C139.476 17.736 139.48 17.736 139.484 17.736C139.488 17.736 139.492 17.736 139.495 17.736C139.499 17.736 139.503 17.736 139.507 17.736C139.511 17.736 139.515 17.736 139.519 17.736C139.523 17.736 139.527 17.736 139.531 17.736C139.535 17.736 139.539 17.736 139.543 17.736C139.547 17.736 139.551 17.736 139.555 17.736C139.558 17.736 139.562 17.736 139.566 17.736C139.57 17.736 139.574 17.736 139.578 17.736C139.582 17.736 139.586 17.736 139.59 17.736C139.594 17.736 139.598 17.736 139.602 17.736C139.606 17.736 139.61 17.736 139.614 17.736C139.618 17.736 139.621 17.736 139.625 17.736C139.629 17.736 139.633 17.736 139.637 17.736C139.641 17.736 139.645 17.736 139.649 17.736C139.653 17.736 139.657 17.736 139.661 17.736C139.665 17.736 139.669 17.736 139.673 17.736C139.677 17.736 139.681 17.736 139.684 17.736C139.688 17.736 139.692 17.736 139.696 17.736C139.7 17.736 139.704 17.736 139.708 17.736C139.712 17.736 139.716 17.736 139.72 17.736C139.724 17.736 139.728 17.736 139.732 17.736C139.736 17.736 139.74 17.736 139.744 17.736C139.747 17.736 139.751 17.736 139.755 17.736C139.759 17.736 139.763 17.736 139.767 17.736C139.771 17.736 139.775 17.736 139.779 17.736C139.783 17.736 139.787 17.736 139.791 17.736C139.795 17.736 139.799 17.736 139.803 17.736C139.807 17.736 139.81 17.736 139.814 17.736C139.818 17.736 139.822 17.736 139.826 17.736C139.83 17.736 139.834 17.736 139.838 17.736C139.842 17.736 139.846 17.736 139.85 17.736C139.854 17.736 139.858 17.736 139.862 17.736C139.866 17.736 139.87 17.736 139.873 17.736C139.877 17.736 139.881 17.736 139.885 17.736C139.889 17.736 139.893 17.736 139.897 17.736C139.901 17.736 139.905 17.736 139.909 17.736C139.913 17.736 139.917 17.736 139.921 17.736C139.925 17.736 139.929 17.736 139.933 17.736C139.936 17.736 139.94 17.736 139.944 17.736C139.948 17.736 139.952 17.736 139.956 17.736C139.96 17.736 139.964 17.736 139.968 17.736C139.972 17.736 139.976 17.736 139.98 17.736C139.984 17.736 139.988 17.736 139.992 17.736C139.996 17.736 139.999 17.736 140.003 17.736C140.007 17.736 140.011 17.736 140.015 17.736C140.019 17.736 140.023 17.736 140.027 17.736C140.031 17.736 140.035 17.736 140.039 17.736C140.043 17.736 140.047 17.736 140.051 17.736C140.055 17.736 140.059 17.736 140.062 17.736C140.066 17.736 140.07 17.736 140.074 17.736C140.078 17.736 140.082 17.736 140.086 17.736C140.09 17.736 140.094 17.736 140.098 17.736C140.102 17.736 140.106 17.736 140.11 17.736C140.114 17.736 140.118 17.736 140.122 17.736C140.125 17.736 140.129 17.736 140.133 17.736C140.137 17.736 140.141 17.736 140.145 17.736C140.149 17.736 140.153 17.736 140.157 17.736C140.161 17.736 140.165 17.736 140.169 17.736C140.173 17.736 140.177 17.736 140.181 17.736C140.185 17.736 140.188 17.736 140.192 17.736C140.196 17.736 140.2 17.736 140.204 17.736C140.208 17.736 140.212 17.736 140.216 17.736C140.22 17.736 140.224 17.736 140.228 17.736C140.232 17.736 140.236 17.736 140.24 17.736C140.244 17.736 140.248 17.736 140.251 17.736C140.255 17.736 140.259 17.736 140.263 17.736C140.267 17.736 140.271 17.736 140.275 17.736C140.279 17.736 140.283 17.736 140.287 17.736C140.291 17.736 140.295 17.736 140.299 17.736C140.303 17.736 140.307 17.736 140.311 17.736C140.314 17.736 140.318 17.736 140.322 17.736C140.326 17.736 140.33 17.736 140.334 17.736C140.338 17.736 140.342 17.736 140.346 17.736C140.35 17.736 140.354 17.736 140.358 17.736C140.362 17.736 140.366 17.736 140.37 17.736C140.374 17.736 140.377 17.736 140.381 17.736C140.385 17.736 140.389 17.736 140.393 17.736C140.397 17.736 140.401 17.736 140.405 17.736C140.409 17.736 140.413 17.736 140.417 17.736C140.421 17.736 140.425 17.736 140.429 17.736C140.433 17.736 140.437 17.736 140.44 17.736C140.444 17.736 140.448 17.736 140.452 17.736C140.456 17.736 140.46 17.736 140.464 17.736C140.468 17.736 140.472 17.736 140.476 17.736C140.48 17.736 140.484 17.736 140.488 17.736C140.492 17.736 140.496 17.736 140.5 17.736C140.503 17.736 140.507 17.736 140.511 17.736C140.515 17.736 140.519 17.736 140.523 17.736C140.527 17.736 140.531 17.736 140.535 17.736C140.539 17.736 140.543 17.736 140.547 17.736C140.551 17.736 140.555 17.736 140.559 17.736C140.563 17.736 140.566 17.736 140.57 17.736C140.574 17.736 140.578 17.736 140.582 17.736C140.586 17.736 140.59 17.736 140.594 17.736C140.598 17.736 140.602 17.736 140.606 17.736C140.61 17.736 140.614 17.736 140.618 17.736C140.622 17.736 140.626 17.736 140.629 17.736C140.633 17.736 140.637 17.736 140.641 17.736C140.645 17.736 140.649 17.736 140.653 17.736C140.657 17.736 140.661 17.736 140.665 17.736C140.669 17.736 140.673 17.736 140.677 17.736C140.681 17.736 140.685 17.736 140.689 17.736C140.692 17.736 140.696 17.736 140.7 17.736C140.704 17.736 140.708 17.736 140.712 17.736C140.716 17.736 140.72 17.736 140.724 17.736C140.728 17.736 140.732 17.736 140.736 17.736C140.74 17.736 140.744 17.736 140.748 17.736C140.752 17.736 140.755 17.736 140.759 17.736C140.763 17.736 140.767 17.736 140.771 17.736C140.775 17.736 140.779 17.736 140.783 17.736C140.787 17.736 140.791 17.736 140.795 17.736C140.799 17.736 140.803 17.736 140.807 17.736C140.811 17.736 140.815 17.736 140.818 17.736C140.822 17.736 140.826 17.736 140.83 17.736C140.834 17.736 140.838 17.736 140.842 17.736C140.846 17.736 140.85 17.736 140.854 17.736C140.858 17.736 140.862 17.736 140.866 17.736C140.87 17.736 140.874 17.736 140.878 17.736C140.881 17.736 140.885 17.736 140.889 17.736C140.893 17.736 140.897 17.736 140.901 17.736C140.905 17.736 140.909 17.736 140.913 17.736C140.917 17.736 140.921 17.736 140.925 17.736C140.929 17.736 140.933 17.736 140.937 17.736C140.941 17.736 140.944 17.736 140.948 17.736C140.952 17.736 140.956 17.736 140.96 17.736C140.964 17.736 140.968 17.736 140.972 17.736C140.976 17.736 140.98 17.736 140.984 17.736C140.988 17.736 140.992 17.736 140.996 17.736C141 17.736 141.004 17.736 141.007 17.736C141.011 17.736 141.015 17.736 141.019 17.736C141.023 17.736 141.027 17.736 141.031 17.736C141.035 17.736 141.039 17.736 141.043 17.736C141.047 17.736 141.051 17.736 141.055 17.736C141.059 17.736 141.063 17.736 141.067 17.736C141.07 17.736 141.074 17.736 141.078 17.736C141.082 17.736 141.086 17.736 141.09 17.736C141.094 17.736 141.098 17.736 141.102 17.736C141.106 17.736 141.11 17.736 141.114 17.736C141.118 17.736 141.122 17.736 141.126 17.736C141.13 17.736 141.133 17.736 141.137 17.736C141.141 17.736 141.145 17.736 141.149 17.736C141.153 17.736 141.157 17.736 141.161 17.736C141.165 17.736 141.169 17.736 141.173 17.736C141.177 17.736 141.181 17.736 141.185 17.736C141.189 17.736 141.193 17.736 141.196 17.736C141.2 17.736 141.204 17.736 141.208 17.736C141.212 17.736 141.216 17.736 141.22 17.736C141.224 17.736 141.228 17.736 141.232 17.736C141.236 17.736 141.24 17.736 141.244 17.736C141.248 17.736 141.252 17.736 141.256 17.736C141.259 17.736 141.263 17.736 141.267 17.736C141.271 17.736 141.275 17.736 141.279 17.736C141.283 17.736 141.287 17.736 141.291 17.736C141.295 17.736 141.299 17.736 141.303 17.736C141.307 17.736 141.311 17.736 141.315 17.736C141.319 17.736 141.322 17.736 141.326 17.736C141.33 17.736 141.334 17.736 141.338 17.736C141.342 17.736 141.346 17.736 141.35 17.736C141.354 17.736 141.358 17.736 141.362 17.736C141.366 17.736 141.37 17.736 141.374 17.736C141.378 17.736 141.382 17.736 141.385 17.736C141.389 17.736 141.393 17.736 141.397 17.736C141.401 17.736 141.405 17.736 141.409 17.736C141.413 17.736 141.417 17.736 141.421 17.736C141.425 17.736 141.429 17.736 141.433 17.736C141.437 17.736 141.441 17.736 141.445 17.736C141.448 17.736 141.452 17.736 141.456 17.736C141.46 17.736 141.464 17.736 141.468 17.736C141.472 17.736 141.476 17.736 141.48 17.736C141.484 17.736 141.488 17.736 141.492 17.736C141.496 17.736 141.5 17.736 141.504 17.736C141.508 17.736 141.511 17.736 141.515 17.736C141.519 17.736 141.523 17.736 141.527 17.736C141.531 17.736 141.535 17.736 141.539 17.736C141.543 17.736 141.547 17.736 141.551 17.736C141.555 17.736 141.559 17.736 141.563 17.736C141.567 17.736 141.571 17.736 141.574 17.736C141.578 17.736 141.582 17.736 141.586 17.736C141.59 17.736 141.594 17.736 141.598 17.736C141.602 17.736 141.606 17.736 141.61 17.736C141.614 17.736 141.618 17.736 141.622 17.736C141.626 17.736 141.63 17.736 141.634 17.736C141.637 17.736 141.641 17.736 141.645 17.736C141.649 17.736 141.653 17.736 141.657 17.736C141.661 17.736 141.665 17.736 141.669 17.736C141.673 17.736 141.677 17.736 141.681 17.736C141.685 17.736 141.689 17.736 141.693 17.736C141.697 17.736 141.7 17.736 141.704 17.736C141.708 17.736 141.712 17.736 141.716 17.736C141.72 17.736 141.724 17.736 141.728 17.736C141.732 17.736 141.736 17.736 141.74 17.736C141.744 17.736 141.748 17.736 141.752 17.736C141.756 17.736 141.76 17.736 141.763 17.736C141.767 17.736 141.771 17.736 141.775 17.736C141.779 17.736 141.783 17.736 141.787 17.736C141.791 17.736 141.795 17.736 141.799 17.736C141.803 17.736 141.807 17.736 141.811 17.736C141.815 17.736 141.819 17.736 141.823 17.736C141.826 17.736 141.83 17.736 141.834 17.736C141.838 17.736 141.842 17.736 141.846 17.736C141.85 17.736 141.854 17.736 141.858 17.736C141.862 17.736 141.866 17.736 141.87 17.736C141.874 17.736 141.878 17.736 141.882 17.736C141.886 17.736 141.889 17.736 141.893 17.736C141.897 17.736 141.901 17.736 141.905 17.736C141.909 17.736 141.913 17.736 141.917 17.736C141.921 17.736 141.925 17.736 141.929 17.736C141.933 17.736 141.937 17.736 141.941 17.736C141.945 17.736 141.949 17.736 141.952 17.736C141.956 17.736 141.96 17.736 141.964 17.736C141.968 17.736 141.972 17.736 141.976 17.736C141.98 17.736 141.984 17.736 141.988 17.736C141.992 17.736 141.996 17.736 142 17.736C142.004 17.736 142.008 17.736 142.012 17.736C142.015 17.736 142.019 17.736 142.023 17.736C142.027 17.736 142.031 17.736 142.035 17.736C142.039 17.736 142.043 17.736 142.047 17.736C142.051 17.736 142.055 17.736 142.059 17.736C142.063 17.736 142.067 17.736 142.071 17.736C142.075 17.736 142.078 17.736 142.082 17.736C142.086 17.736 142.09 17.736 142.094 17.736C142.098 17.736 142.102 17.736 142.106 17.736C142.11 17.736 142.114 17.736 142.118 17.736C142.122 17.736 142.126 17.736 142.13 17.736C142.134 17.736 142.138 17.736 142.141 17.736C142.145 17.736 142.149 17.736 142.153 17.736C142.157 17.736 142.161 17.736 142.165 17.736C142.169 17.736 142.173 17.736 142.177 17.736C142.181 17.736 142.185 17.736 142.189 17.736C142.193 17.736 142.197 17.736 142.201 17.736C142.204 17.736 142.208 17.736 142.212 17.736C142.216 17.736 142.22 17.736 142.224 17.736C142.228 17.736 142.232 17.736 142.236 17.736C142.24 17.736 142.244 17.736 142.248 17.736C142.252 17.736 142.256 17.736 142.26 17.736C142.264 17.736 142.267 17.736 142.271 17.736C142.275 17.736 142.279 17.736 142.283 17.736C142.287 17.736 142.291 17.736 142.295 17.736C142.299 17.736 142.303 17.736 142.307 17.736C142.311 17.736 142.315 17.736 142.319 17.736C142.323 17.736 142.327 17.736 142.33 17.736C142.334 17.736 142.338 17.736 142.342 17.736C142.346 17.736 142.35 17.736 142.354 17.736C142.358 17.736 142.362 17.736 142.366 17.736C142.37 17.736 142.374 17.736 142.378 17.736C142.382 17.736 142.386 17.736 142.39 17.736C142.393 17.736 142.397 17.736 142.401 17.736C142.405 17.736 142.409 17.736 142.413 17.736C142.417 17.736 142.421 17.736 142.425 17.736C142.429 17.736 142.433 17.736 142.437 17.736C142.441 17.736 142.445 17.736 142.449 17.736C142.453 17.736 142.456 17.736 142.46 17.736C142.464 17.736 142.468 17.736 142.472 17.736C142.476 17.736 142.48 17.736 142.484 17.736C142.488 17.736 142.492 17.736 142.496 17.736C142.5 17.736 142.504 17.736 142.508 17.736C142.512 17.736 142.516 17.736 142.519 17.736C142.523 17.736 142.527 17.736 142.531 17.736C142.535 17.736 142.539 17.736 142.543 17.736C142.547 17.736 142.551 17.736 142.555 17.736C142.559 17.736 142.563 17.736 142.567 17.736C142.571 17.736 142.575 17.736 142.579 17.736C142.582 17.736 142.586 17.736 142.59 17.736C142.594 17.736 142.598 17.736 142.602 17.736C142.606 17.736 142.61 17.736 142.614 17.736C142.618 17.736 142.622 17.736 142.626 17.736C142.63 17.736 142.634 17.736 142.638 17.736C142.642 17.736 142.645 17.736 142.649 17.736C142.653 17.736 142.657 17.736 142.661 17.736C142.665 17.736 142.669 17.736 142.673 17.736C142.677 17.736 142.681 17.736 142.685 17.736C142.689 17.736 142.693 17.736 142.697 17.736C142.701 17.736 142.705 17.736 142.708 17.736C142.712 17.736 142.716 17.736 142.72 17.736C142.724 17.736 142.728 17.736 142.732 17.736C142.736 17.736 142.74 17.736 142.744 17.736C142.748 17.736 142.752 17.736 142.756 17.736C142.76 17.736 142.764 17.736 142.768 17.736C142.771 17.736 142.775 17.736 142.779 17.736C142.783 17.736 142.787 17.736 142.791 17.736C142.795 17.736 142.799 17.736 142.803 17.736C142.807 17.736 142.811 17.736 142.815 17.736C142.819 17.736 142.823 17.736 142.827 17.736C142.831 17.736 142.834 17.736 142.838 17.736C142.842 17.736 142.846 17.736 142.85 17.736C142.854 17.736 142.858 17.736 142.862 17.736C142.866 17.736 142.87 17.736 142.874 17.736C142.878 17.736 142.882 17.736 142.886 17.736C142.89 17.736 142.894 17.736 142.897 17.736C142.901 17.736 142.905 17.736 142.909 17.736C142.913 17.736 142.917 17.736 142.921 17.736C142.925 17.736 142.929 17.736 142.933 17.736C142.937 17.736 142.941 17.736 142.945 17.736C142.949 17.736 142.953 17.736 142.957 17.736C142.96 17.736 142.964 17.736 142.968 17.736C142.972 17.736 142.976 17.736 142.98 17.736C142.984 17.736 142.988 17.736 142.992 17.736C142.996 17.736 143 17.736 143.004 17.736C143.008 17.736 143.012 17.736 143.016 17.736C143.02 17.736 143.023 17.736 143.027 17.736C143.031 17.736 143.035 17.736 143.039 17.736C143.043 17.736 143.047 17.736 143.051 17.736C143.055 17.736 143.059 17.736 143.063 17.736C143.067 17.736 143.071 17.736 143.075 17.736C143.079 17.736 143.083 17.736 143.086 17.736C143.09 17.736 143.094 17.736 143.098 17.736C143.102 17.736 143.106 17.736 143.11 17.736C143.114 17.736 143.118 17.736 143.122 17.736C143.126 17.736 143.13 17.736 143.134 17.736C143.138 17.736 143.142 17.736 143.146 17.736C143.149 17.736 143.153 17.736 143.157 17.736C143.161 17.736 143.165 17.736 143.169 17.736C143.173 17.736 143.177 17.736 143.181 17.736C143.185 17.736 143.189 17.736 143.193 17.736C143.197 17.736 143.201 17.736 143.205 17.736C143.209 17.736 143.212 17.736 143.216 17.736C143.22 17.736 143.224 17.736 143.228 17.736C143.232 17.736 143.236 17.736 143.24 17.736C143.244 17.736 143.248 17.736 143.252 17.736C143.256 17.736 143.26 17.736 143.264 17.736C143.268 17.736 143.272 17.736 143.275 17.736C143.279 17.736 143.283 17.736 143.287 17.736C143.291 17.736 143.295 17.736 143.299 17.736C143.303 17.736 143.307 17.736 143.311 17.736C143.315 17.736 143.319 17.736 143.323 17.736C143.327 17.736 143.331 17.736 143.335 17.736C143.338 17.736 143.342 17.736 143.346 17.736C143.35 17.736 143.354 17.736 143.358 17.736C143.362 17.736 143.366 17.736 143.37 17.736C143.374 17.736 143.378 17.736 143.382 17.736C143.386 17.736 143.39 17.736 143.394 17.736C143.398 17.736 143.401 17.736 143.405 17.736C143.409 17.736 143.413 17.736 143.417 17.736C143.421 17.736 143.425 17.736 143.429 17.736C143.433 17.736 143.437 17.736 143.441 17.736C143.445 17.736 143.449 17.736 143.453 17.736C143.457 17.736 143.461 17.736 143.464 17.736C143.468 17.736 143.472 17.736 143.476 17.736C143.48 17.736 143.484 17.736 143.488 17.736C143.492 17.736 143.496 17.736 143.5 17.736C143.504 17.736 143.508 17.736 143.512 17.736C143.516 17.736 143.52 17.736 143.524 17.736C143.527 17.736 143.531 17.736 143.535 17.736C143.539 17.736 143.543 17.736 143.547 17.736C143.551 17.736 143.555 17.736 143.559 17.736C143.563 17.736 143.567 17.736 143.571 17.736C143.575 17.736 143.579 17.736 143.583 17.736C143.587 17.736 143.59 17.736 143.594 17.736C143.598 17.736 143.602 17.736 143.606 17.736C143.61 17.736 143.614 17.736 143.618 17.736C143.622 17.736 143.626 17.736 143.63 17.736C143.634 17.736 143.638 17.736 143.642 17.736C143.646 17.736 143.65 17.736 143.653 17.736C143.657 17.736 143.661 17.736 143.665 17.736C143.669 17.736 143.673 17.736 143.677 17.736C143.681 17.736 143.685 17.736 143.689 17.736C143.693 17.736 143.697 17.736 143.701 17.736C143.705 17.736 143.709 17.736 143.713 17.736C143.716 17.736 143.72 17.736 143.724 17.736C143.728 17.736 143.732 17.736 143.736 17.736C143.74 17.736 143.744 17.736 143.748 17.736C143.752 17.736 143.756 17.736 143.76 17.736C143.764 17.736 143.768 17.736 143.772 17.736C143.776 17.736 143.779 17.736 143.783 17.736C143.787 17.736 143.791 17.736 143.795 17.736C143.799 17.736 143.803 17.736 143.807 17.736C143.811 17.736 143.815 17.736 143.819 17.736C143.823 17.736 143.827 17.736 143.831 17.736C143.835 17.736 143.839 17.736 143.842 17.736C143.846 17.736 143.85 17.736 143.854 17.736C143.858 17.736 143.862 17.736 143.866 17.736C143.87 17.736 143.874 17.736 143.878 17.736C143.882 17.736 143.886 17.736 143.89 17.736C143.894 17.736 143.898 17.736 143.902 17.736C143.905 17.736 143.909 17.736 143.913 17.736C143.917 17.736 143.921 17.736 143.925 17.736C143.929 17.736 143.933 17.736 143.937 17.736C143.941 17.736 143.945 17.736 143.949 17.736C143.953 17.736 143.957 17.736 143.961 17.736C143.965 17.736 143.968 17.736 143.972 17.736C143.976 17.736 143.98 17.736 143.984 17.736C143.988 17.736 143.992 17.736 143.996 17.736C144 17.736 144.004 17.736 144.008 17.736C144.012 17.736 144.016 17.736 144.02 17.736C144.024 17.736 144.028 17.736 144.031 17.736C144.035 17.736 144.039 17.736 144.043 17.736C144.047 17.736 144.051 17.736 144.055 17.736C144.059 17.736 144.063 17.736 144.067 17.736C144.071 17.736 144.075 17.736 144.079 17.736C144.083 17.736 144.087 17.736 144.091 17.736C144.094 17.736 144.098 17.736 144.102 17.736C144.106 17.736 144.11 17.736 144.114 17.736C144.118 17.736 144.122 17.736 144.126 17.736C144.13 17.736 144.134 17.736 144.138 17.736C144.142 17.736 144.146 17.736 144.15 17.736C144.154 17.736 144.157 17.736 144.161 17.736C144.165 17.736 144.169 17.736 144.173 17.736C144.177 17.736 144.181 17.736 144.185 17.736C144.189 17.736 144.193 17.736 144.197 17.736C144.201 17.736 144.205 17.736 144.209 17.736C144.213 17.736 144.217 17.736 144.22 17.736C144.224 17.736 144.228 17.736 144.232 17.736C144.236 17.736 144.24 17.736 144.244 17.736C144.248 17.736 144.252 17.736 144.256 17.736C144.26 17.736 144.264 17.736 144.268 17.736C144.272 17.736 144.276 17.736 144.28 17.736C144.283 17.736 144.287 17.736 144.291 17.736C144.295 17.736 144.299 17.736 144.303 17.736C144.307 17.736 144.311 17.736 144.315 17.736C144.319 17.736 144.323 17.736 144.327 17.736C144.331 17.736 144.335 17.736 144.339 17.736C144.343 17.736 144.346 17.736 144.35 17.736C144.354 17.736 144.358 17.736 144.362 17.736C144.366 17.736 144.37 17.736 144.374 17.736C144.378 17.736 144.382 17.736 144.386 17.736C144.39 17.736 144.394 17.736 144.398 17.736C144.402 17.736 144.406 17.736 144.409 17.736C144.413 17.736 144.417 17.736 144.421 17.736C144.425 17.736 144.429 17.736 144.433 17.736C144.437 17.736 144.441 17.736 144.445 17.736C144.449 17.736 144.453 17.736 144.457 17.736C144.461 17.736 144.465 17.736 144.469 17.736C144.472 17.736 144.476 17.736 144.48 17.736C144.484 17.736 144.488 17.736 144.492 17.736C144.496 17.736 144.5 17.736 144.504 17.736C144.508 17.736 144.512 17.736 144.516 17.736C144.52 17.736 144.524 17.736 144.528 17.736C144.532 17.736 144.535 17.736 144.539 17.736C144.543 17.736 144.547 17.736 144.551 17.736C144.555 17.736 144.559 17.736 144.563 17.736C144.567 17.736 144.571 17.736 144.575 17.736C144.579 17.736 144.583 17.736 144.587 17.736C144.591 17.736 144.595 17.736 144.598 17.736C144.602 17.736 144.606 17.736 144.61 17.736C144.614 17.736 144.618 17.736 144.622 17.736C144.626 17.736 144.63 17.736 144.634 17.736C144.638 17.736 144.642 17.736 144.646 17.736C144.65 17.736 144.654 17.736 144.658 17.736C144.661 17.736 144.665 17.736 144.669 17.736C144.673 17.736 144.677 17.736 144.681 17.736C144.685 17.736 144.689 17.736 144.693 17.736C144.697 17.736 144.701 17.736 144.705 17.736C144.709 17.736 144.713 17.736 144.717 17.736C144.721 17.736 144.724 17.736 144.728 17.736C144.732 17.736 144.736 17.736 144.74 17.736C144.744 17.736 144.748 17.736 144.752 17.736C144.756 17.736 144.76 17.736 144.764 17.736C144.768 17.736 144.772 17.736 144.776 17.736C144.78 17.736 144.784 17.736 144.787 17.736C144.791 17.736 144.795 17.736 144.799 17.736C144.803 17.736 144.807 17.736 144.811 17.736C144.815 17.736 144.819 17.736 144.823 17.736C144.827 17.736 144.831 17.736 144.835 17.736C144.839 17.736 144.843 17.736 144.847 17.736C144.85 17.736 144.854 17.736 144.858 17.736C144.862 17.736 144.866 17.736 144.87 17.736C144.874 17.736 144.878 17.736 144.882 17.736C144.886 17.736 144.89 17.736 144.894 17.736C144.898 17.736 144.902 17.736 144.906 17.736C144.91 17.736 144.913 17.736 144.917 17.736C144.921 17.736 144.925 17.736 144.929 17.736C144.933 17.736 144.937 17.736 144.941 17.736C144.945 17.736 144.949 17.736 144.953 17.736C144.957 17.736 144.961 17.736 144.965 17.736C144.969 17.736 144.973 17.736 144.976 17.736C144.98 17.736 144.984 17.736 144.988 17.736C144.992 17.736 144.996 17.736 145 17.736C145.004 17.736 145.008 17.736 145.012 17.736C145.016 17.736 145.02 17.736 145.024 17.736C145.028 17.736 145.032 17.736 145.036 17.736C145.039 17.736 145.043 17.736 145.047 17.736C145.051 17.736 145.055 17.736 145.059 17.736C145.063 17.736 145.067 17.736 145.071 17.736C145.075 17.736 145.079 17.736 145.083 17.736C145.087 17.736 145.091 17.736 145.095 17.736C145.099 17.736 145.102 17.736 145.106 17.736C145.11 17.736 145.114 17.736 145.118 17.736C145.122 17.736 145.126 17.736 145.13 17.736C145.134 17.736 145.138 17.736 145.142 17.736C145.146 17.736 145.15 17.736 145.154 17.736C145.158 17.736 145.162 17.736 145.165 17.736C145.169 17.736 145.173 17.736 145.177 17.736C145.181 17.736 145.185 17.736 145.189 17.736C145.193 17.736 145.197 17.736 145.201 17.736C145.205 17.736 145.209 17.736 145.213 17.736C145.217 17.736 145.221 17.736 145.225 17.736V7.736C145.221 7.736 145.217 7.736 145.213 7.736C145.209 7.736 145.205 7.736 145.201 7.736C145.197 7.736 145.193 7.736 145.189 7.736C145.185 7.736 145.181 7.736 145.177 7.736C145.173 7.736 145.169 7.736 145.165 7.736C145.162 7.736 145.158 7.736 145.154 7.736C145.15 7.736 145.146 7.736 145.142 7.736C145.138 7.736 145.134 7.736 145.13 7.736C145.126 7.736 145.122 7.736 145.118 7.736C145.114 7.736 145.11 7.736 145.106 7.736C145.102 7.736 145.099 7.736 145.095 7.736C145.091 7.736 145.087 7.736 145.083 7.736C145.079 7.736 145.075 7.736 145.071 7.736C145.067 7.736 145.063 7.736 145.059 7.736C145.055 7.736 145.051 7.736 145.047 7.736C145.043 7.736 145.039 7.736 145.036 7.736C145.032 7.736 145.028 7.736 145.024 7.736C145.02 7.736 145.016 7.736 145.012 7.736C145.008 7.736 145.004 7.736 145 7.736C144.996 7.736 144.992 7.736 144.988 7.736C144.984 7.736 144.98 7.736 144.976 7.736C144.973 7.736 144.969 7.736 144.965 7.736C144.961 7.736 144.957 7.736 144.953 7.736C144.949 7.736 144.945 7.736 144.941 7.736C144.937 7.736 144.933 7.736 144.929 7.736C144.925 7.736 144.921 7.736 144.917 7.736C144.913 7.736 144.91 7.736 144.906 7.736C144.902 7.736 144.898 7.736 144.894 7.736C144.89 7.736 144.886 7.736 144.882 7.736C144.878 7.736 144.874 7.736 144.87 7.736C144.866 7.736 144.862 7.736 144.858 7.736C144.854 7.736 144.85 7.736 144.847 7.736C144.843 7.736 144.839 7.736 144.835 7.736C144.831 7.736 144.827 7.736 144.823 7.736C144.819 7.736 144.815 7.736 144.811 7.736C144.807 7.736 144.803 7.736 144.799 7.736C144.795 7.736 144.791 7.736 144.787 7.736C144.784 7.736 144.78 7.736 144.776 7.736C144.772 7.736 144.768 7.736 144.764 7.736C144.76 7.736 144.756 7.736 144.752 7.736C144.748 7.736 144.744 7.736 144.74 7.736C144.736 7.736 144.732 7.736 144.728 7.736C144.724 7.736 144.721 7.736 144.717 7.736C144.713 7.736 144.709 7.736 144.705 7.736C144.701 7.736 144.697 7.736 144.693 7.736C144.689 7.736 144.685 7.736 144.681 7.736C144.677 7.736 144.673 7.736 144.669 7.736C144.665 7.736 144.661 7.736 144.658 7.736C144.654 7.736 144.65 7.736 144.646 7.736C144.642 7.736 144.638 7.736 144.634 7.736C144.63 7.736 144.626 7.736 144.622 7.736C144.618 7.736 144.614 7.736 144.61 7.736C144.606 7.736 144.602 7.736 144.598 7.736C144.595 7.736 144.591 7.736 144.587 7.736C144.583 7.736 144.579 7.736 144.575 7.736C144.571 7.736 144.567 7.736 144.563 7.736C144.559 7.736 144.555 7.736 144.551 7.736C144.547 7.736 144.543 7.736 144.539 7.736C144.535 7.736 144.532 7.736 144.528 7.736C144.524 7.736 144.52 7.736 144.516 7.736C144.512 7.736 144.508 7.736 144.504 7.736C144.5 7.736 144.496 7.736 144.492 7.736C144.488 7.736 144.484 7.736 144.48 7.736C144.476 7.736 144.472 7.736 144.469 7.736C144.465 7.736 144.461 7.736 144.457 7.736C144.453 7.736 144.449 7.736 144.445 7.736C144.441 7.736 144.437 7.736 144.433 7.736C144.429 7.736 144.425 7.736 144.421 7.736C144.417 7.736 144.413 7.736 144.409 7.736C144.406 7.736 144.402 7.736 144.398 7.736C144.394 7.736 144.39 7.736 144.386 7.736C144.382 7.736 144.378 7.736 144.374 7.736C144.37 7.736 144.366 7.736 144.362 7.736C144.358 7.736 144.354 7.736 144.35 7.736C144.346 7.736 144.343 7.736 144.339 7.736C144.335 7.736 144.331 7.736 144.327 7.736C144.323 7.736 144.319 7.736 144.315 7.736C144.311 7.736 144.307 7.736 144.303 7.736C144.299 7.736 144.295 7.736 144.291 7.736C144.287 7.736 144.283 7.736 144.28 7.736C144.276 7.736 144.272 7.736 144.268 7.736C144.264 7.736 144.26 7.736 144.256 7.736C144.252 7.736 144.248 7.736 144.244 7.736C144.24 7.736 144.236 7.736 144.232 7.736C144.228 7.736 144.224 7.736 144.22 7.736C144.217 7.736 144.213 7.736 144.209 7.736C144.205 7.736 144.201 7.736 144.197 7.736C144.193 7.736 144.189 7.736 144.185 7.736C144.181 7.736 144.177 7.736 144.173 7.736C144.169 7.736 144.165 7.736 144.161 7.736C144.157 7.736 144.154 7.736 144.15 7.736C144.146 7.736 144.142 7.736 144.138 7.736C144.134 7.736 144.13 7.736 144.126 7.736C144.122 7.736 144.118 7.736 144.114 7.736C144.11 7.736 144.106 7.736 144.102 7.736C144.098 7.736 144.094 7.736 144.091 7.736C144.087 7.736 144.083 7.736 144.079 7.736C144.075 7.736 144.071 7.736 144.067 7.736C144.063 7.736 144.059 7.736 144.055 7.736C144.051 7.736 144.047 7.736 144.043 7.736C144.039 7.736 144.035 7.736 144.031 7.736C144.028 7.736 144.024 7.736 144.02 7.736C144.016 7.736 144.012 7.736 144.008 7.736C144.004 7.736 144 7.736 143.996 7.736C143.992 7.736 143.988 7.736 143.984 7.736C143.98 7.736 143.976 7.736 143.972 7.736C143.968 7.736 143.965 7.736 143.961 7.736C143.957 7.736 143.953 7.736 143.949 7.736C143.945 7.736 143.941 7.736 143.937 7.736C143.933 7.736 143.929 7.736 143.925 7.736C143.921 7.736 143.917 7.736 143.913 7.736C143.909 7.736 143.905 7.736 143.902 7.736C143.898 7.736 143.894 7.736 143.89 7.736C143.886 7.736 143.882 7.736 143.878 7.736C143.874 7.736 143.87 7.736 143.866 7.736C143.862 7.736 143.858 7.736 143.854 7.736C143.85 7.736 143.846 7.736 143.842 7.736C143.839 7.736 143.835 7.736 143.831 7.736C143.827 7.736 143.823 7.736 143.819 7.736C143.815 7.736 143.811 7.736 143.807 7.736C143.803 7.736 143.799 7.736 143.795 7.736C143.791 7.736 143.787 7.736 143.783 7.736C143.779 7.736 143.776 7.736 143.772 7.736C143.768 7.736 143.764 7.736 143.76 7.736C143.756 7.736 143.752 7.736 143.748 7.736C143.744 7.736 143.74 7.736 143.736 7.736C143.732 7.736 143.728 7.736 143.724 7.736C143.72 7.736 143.716 7.736 143.713 7.736C143.709 7.736 143.705 7.736 143.701 7.736C143.697 7.736 143.693 7.736 143.689 7.736C143.685 7.736 143.681 7.736 143.677 7.736C143.673 7.736 143.669 7.736 143.665 7.736C143.661 7.736 143.657 7.736 143.653 7.736C143.65 7.736 143.646 7.736 143.642 7.736C143.638 7.736 143.634 7.736 143.63 7.736C143.626 7.736 143.622 7.736 143.618 7.736C143.614 7.736 143.61 7.736 143.606 7.736C143.602 7.736 143.598 7.736 143.594 7.736C143.59 7.736 143.587 7.736 143.583 7.736C143.579 7.736 143.575 7.736 143.571 7.736C143.567 7.736 143.563 7.736 143.559 7.736C143.555 7.736 143.551 7.736 143.547 7.736C143.543 7.736 143.539 7.736 143.535 7.736C143.531 7.736 143.527 7.736 143.524 7.736C143.52 7.736 143.516 7.736 143.512 7.736C143.508 7.736 143.504 7.736 143.5 7.736C143.496 7.736 143.492 7.736 143.488 7.736C143.484 7.736 143.48 7.736 143.476 7.736C143.472 7.736 143.468 7.736 143.464 7.736C143.461 7.736 143.457 7.736 143.453 7.736C143.449 7.736 143.445 7.736 143.441 7.736C143.437 7.736 143.433 7.736 143.429 7.736C143.425 7.736 143.421 7.736 143.417 7.736C143.413 7.736 143.409 7.736 143.405 7.736C143.401 7.736 143.398 7.736 143.394 7.736C143.39 7.736 143.386 7.736 143.382 7.736C143.378 7.736 143.374 7.736 143.37 7.736C143.366 7.736 143.362 7.736 143.358 7.736C143.354 7.736 143.35 7.736 143.346 7.736C143.342 7.736 143.338 7.736 143.335 7.736C143.331 7.736 143.327 7.736 143.323 7.736C143.319 7.736 143.315 7.736 143.311 7.736C143.307 7.736 143.303 7.736 143.299 7.736C143.295 7.736 143.291 7.736 143.287 7.736C143.283 7.736 143.279 7.736 143.275 7.736C143.272 7.736 143.268 7.736 143.264 7.736C143.26 7.736 143.256 7.736 143.252 7.736C143.248 7.736 143.244 7.736 143.24 7.736C143.236 7.736 143.232 7.736 143.228 7.736C143.224 7.736 143.22 7.736 143.216 7.736C143.212 7.736 143.209 7.736 143.205 7.736C143.201 7.736 143.197 7.736 143.193 7.736C143.189 7.736 143.185 7.736 143.181 7.736C143.177 7.736 143.173 7.736 143.169 7.736C143.165 7.736 143.161 7.736 143.157 7.736C143.153 7.736 143.149 7.736 143.146 7.736C143.142 7.736 143.138 7.736 143.134 7.736C143.13 7.736 143.126 7.736 143.122 7.736C143.118 7.736 143.114 7.736 143.11 7.736C143.106 7.736 143.102 7.736 143.098 7.736C143.094 7.736 143.09 7.736 143.086 7.736C143.083 7.736 143.079 7.736 143.075 7.736C143.071 7.736 143.067 7.736 143.063 7.736C143.059 7.736 143.055 7.736 143.051 7.736C143.047 7.736 143.043 7.736 143.039 7.736C143.035 7.736 143.031 7.736 143.027 7.736C143.023 7.736 143.02 7.736 143.016 7.736C143.012 7.736 143.008 7.736 143.004 7.736C143 7.736 142.996 7.736 142.992 7.736C142.988 7.736 142.984 7.736 142.98 7.736C142.976 7.736 142.972 7.736 142.968 7.736C142.964 7.736 142.96 7.736 142.957 7.736C142.953 7.736 142.949 7.736 142.945 7.736C142.941 7.736 142.937 7.736 142.933 7.736C142.929 7.736 142.925 7.736 142.921 7.736C142.917 7.736 142.913 7.736 142.909 7.736C142.905 7.736 142.901 7.736 142.897 7.736C142.894 7.736 142.89 7.736 142.886 7.736C142.882 7.736 142.878 7.736 142.874 7.736C142.87 7.736 142.866 7.736 142.862 7.736C142.858 7.736 142.854 7.736 142.85 7.736C142.846 7.736 142.842 7.736 142.838 7.736C142.834 7.736 142.831 7.736 142.827 7.736C142.823 7.736 142.819 7.736 142.815 7.736C142.811 7.736 142.807 7.736 142.803 7.736C142.799 7.736 142.795 7.736 142.791 7.736C142.787 7.736 142.783 7.736 142.779 7.736C142.775 7.736 142.771 7.736 142.768 7.736C142.764 7.736 142.76 7.736 142.756 7.736C142.752 7.736 142.748 7.736 142.744 7.736C142.74 7.736 142.736 7.736 142.732 7.736C142.728 7.736 142.724 7.736 142.72 7.736C142.716 7.736 142.712 7.736 142.708 7.736C142.705 7.736 142.701 7.736 142.697 7.736C142.693 7.736 142.689 7.736 142.685 7.736C142.681 7.736 142.677 7.736 142.673 7.736C142.669 7.736 142.665 7.736 142.661 7.736C142.657 7.736 142.653 7.736 142.649 7.736C142.645 7.736 142.642 7.736 142.638 7.736C142.634 7.736 142.63 7.736 142.626 7.736C142.622 7.736 142.618 7.736 142.614 7.736C142.61 7.736 142.606 7.736 142.602 7.736C142.598 7.736 142.594 7.736 142.59 7.736C142.586 7.736 142.582 7.736 142.579 7.736C142.575 7.736 142.571 7.736 142.567 7.736C142.563 7.736 142.559 7.736 142.555 7.736C142.551 7.736 142.547 7.736 142.543 7.736C142.539 7.736 142.535 7.736 142.531 7.736C142.527 7.736 142.523 7.736 142.519 7.736C142.516 7.736 142.512 7.736 142.508 7.736C142.504 7.736 142.5 7.736 142.496 7.736C142.492 7.736 142.488 7.736 142.484 7.736C142.48 7.736 142.476 7.736 142.472 7.736C142.468 7.736 142.464 7.736 142.46 7.736C142.456 7.736 142.453 7.736 142.449 7.736C142.445 7.736 142.441 7.736 142.437 7.736C142.433 7.736 142.429 7.736 142.425 7.736C142.421 7.736 142.417 7.736 142.413 7.736C142.409 7.736 142.405 7.736 142.401 7.736C142.397 7.736 142.393 7.736 142.39 7.736C142.386 7.736 142.382 7.736 142.378 7.736C142.374 7.736 142.37 7.736 142.366 7.736C142.362 7.736 142.358 7.736 142.354 7.736C142.35 7.736 142.346 7.736 142.342 7.736C142.338 7.736 142.334 7.736 142.33 7.736C142.327 7.736 142.323 7.736 142.319 7.736C142.315 7.736 142.311 7.736 142.307 7.736C142.303 7.736 142.299 7.736 142.295 7.736C142.291 7.736 142.287 7.736 142.283 7.736C142.279 7.736 142.275 7.736 142.271 7.736C142.267 7.736 142.264 7.736 142.26 7.736C142.256 7.736 142.252 7.736 142.248 7.736C142.244 7.736 142.24 7.736 142.236 7.736C142.232 7.736 142.228 7.736 142.224 7.736C142.22 7.736 142.216 7.736 142.212 7.736C142.208 7.736 142.204 7.736 142.201 7.736C142.197 7.736 142.193 7.736 142.189 7.736C142.185 7.736 142.181 7.736 142.177 7.736C142.173 7.736 142.169 7.736 142.165 7.736C142.161 7.736 142.157 7.736 142.153 7.736C142.149 7.736 142.145 7.736 142.141 7.736C142.138 7.736 142.134 7.736 142.13 7.736C142.126 7.736 142.122 7.736 142.118 7.736C142.114 7.736 142.11 7.736 142.106 7.736C142.102 7.736 142.098 7.736 142.094 7.736C142.09 7.736 142.086 7.736 142.082 7.736C142.078 7.736 142.075 7.736 142.071 7.736C142.067 7.736 142.063 7.736 142.059 7.736C142.055 7.736 142.051 7.736 142.047 7.736C142.043 7.736 142.039 7.736 142.035 7.736C142.031 7.736 142.027 7.736 142.023 7.736C142.019 7.736 142.015 7.736 142.012 7.736C142.008 7.736 142.004 7.736 142 7.736C141.996 7.736 141.992 7.736 141.988 7.736C141.984 7.736 141.98 7.736 141.976 7.736C141.972 7.736 141.968 7.736 141.964 7.736C141.96 7.736 141.956 7.736 141.952 7.736C141.949 7.736 141.945 7.736 141.941 7.736C141.937 7.736 141.933 7.736 141.929 7.736C141.925 7.736 141.921 7.736 141.917 7.736C141.913 7.736 141.909 7.736 141.905 7.736C141.901 7.736 141.897 7.736 141.893 7.736C141.889 7.736 141.886 7.736 141.882 7.736C141.878 7.736 141.874 7.736 141.87 7.736C141.866 7.736 141.862 7.736 141.858 7.736C141.854 7.736 141.85 7.736 141.846 7.736C141.842 7.736 141.838 7.736 141.834 7.736C141.83 7.736 141.826 7.736 141.823 7.736C141.819 7.736 141.815 7.736 141.811 7.736C141.807 7.736 141.803 7.736 141.799 7.736C141.795 7.736 141.791 7.736 141.787 7.736C141.783 7.736 141.779 7.736 141.775 7.736C141.771 7.736 141.767 7.736 141.763 7.736C141.76 7.736 141.756 7.736 141.752 7.736C141.748 7.736 141.744 7.736 141.74 7.736C141.736 7.736 141.732 7.736 141.728 7.736C141.724 7.736 141.72 7.736 141.716 7.736C141.712 7.736 141.708 7.736 141.704 7.736C141.7 7.736 141.697 7.736 141.693 7.736C141.689 7.736 141.685 7.736 141.681 7.736C141.677 7.736 141.673 7.736 141.669 7.736C141.665 7.736 141.661 7.736 141.657 7.736C141.653 7.736 141.649 7.736 141.645 7.736C141.641 7.736 141.637 7.736 141.634 7.736C141.63 7.736 141.626 7.736 141.622 7.736C141.618 7.736 141.614 7.736 141.61 7.736C141.606 7.736 141.602 7.736 141.598 7.736C141.594 7.736 141.59 7.736 141.586 7.736C141.582 7.736 141.578 7.736 141.574 7.736C141.571 7.736 141.567 7.736 141.563 7.736C141.559 7.736 141.555 7.736 141.551 7.736C141.547 7.736 141.543 7.736 141.539 7.736C141.535 7.736 141.531 7.736 141.527 7.736C141.523 7.736 141.519 7.736 141.515 7.736C141.511 7.736 141.508 7.736 141.504 7.736C141.5 7.736 141.496 7.736 141.492 7.736C141.488 7.736 141.484 7.736 141.48 7.736C141.476 7.736 141.472 7.736 141.468 7.736C141.464 7.736 141.46 7.736 141.456 7.736C141.452 7.736 141.448 7.736 141.445 7.736C141.441 7.736 141.437 7.736 141.433 7.736C141.429 7.736 141.425 7.736 141.421 7.736C141.417 7.736 141.413 7.736 141.409 7.736C141.405 7.736 141.401 7.736 141.397 7.736C141.393 7.736 141.389 7.736 141.385 7.736C141.382 7.736 141.378 7.736 141.374 7.736C141.37 7.736 141.366 7.736 141.362 7.736C141.358 7.736 141.354 7.736 141.35 7.736C141.346 7.736 141.342 7.736 141.338 7.736C141.334 7.736 141.33 7.736 141.326 7.736C141.322 7.736 141.319 7.736 141.315 7.736C141.311 7.736 141.307 7.736 141.303 7.736C141.299 7.736 141.295 7.736 141.291 7.736C141.287 7.736 141.283 7.736 141.279 7.736C141.275 7.736 141.271 7.736 141.267 7.736C141.263 7.736 141.259 7.736 141.256 7.736C141.252 7.736 141.248 7.736 141.244 7.736C141.24 7.736 141.236 7.736 141.232 7.736C141.228 7.736 141.224 7.736 141.22 7.736C141.216 7.736 141.212 7.736 141.208 7.736C141.204 7.736 141.2 7.736 141.196 7.736C141.193 7.736 141.189 7.736 141.185 7.736C141.181 7.736 141.177 7.736 141.173 7.736C141.169 7.736 141.165 7.736 141.161 7.736C141.157 7.736 141.153 7.736 141.149 7.736C141.145 7.736 141.141 7.736 141.137 7.736C141.133 7.736 141.13 7.736 141.126 7.736C141.122 7.736 141.118 7.736 141.114 7.736C141.11 7.736 141.106 7.736 141.102 7.736C141.098 7.736 141.094 7.736 141.09 7.736C141.086 7.736 141.082 7.736 141.078 7.736C141.074 7.736 141.07 7.736 141.067 7.736C141.063 7.736 141.059 7.736 141.055 7.736C141.051 7.736 141.047 7.736 141.043 7.736C141.039 7.736 141.035 7.736 141.031 7.736C141.027 7.736 141.023 7.736 141.019 7.736C141.015 7.736 141.011 7.736 141.007 7.736C141.004 7.736 141 7.736 140.996 7.736C140.992 7.736 140.988 7.736 140.984 7.736C140.98 7.736 140.976 7.736 140.972 7.736C140.968 7.736 140.964 7.736 140.96 7.736C140.956 7.736 140.952 7.736 140.948 7.736C140.944 7.736 140.941 7.736 140.937 7.736C140.933 7.736 140.929 7.736 140.925 7.736C140.921 7.736 140.917 7.736 140.913 7.736C140.909 7.736 140.905 7.736 140.901 7.736C140.897 7.736 140.893 7.736 140.889 7.736C140.885 7.736 140.881 7.736 140.878 7.736C140.874 7.736 140.87 7.736 140.866 7.736C140.862 7.736 140.858 7.736 140.854 7.736C140.85 7.736 140.846 7.736 140.842 7.736C140.838 7.736 140.834 7.736 140.83 7.736C140.826 7.736 140.822 7.736 140.818 7.736C140.815 7.736 140.811 7.736 140.807 7.736C140.803 7.736 140.799 7.736 140.795 7.736C140.791 7.736 140.787 7.736 140.783 7.736C140.779 7.736 140.775 7.736 140.771 7.736C140.767 7.736 140.763 7.736 140.759 7.736C140.755 7.736 140.752 7.736 140.748 7.736C140.744 7.736 140.74 7.736 140.736 7.736C140.732 7.736 140.728 7.736 140.724 7.736C140.72 7.736 140.716 7.736 140.712 7.736C140.708 7.736 140.704 7.736 140.7 7.736C140.696 7.736 140.692 7.736 140.689 7.736C140.685 7.736 140.681 7.736 140.677 7.736C140.673 7.736 140.669 7.736 140.665 7.736C140.661 7.736 140.657 7.736 140.653 7.736C140.649 7.736 140.645 7.736 140.641 7.736C140.637 7.736 140.633 7.736 140.629 7.736C140.626 7.736 140.622 7.736 140.618 7.736C140.614 7.736 140.61 7.736 140.606 7.736C140.602 7.736 140.598 7.736 140.594 7.736C140.59 7.736 140.586 7.736 140.582 7.736C140.578 7.736 140.574 7.736 140.57 7.736C140.566 7.736 140.563 7.736 140.559 7.736C140.555 7.736 140.551 7.736 140.547 7.736C140.543 7.736 140.539 7.736 140.535 7.736C140.531 7.736 140.527 7.736 140.523 7.736C140.519 7.736 140.515 7.736 140.511 7.736C140.507 7.736 140.503 7.736 140.5 7.736C140.496 7.736 140.492 7.736 140.488 7.736C140.484 7.736 140.48 7.736 140.476 7.736C140.472 7.736 140.468 7.736 140.464 7.736C140.46 7.736 140.456 7.736 140.452 7.736C140.448 7.736 140.444 7.736 140.44 7.736C140.437 7.736 140.433 7.736 140.429 7.736C140.425 7.736 140.421 7.736 140.417 7.736C140.413 7.736 140.409 7.736 140.405 7.736C140.401 7.736 140.397 7.736 140.393 7.736C140.389 7.736 140.385 7.736 140.381 7.736C140.377 7.736 140.374 7.736 140.37 7.736C140.366 7.736 140.362 7.736 140.358 7.736C140.354 7.736 140.35 7.736 140.346 7.736C140.342 7.736 140.338 7.736 140.334 7.736C140.33 7.736 140.326 7.736 140.322 7.736C140.318 7.736 140.314 7.736 140.311 7.736C140.307 7.736 140.303 7.736 140.299 7.736C140.295 7.736 140.291 7.736 140.287 7.736C140.283 7.736 140.279 7.736 140.275 7.736C140.271 7.736 140.267 7.736 140.263 7.736C140.259 7.736 140.255 7.736 140.251 7.736C140.248 7.736 140.244 7.736 140.24 7.736C140.236 7.736 140.232 7.736 140.228 7.736C140.224 7.736 140.22 7.736 140.216 7.736C140.212 7.736 140.208 7.736 140.204 7.736C140.2 7.736 140.196 7.736 140.192 7.736C140.188 7.736 140.185 7.736 140.181 7.736C140.177 7.736 140.173 7.736 140.169 7.736C140.165 7.736 140.161 7.736 140.157 7.736C140.153 7.736 140.149 7.736 140.145 7.736C140.141 7.736 140.137 7.736 140.133 7.736C140.129 7.736 140.125 7.736 140.122 7.736C140.118 7.736 140.114 7.736 140.11 7.736C140.106 7.736 140.102 7.736 140.098 7.736C140.094 7.736 140.09 7.736 140.086 7.736C140.082 7.736 140.078 7.736 140.074 7.736C140.07 7.736 140.066 7.736 140.062 7.736C140.059 7.736 140.055 7.736 140.051 7.736C140.047 7.736 140.043 7.736 140.039 7.736C140.035 7.736 140.031 7.736 140.027 7.736C140.023 7.736 140.019 7.736 140.015 7.736C140.011 7.736 140.007 7.736 140.003 7.736C139.999 7.736 139.996 7.736 139.992 7.736C139.988 7.736 139.984 7.736 139.98 7.736C139.976 7.736 139.972 7.736 139.968 7.736C139.964 7.736 139.96 7.736 139.956 7.736C139.952 7.736 139.948 7.736 139.944 7.736C139.94 7.736 139.936 7.736 139.933 7.736C139.929 7.736 139.925 7.736 139.921 7.736C139.917 7.736 139.913 7.736 139.909 7.736C139.905 7.736 139.901 7.736 139.897 7.736C139.893 7.736 139.889 7.736 139.885 7.736C139.881 7.736 139.877 7.736 139.873 7.736C139.87 7.736 139.866 7.736 139.862 7.736C139.858 7.736 139.854 7.736 139.85 7.736C139.846 7.736 139.842 7.736 139.838 7.736C139.834 7.736 139.83 7.736 139.826 7.736C139.822 7.736 139.818 7.736 139.814 7.736C139.81 7.736 139.807 7.736 139.803 7.736C139.799 7.736 139.795 7.736 139.791 7.736C139.787 7.736 139.783 7.736 139.779 7.736C139.775 7.736 139.771 7.736 139.767 7.736C139.763 7.736 139.759 7.736 139.755 7.736C139.751 7.736 139.747 7.736 139.744 7.736C139.74 7.736 139.736 7.736 139.732 7.736C139.728 7.736 139.724 7.736 139.72 7.736C139.716 7.736 139.712 7.736 139.708 7.736C139.704 7.736 139.7 7.736 139.696 7.736C139.692 7.736 139.688 7.736 139.684 7.736C139.681 7.736 139.677 7.736 139.673 7.736C139.669 7.736 139.665 7.736 139.661 7.736C139.657 7.736 139.653 7.736 139.649 7.736C139.645 7.736 139.641 7.736 139.637 7.736C139.633 7.736 139.629 7.736 139.625 7.736C139.621 7.736 139.618 7.736 139.614 7.736C139.61 7.736 139.606 7.736 139.602 7.736C139.598 7.736 139.594 7.736 139.59 7.736C139.586 7.736 139.582 7.736 139.578 7.736C139.574 7.736 139.57 7.736 139.566 7.736C139.562 7.736 139.558 7.736 139.555 7.736C139.551 7.736 139.547 7.736 139.543 7.736C139.539 7.736 139.535 7.736 139.531 7.736C139.527 7.736 139.523 7.736 139.519 7.736C139.515 7.736 139.511 7.736 139.507 7.736C139.503 7.736 139.499 7.736 139.495 7.736C139.492 7.736 139.488 7.736 139.484 7.736C139.48 7.736 139.476 7.736 139.472 7.736C139.468 7.736 139.464 7.736 139.46 7.736C139.456 7.736 139.452 7.736 139.448 7.736C139.444 7.736 139.44 7.736 139.436 7.736C139.432 7.736 139.429 7.736 139.425 7.736C139.421 7.736 139.417 7.736 139.413 7.736C139.409 7.736 139.405 7.736 139.401 7.736C139.397 7.736 139.393 7.736 139.389 7.736C139.385 7.736 139.381 7.736 139.377 7.736C139.373 7.736 139.369 7.736 139.366 7.736C139.362 7.736 139.358 7.736 139.354 7.736C139.35 7.736 139.346 7.736 139.342 7.736C139.338 7.736 139.334 7.736 139.33 7.736C139.326 7.736 139.322 7.736 139.318 7.736C139.314 7.736 139.31 7.736 139.306 7.736C139.303 7.736 139.299 7.736 139.295 7.736C139.291 7.736 139.287 7.736 139.283 7.736C139.279 7.736 139.275 7.736 139.271 7.736C139.267 7.736 139.263 7.736 139.259 7.736C139.255 7.736 139.251 7.736 139.247 7.736C139.243 7.736 139.24 7.736 139.236 7.736C139.232 7.736 139.228 7.736 139.224 7.736C139.22 7.736 139.216 7.736 139.212 7.736C139.208 7.736 139.204 7.736 139.2 7.736C139.196 7.736 139.192 7.736 139.188 7.736C139.184 7.736 139.18 7.736 139.177 7.736V17.736ZM140.225 12.736V26.4H150.225V12.736H140.225ZM142.727 22.0685L138.343 24.5965L143.338 33.2595L147.722 30.7315L142.727 22.0685ZM135.841 28.928V35.936H145.841V28.928H135.841ZM140.841 30.936H136.041V40.936H140.841V30.936ZM141.041 35.936V28.928H131.041V35.936H141.041ZM138.538 24.5965L134.154 22.0685L129.159 30.7315L133.543 33.2595L138.538 24.5965ZM136.657 26.4V16.736H126.657V26.4H136.657ZM136.43 15.2468L135.182 11.2468L125.635 14.2252L126.883 18.2252L136.43 15.2468ZM130.409 17.736H136.457V7.736H130.409V17.736ZM131.457 12.736V23.616H141.457V12.736H131.457ZM133.946 27.9399L135.93 29.0919L140.951 20.4441L138.967 19.2921L133.946 27.9399ZM140.982 29.074L142.934 27.922L137.851 19.31L135.899 20.462L140.982 29.074ZM145.393 23.616V16.736H135.393V23.616H145.393ZM145.176 15.2817L143.96 11.2817L134.393 14.1903L135.609 18.1903L145.176 15.2817Z" fill="#F6EAE0" mask="url(#path-1-outside-1_38_25)"/>
<path fill-rule="evenodd" clip-rule="evenodd" d="M26.9709 32.4592L33.608 26.1241C35.6071 27.1893 37.9482 27.4838 40.1407 26.9416C42.3889 26.3858 44.2966 24.9958 45.444 23.0776C45.4448 23.0761 45.4457 23.0747 45.4465 23.0733C46.594 21.155 46.8872 18.8656 46.2618 16.7087C45.6363 14.5518 44.1433 12.704 42.1114 11.5718C39.3751 10.0473 36.1848 8.2699 33.4485 6.74537C31.4165 5.61325 29.012 5.2895 26.7638 5.8454C24.5156 6.40131 22.6079 7.79125 21.4605 9.7095C21.4596 9.71093 21.4588 9.71235 21.4579 9.71381C20.7977 10.8174 20.4203 12.0439 20.338 13.2973C20.338 13.2965 13.5321 19.7926 13.5321 19.7926C12.2204 19.8709 10.9351 20.2312 9.77862 20.8614C9.77715 20.8622 9.77562 20.8631 9.77416 20.8639C7.76446 21.9591 6.30819 23.7799 5.72577 25.9258C5.14332 28.0717 5.48245 30.3669 6.66848 32.3065C8.26558 34.9183 10.1277 37.9635 11.7248 40.5753C12.9108 42.5149 14.8466 43.94 17.1063 44.537C19.3661 45.1341 21.7646 44.8542 23.7743 43.759C23.7759 43.7582 23.7773 43.7574 23.7788 43.7566C25.7885 42.6614 27.2448 40.8406 27.8272 38.6946C28.3952 36.602 28.0868 34.3673 26.9709 32.4592ZM34.0955 23.1606C33.0369 22.5995 32.3069 23.3406 32.2916 23.3553C28.1613 27.3228 24.0701 31.2026 24.0701 31.2026C23.5473 31.7266 23.5515 32.4136 23.8661 32.9244C24.0665 33.2497 24.1776 33.4341 24.3294 33.6821C24.5743 34.0818 24.5739 34.082 24.3406 33.7003C25.1284 34.9887 25.3537 36.5134 24.9668 37.9389C24.5799 39.3643 23.6125 40.5739 22.2775 41.3014L22.273 41.3039C20.938 42.0314 19.3447 42.2173 17.8436 41.8207C16.3425 41.424 15.0566 40.4774 14.2688 39.189C12.6716 36.5771 10.8095 33.532 9.21242 30.9201C8.42456 29.6317 8.1993 28.1071 8.58619 26.6816C8.97309 25.2561 9.94046 24.0465 11.2754 23.3191L11.28 23.3166C12.1712 22.8309 13.1776 22.5866 14.1948 22.5959C14.5865 22.5995 14.9606 22.4544 15.2349 22.1926L22.8523 14.9219C23.1266 14.6601 23.2787 14.3029 23.2749 13.929C23.2652 12.9581 23.5212 11.9976 24.03 11.1469L24.0326 11.1426C24.7948 9.8683 26.0621 8.94497 27.5555 8.57571C29.0489 8.20648 30.6462 8.4215 31.9961 9.17354C34.7323 10.6981 37.9226 12.4755 40.6589 14C42.0087 14.7521 43.0005 15.9795 43.4159 17.4123C43.8314 18.8451 43.6366 20.3659 42.8744 21.6402L42.8718 21.6445C42.1096 22.9187 40.8424 23.8421 39.3489 24.2113C37.8702 24.5769 36.2897 24.3697 34.9484 23.6356L34.0955 23.1606ZM26.9647 32.465L26.9643 32.4655L26.9692 32.4755L26.998 32.5443C26.9878 32.5177 26.9768 32.4912 26.9647 32.465ZM14.1495 29.6824L13.1226 30.6625C12.5517 31.2074 12.5606 32.1008 13.1425 32.6562C13.7244 33.2116 14.6603 33.2201 15.2312 32.6752L16.2581 31.6951L17.3048 32.6942C17.8867 33.2496 18.8226 33.2582 19.3935 32.7133C19.9643 32.1684 19.9554 31.2751 19.3735 30.7196L18.3268 29.7205L19.3537 28.7403C19.9246 28.1954 19.9156 27.3021 19.3338 26.7467C18.7519 26.1913 17.816 26.1827 17.2451 26.7276L16.2182 27.7078L15.1715 26.7087C14.5896 26.1533 13.6537 26.1447 13.0828 26.6896C12.5119 27.2345 12.5209 28.1278 13.1028 28.6832L14.1495 29.6824Z" fill="#CE422B"/>
<path fill-rule="evenodd" clip-rule="evenodd" d="M31.6713 18.864C31.0555 18.2762 31.046 17.3308 31.6502 16.7541C32.2544 16.1774 33.2449 16.1865 33.8607 16.7743C34.4765 17.3621 34.486 18.3076 33.8818 18.8843C33.2776 19.461 32.2871 19.4519 31.6713 18.864ZM31.6116 12.8975C32.2158 12.3208 33.2063 12.3298 33.8221 12.9177C34.438 13.5055 34.4474 14.4509 33.8432 15.0276C33.239 15.6043 32.2486 15.5953 31.6327 15.0074C31.0169 14.4196 31.0075 13.4742 31.6116 12.8975ZM27.6098 16.7172C28.2139 16.1405 29.2044 16.1496 29.8203 16.7374C30.4361 17.3252 30.4455 18.2707 29.8414 18.8473C29.2372 19.424 28.2467 19.415 27.6308 18.8272C27.015 18.2393 27.0056 17.2939 27.6098 16.7172ZM27.5923 14.9705C26.9765 14.3827 26.967 13.4373 27.5712 12.8606C28.1754 12.2839 29.1659 12.293 29.7817 12.8808C30.3975 13.4686 30.407 14.414 29.8028 14.9907C29.1986 15.5674 28.2081 15.5583 27.5923 14.9705Z" fill="#CE422B" fill-opacity="0.6"/>
</svg>
