<svg width="145" height="48" viewBox="0 0 145 48" fill="none" xmlns="http://www.w3.org/2000/svg">
<mask id="path-1-outside-1_69_135" maskUnits="userSpaceOnUse" x="45.2163" y="8.81784" width="104" height="41" fill="black">
<rect fill="white" x="45.2163" y="8.81784" width="104" height="41"/>
<path d="M61.7203 40.9218V37.8178H57.4003V37.7858C55.4163 37.7218 53.7843 36.1858 53.4963 34.2658H53.4323V18.8098L52.2163 14.6498H66.3603V20.8258L61.5603 22.3938V19.4498H58.2643V33.0178H61.7203V31.6098H60.7603L59.0643 26.7778H66.5203V38.5218L61.7203 40.9218ZM79.7493 14.6498L81.6693 37.8498H76.8693L76.1013 28.6658H73.7973L73.0293 37.8498H68.2293L68.9653 28.6658L67.3013 23.8658H69.3813L69.7333 19.4818L68.0693 14.6498H74.9493H79.7493ZM74.1813 23.8658H75.7173L75.3333 19.4818H74.5653L74.1813 23.8658ZM103.735 37.8178H98.9026V20.6338L95.9906 22.8418V30.6178L91.1906 32.7618V22.8418L88.2466 20.6018V37.8178H83.4466V19.2898L81.8146 14.6498H88.2786L93.5906 19.0978L98.9026 14.6498H103.735V37.8178ZM114.723 37.8178H105.379V33.0178H107.651V19.4498H105.379V14.6498H113.347L115.011 19.4498H112.451V33.0178H114.723V37.8178ZM121.302 37.8178H116.502V19.4498L114.998 14.6498H128.534V19.4498H121.302V23.8338H125.974L127.638 28.6338H121.302V37.8178ZM137.393 14.5538C139.409 14.5538 141.425 14.5538 143.441 14.5538V28.2178L139.057 30.7458V37.7538H134.257V30.7458L129.873 28.2178V18.5538L128.625 14.5538H134.673V25.4338L136.657 26.5858L138.609 25.4338V18.5538L137.393 14.5538Z"/>
</mask>
<path d="M61.7203 40.9218V37.8178H57.4003V37.7858C55.4163 37.7218 53.7843 36.1858 53.4963 34.2658H53.4323V18.8098L52.2163 14.6498H66.3603V20.8258L61.5603 22.3938V19.4498H58.2643V33.0178H61.7203V31.6098H60.7603L59.0643 26.7778H66.5203V38.5218L61.7203 40.9218ZM79.7493 14.6498L81.6693 37.8498H76.8693L76.1013 28.6658H73.7973L73.0293 37.8498H68.2293L68.9653 28.6658L67.3013 23.8658H69.3813L69.7333 19.4818L68.0693 14.6498H74.9493H79.7493ZM74.1813 23.8658H75.7173L75.3333 19.4818H74.5653L74.1813 23.8658ZM103.735 37.8178H98.9026V20.6338L95.9906 22.8418V30.6178L91.1906 32.7618V22.8418L88.2466 20.6018V37.8178H83.4466V19.2898L81.8146 14.6498H88.2786L93.5906 19.0978L98.9026 14.6498H103.735V37.8178ZM114.723 37.8178H105.379V33.0178H107.651V19.4498H105.379V14.6498H113.347L115.011 19.4498H112.451V33.0178H114.723V37.8178ZM121.302 37.8178H116.502V19.4498L114.998 14.6498H128.534V19.4498H121.302V23.8338H125.974L127.638 28.6338H121.302V37.8178ZM137.393 14.5538C139.409 14.5538 141.425 14.5538 143.441 14.5538V28.2178L139.057 30.7458V37.7538H134.257V30.7458L129.873 28.2178V18.5538L128.625 14.5538H134.673V25.4338L136.657 26.5858L138.609 25.4338V18.5538L137.393 14.5538Z" fill="#1E1E1E"/>
<path d="M61.7203 40.9218H56.7203V49.012L63.9564 45.394L61.7203 40.9218ZM61.7203 37.8178H66.7203V32.8178H61.7203V37.8178ZM57.4003 37.8178H52.4003V42.8178H57.4003V37.8178ZM57.4003 37.7858H62.4003V32.9445L57.5615 32.7884L57.4003 37.7858ZM53.4963 34.2658L58.441 33.5241L57.8022 29.2658H53.4963V34.2658ZM53.4323 34.2658H48.4323V39.2658H53.4323V34.2658ZM53.4323 18.8098H58.4323V18.094L58.2315 17.407L53.4323 18.8098ZM52.2163 14.6498V9.64984H45.5455L47.4171 16.0527L52.2163 14.6498ZM66.3603 14.6498H71.3603V9.64984H66.3603V14.6498ZM66.3603 20.8258L67.9129 25.5787L71.3603 24.4525V20.8258H66.3603ZM61.5603 22.3938H56.5603V29.2872L63.1129 27.1467L61.5603 22.3938ZM61.5603 19.4498H66.5603V14.4498H61.5603V19.4498ZM58.2643 19.4498V14.4498H53.2643V19.4498H58.2643ZM58.2643 33.0178H53.2643V38.0178H58.2643V33.0178ZM61.7203 33.0178V38.0178H66.7203V33.0178H61.7203ZM61.7203 31.6098H66.7203V26.6098H61.7203V31.6098ZM60.7603 31.6098L56.0425 33.2658L57.2162 36.6098H60.7603V31.6098ZM59.0643 26.7778V21.7778H52.0103L54.3465 28.4338L59.0643 26.7778ZM66.5203 26.7778H71.5203V21.7778H66.5203V26.7778ZM66.5203 38.5218L68.7564 42.994L71.5203 41.612V38.5218H66.5203ZM66.7203 40.9218V37.8178H56.7203V40.9218H66.7203ZM61.7203 32.8178H57.4003V42.8178H61.7203V32.8178ZM62.4003 37.8178V37.7858H52.4003V37.8178H62.4003ZM57.5615 32.7884C57.8368 32.7973 58.0534 32.9104 58.1842 33.0299C58.3073 33.1424 58.4084 33.3071 58.441 33.5241L48.5516 35.0075C49.1808 39.2021 52.7302 42.6378 57.2391 42.7832L57.5615 32.7884ZM53.4963 29.2658H53.4323V39.2658H53.4963V29.2658ZM58.4323 34.2658V18.8098H48.4323V34.2658H58.4323ZM58.2315 17.407L57.0155 13.247L47.4171 16.0527L48.6331 20.2127L58.2315 17.407ZM52.2163 19.6498H66.3603V9.64984H52.2163V19.6498ZM61.3603 14.6498V20.8258H71.3603V14.6498H61.3603ZM64.8077 16.073L60.0077 17.641L63.1129 27.1467L67.9129 25.5787L64.8077 16.073ZM66.5603 22.3938V19.4498H56.5603V22.3938H66.5603ZM61.5603 14.4498H58.2643V24.4498H61.5603V14.4498ZM53.2643 19.4498V33.0178H63.2643V19.4498H53.2643ZM58.2643 38.0178H61.7203V28.0178H58.2643V38.0178ZM66.7203 33.0178V31.6098H56.7203V33.0178H66.7203ZM61.7203 26.6098H60.7603V36.6098H61.7203V26.6098ZM65.4781 29.9539L63.7821 25.1219L54.3465 28.4338L56.0425 33.2658L65.4781 29.9539ZM59.0643 31.7778H66.5203V21.7778H59.0643V31.7778ZM61.5203 26.7778V38.5218H71.5203V26.7778H61.5203ZM64.2842 34.0497L59.4842 36.4497L63.9564 45.394L68.7564 42.994L64.2842 34.0497ZM79.7493 14.6498L84.7323 14.2375L84.3526 9.64984H79.7493V14.6498ZM81.6693 37.8498V42.8498H87.1002L86.6523 37.4375L81.6693 37.8498ZM76.8693 37.8498L71.8867 38.2665L72.27 42.8498H76.8693V37.8498ZM76.1013 28.6658L81.0839 28.2492L80.7006 23.6658H76.1013V28.6658ZM73.7973 28.6658V23.6658H69.198L68.8147 28.2492L73.7973 28.6658ZM73.0293 37.8498V42.8498H77.6286L78.0119 38.2665L73.0293 37.8498ZM68.2293 37.8498L63.2453 37.4504L62.8126 42.8498H68.2293V37.8498ZM68.9653 28.6658L73.9493 29.0653L74.0331 28.0194L73.6895 27.0281L68.9653 28.6658ZM67.3013 23.8658V18.8658H60.2761L62.5771 25.5036L67.3013 23.8658ZM69.3813 23.8658V28.8658H73.9959L74.3653 24.266L69.3813 23.8658ZM69.7333 19.4818L74.7173 19.882L74.8008 18.8411L74.4608 17.8538L69.7333 19.4818ZM68.0693 14.6498V9.64984H61.0593L63.3418 16.2779L68.0693 14.6498ZM74.1813 23.8658L69.2004 23.4296L68.7242 28.8658H74.1813V23.8658ZM75.7173 23.8658V28.8658H81.1744L80.6982 23.4296L75.7173 23.8658ZM75.3333 19.4818L80.3142 19.0456L79.9145 14.4818H75.3333V19.4818ZM74.5653 19.4818V14.4818H69.9841L69.5844 19.0456L74.5653 19.4818ZM74.7663 15.0622L76.6863 38.2622L86.6523 37.4375L84.7323 14.2375L74.7663 15.0622ZM81.6693 32.8498H76.8693V42.8498H81.6693V32.8498ZM81.8519 37.4332L81.0839 28.2492L71.1187 29.0825L71.8867 38.2665L81.8519 37.4332ZM76.1013 23.6658H73.7973V33.6658H76.1013V23.6658ZM68.8147 28.2492L68.0467 37.4332L78.0119 38.2665L78.7799 29.0825L68.8147 28.2492ZM73.0293 32.8498H68.2293V42.8498H73.0293V32.8498ZM73.2133 38.2493L73.9493 29.0653L63.9813 28.2664L63.2453 37.4504L73.2133 38.2493ZM73.6895 27.0281L72.0255 22.2281L62.5771 25.5036L64.2411 30.3036L73.6895 27.0281ZM67.3013 28.8658H69.3813V18.8658H67.3013V28.8658ZM74.3653 24.266L74.7173 19.882L64.7493 19.0817L64.3973 23.4657L74.3653 24.266ZM74.4608 17.8538L72.7968 13.0218L63.3418 16.2779L65.0058 21.1099L74.4608 17.8538ZM68.0693 19.6498H74.9493V9.64984H68.0693V19.6498ZM74.9493 19.6498H79.7493V9.64984H74.9493V19.6498ZM74.1813 28.8658H75.7173V18.8658H74.1813V28.8658ZM80.6982 23.4296L80.3142 19.0456L70.3524 19.9181L70.7364 24.3021L80.6982 23.4296ZM75.3333 14.4818H74.5653V24.4818H75.3333V14.4818ZM69.5844 19.0456L69.2004 23.4296L79.1622 24.3021L79.5462 19.9181L69.5844 19.0456ZM103.735 37.8178V42.8178H108.735V37.8178H103.735ZM98.9026 37.8178H93.9026V42.8178H98.9026V37.8178ZM98.9026 20.6338H103.903V10.5678L95.8816 16.6497L98.9026 20.6338ZM95.9906 22.8418L92.9696 18.8577L90.9906 20.3582V22.8418H95.9906ZM95.9906 30.6178L98.0297 35.1831L100.991 33.8606V30.6178H95.9906ZM91.1906 32.7618H86.1906V40.4713L93.2297 37.3271L91.1906 32.7618ZM91.1906 22.8418H96.1906V20.3634L94.2182 18.8627L91.1906 22.8418ZM88.2466 20.6018L91.2742 16.6227L83.2466 10.5147V20.6018H88.2466ZM88.2466 37.8178V42.8178H93.2466V37.8178H88.2466ZM83.4466 37.8178H78.4466V42.8178H83.4466V37.8178ZM83.4466 19.2898H88.4466V18.4362L88.1633 17.6308L83.4466 19.2898ZM81.8146 14.6498V9.64984H74.7557L77.0978 16.3088L81.8146 14.6498ZM88.2786 14.6498L91.4886 10.8163L90.0955 9.64984H88.2786V14.6498ZM93.5906 19.0978L90.3806 22.9314L93.5906 25.6193L96.8006 22.9314L93.5906 19.0978ZM98.9026 14.6498V9.64984H97.0856L95.6926 10.8163L98.9026 14.6498ZM103.735 14.6498H108.735V9.64984H103.735V14.6498ZM103.735 32.8178H98.9026V42.8178H103.735V32.8178ZM103.903 37.8178V20.6338H93.9026V37.8178H103.903ZM95.8816 16.6497L92.9696 18.8577L99.0115 26.826L101.924 24.618L95.8816 16.6497ZM90.9906 22.8418V30.6178H100.991V22.8418H90.9906ZM93.9514 26.0526L89.1514 28.1966L93.2297 37.3271L98.0297 35.1831L93.9514 26.0526ZM96.1906 32.7618V22.8418H86.1906V32.7618H96.1906ZM94.2182 18.8627L91.2742 16.6227L85.2189 24.581L88.1629 26.821L94.2182 18.8627ZM83.2466 20.6018V37.8178H93.2466V20.6018H83.2466ZM88.2466 32.8178H83.4466V42.8178H88.2466V32.8178ZM88.4466 37.8178V19.2898H78.4466V37.8178H88.4466ZM88.1633 17.6308L86.5313 12.9908L77.0978 16.3088L78.7298 20.9488L88.1633 17.6308ZM81.8146 19.6498H88.2786V9.64984H81.8146V19.6498ZM85.0686 18.4834L90.3806 22.9314L96.8006 15.2643L91.4886 10.8163L85.0686 18.4834ZM96.8006 22.9314L102.113 18.4834L95.6926 10.8163L90.3806 15.2643L96.8006 22.9314ZM98.9026 19.6498H103.735V9.64984H98.9026V19.6498ZM98.7346 14.6498V37.8178H108.735V14.6498H98.7346ZM114.723 37.8178V42.8178H119.723V37.8178H114.723ZM105.379 37.8178H100.379V42.8178H105.379V37.8178ZM105.379 33.0178V28.0178H100.379V33.0178H105.379ZM107.651 33.0178V38.0178H112.651V33.0178H107.651ZM107.651 19.4498H112.651V14.4498H107.651V19.4498ZM105.379 19.4498H100.379V24.4498H105.379V19.4498ZM105.379 14.6498V9.64984H100.379V14.6498H105.379ZM113.347 14.6498L118.071 13.0121L116.905 9.64984H113.347V14.6498ZM115.011 19.4498V24.4498H122.036L119.735 17.8121L115.011 19.4498ZM112.451 19.4498V14.4498H107.451V19.4498H112.451ZM112.451 33.0178H107.451V38.0178H112.451V33.0178ZM114.723 33.0178H119.723V28.0178H114.723V33.0178ZM114.723 32.8178H105.379V42.8178H114.723V32.8178ZM110.379 37.8178V33.0178H100.379V37.8178H110.379ZM105.379 38.0178H107.651V28.0178H105.379V38.0178ZM112.651 33.0178V19.4498H102.651V33.0178H112.651ZM107.651 14.4498H105.379V24.4498H107.651V14.4498ZM110.379 19.4498V14.6498H100.379V19.4498H110.379ZM105.379 19.6498H113.347V9.64984H105.379V19.6498ZM108.623 16.2876L110.287 21.0876L119.735 17.8121L118.071 13.0121L108.623 16.2876ZM115.011 14.4498H112.451V24.4498H115.011V14.4498ZM107.451 19.4498V33.0178H117.451V19.4498H107.451ZM112.451 38.0178H114.723V28.0178H112.451V38.0178ZM109.723 33.0178V37.8178H119.723V33.0178H109.723ZM121.302 37.8178V42.8178H126.302V37.8178H121.302ZM116.502 37.8178H111.502V42.8178H116.502V37.8178ZM116.502 19.4498H121.502V18.6848L121.273 17.9548L116.502 19.4498ZM114.998 14.6498V9.64984H108.191L110.226 16.1448L114.998 14.6498ZM128.534 14.6498H133.534V9.64984H128.534V14.6498ZM128.534 19.4498V24.4498H133.534V19.4498H128.534ZM121.302 19.4498V14.4498H116.302V19.4498H121.302ZM121.302 23.8338H116.302V28.8338H121.302V23.8338ZM125.974 23.8338L130.698 22.1961L129.532 18.8338H125.974V23.8338ZM127.638 28.6338V33.6338H134.663L132.362 26.9961L127.638 28.6338ZM121.302 28.6338V23.6338H116.302V28.6338H121.302ZM121.302 32.8178H116.502V42.8178H121.302V32.8178ZM121.502 37.8178V19.4498H111.502V37.8178H121.502ZM121.273 17.9548L119.769 13.1548L110.226 16.1448L111.73 20.9448L121.273 17.9548ZM114.998 19.6498H128.534V9.64984H114.998V19.6498ZM123.534 14.6498V19.4498H133.534V14.6498H123.534ZM128.534 14.4498H121.302V24.4498H128.534V14.4498ZM116.302 19.4498V23.8338H126.302V19.4498H116.302ZM121.302 28.8338H125.974V18.8338H121.302V28.8338ZM121.249 25.4716L122.913 30.2716L132.362 26.9961L130.698 22.1961L121.249 25.4716ZM127.638 23.6338H121.302V33.6338H127.638V23.6338ZM116.302 28.6338V37.8178H126.302V28.6338H116.302ZM137.393 14.5538V9.55384H130.647L132.609 16.0081L137.393 14.5538ZM143.441 14.5538H148.441V9.55384H143.441V14.5538ZM143.441 28.2178L145.939 32.5493L148.441 31.1064V28.2178H143.441ZM139.057 30.7458L136.559 26.4144L134.057 27.8573V30.7458H139.057ZM139.057 37.7538V42.7538H144.057V37.7538H139.057ZM134.257 37.7538H129.257V42.7538H134.257V37.7538ZM134.257 30.7458H139.257V27.8573L136.755 26.4144L134.257 30.7458ZM129.873 28.2178H124.873V31.1064L127.375 32.5493L129.873 28.2178ZM129.873 18.5538H134.873V17.7919L134.646 17.0646L129.873 18.5538ZM128.625 14.5538V9.55384H121.827L123.852 16.043L128.625 14.5538ZM134.673 14.5538H139.673V9.55384H134.673V14.5538ZM134.673 25.4338H129.673V28.3124L132.162 29.7578L134.673 25.4338ZM136.657 26.5858L134.146 30.9098L136.677 32.3795L139.198 30.8919L136.657 26.5858ZM138.609 25.4338L141.15 29.7399L143.609 28.2888V25.4338H138.609ZM138.609 18.5538H143.609V17.8106L143.393 17.0996L138.609 18.5538ZM137.393 19.5538C137.397 19.5538 137.401 19.5538 137.405 19.5538C137.409 19.5538 137.412 19.5538 137.416 19.5538C137.42 19.5538 137.424 19.5538 137.428 19.5538C137.432 19.5538 137.436 19.5538 137.44 19.5538C137.444 19.5538 137.448 19.5538 137.452 19.5538C137.456 19.5538 137.46 19.5538 137.464 19.5538C137.468 19.5538 137.472 19.5538 137.475 19.5538C137.479 19.5538 137.483 19.5538 137.487 19.5538C137.491 19.5538 137.495 19.5538 137.499 19.5538C137.503 19.5538 137.507 19.5538 137.511 19.5538C137.515 19.5538 137.519 19.5538 137.523 19.5538C137.527 19.5538 137.531 19.5538 137.535 19.5538C137.538 19.5538 137.542 19.5538 137.546 19.5538C137.55 19.5538 137.554 19.5538 137.558 19.5538C137.562 19.5538 137.566 19.5538 137.57 19.5538C137.574 19.5538 137.578 19.5538 137.582 19.5538C137.586 19.5538 137.59 19.5538 137.594 19.5538C137.598 19.5538 137.601 19.5538 137.605 19.5538C137.609 19.5538 137.613 19.5538 137.617 19.5538C137.621 19.5538 137.625 19.5538 137.629 19.5538C137.633 19.5538 137.637 19.5538 137.641 19.5538C137.645 19.5538 137.649 19.5538 137.653 19.5538C137.657 19.5538 137.661 19.5538 137.664 19.5538C137.668 19.5538 137.672 19.5538 137.676 19.5538C137.68 19.5538 137.684 19.5538 137.688 19.5538C137.692 19.5538 137.696 19.5538 137.7 19.5538C137.704 19.5538 137.708 19.5538 137.712 19.5538C137.716 19.5538 137.72 19.5538 137.724 19.5538C137.727 19.5538 137.731 19.5538 137.735 19.5538C137.739 19.5538 137.743 19.5538 137.747 19.5538C137.751 19.5538 137.755 19.5538 137.759 19.5538C137.763 19.5538 137.767 19.5538 137.771 19.5538C137.775 19.5538 137.779 19.5538 137.783 19.5538C137.787 19.5538 137.79 19.5538 137.794 19.5538C137.798 19.5538 137.802 19.5538 137.806 19.5538C137.81 19.5538 137.814 19.5538 137.818 19.5538C137.822 19.5538 137.826 19.5538 137.83 19.5538C137.834 19.5538 137.838 19.5538 137.842 19.5538C137.846 19.5538 137.85 19.5538 137.853 19.5538C137.857 19.5538 137.861 19.5538 137.865 19.5538C137.869 19.5538 137.873 19.5538 137.877 19.5538C137.881 19.5538 137.885 19.5538 137.889 19.5538C137.893 19.5538 137.897 19.5538 137.901 19.5538C137.905 19.5538 137.909 19.5538 137.913 19.5538C137.916 19.5538 137.92 19.5538 137.924 19.5538C137.928 19.5538 137.932 19.5538 137.936 19.5538C137.94 19.5538 137.944 19.5538 137.948 19.5538C137.952 19.5538 137.956 19.5538 137.96 19.5538C137.964 19.5538 137.968 19.5538 137.972 19.5538C137.976 19.5538 137.979 19.5538 137.983 19.5538C137.987 19.5538 137.991 19.5538 137.995 19.5538C137.999 19.5538 138.003 19.5538 138.007 19.5538C138.011 19.5538 138.015 19.5538 138.019 19.5538C138.023 19.5538 138.027 19.5538 138.031 19.5538C138.035 19.5538 138.039 19.5538 138.042 19.5538C138.046 19.5538 138.05 19.5538 138.054 19.5538C138.058 19.5538 138.062 19.5538 138.066 19.5538C138.07 19.5538 138.074 19.5538 138.078 19.5538C138.082 19.5538 138.086 19.5538 138.09 19.5538C138.094 19.5538 138.098 19.5538 138.102 19.5538C138.105 19.5538 138.109 19.5538 138.113 19.5538C138.117 19.5538 138.121 19.5538 138.125 19.5538C138.129 19.5538 138.133 19.5538 138.137 19.5538C138.141 19.5538 138.145 19.5538 138.149 19.5538C138.153 19.5538 138.157 19.5538 138.161 19.5538C138.165 19.5538 138.168 19.5538 138.172 19.5538C138.176 19.5538 138.18 19.5538 138.184 19.5538C138.188 19.5538 138.192 19.5538 138.196 19.5538C138.2 19.5538 138.204 19.5538 138.208 19.5538C138.212 19.5538 138.216 19.5538 138.22 19.5538C138.224 19.5538 138.228 19.5538 138.231 19.5538C138.235 19.5538 138.239 19.5538 138.243 19.5538C138.247 19.5538 138.251 19.5538 138.255 19.5538C138.259 19.5538 138.263 19.5538 138.267 19.5538C138.271 19.5538 138.275 19.5538 138.279 19.5538C138.283 19.5538 138.287 19.5538 138.291 19.5538C138.294 19.5538 138.298 19.5538 138.302 19.5538C138.306 19.5538 138.31 19.5538 138.314 19.5538C138.318 19.5538 138.322 19.5538 138.326 19.5538C138.33 19.5538 138.334 19.5538 138.338 19.5538C138.342 19.5538 138.346 19.5538 138.35 19.5538C138.354 19.5538 138.357 19.5538 138.361 19.5538C138.365 19.5538 138.369 19.5538 138.373 19.5538C138.377 19.5538 138.381 19.5538 138.385 19.5538C138.389 19.5538 138.393 19.5538 138.397 19.5538C138.401 19.5538 138.405 19.5538 138.409 19.5538C138.413 19.5538 138.417 19.5538 138.42 19.5538C138.424 19.5538 138.428 19.5538 138.432 19.5538C138.436 19.5538 138.44 19.5538 138.444 19.5538C138.448 19.5538 138.452 19.5538 138.456 19.5538C138.46 19.5538 138.464 19.5538 138.468 19.5538C138.472 19.5538 138.476 19.5538 138.48 19.5538C138.483 19.5538 138.487 19.5538 138.491 19.5538C138.495 19.5538 138.499 19.5538 138.503 19.5538C138.507 19.5538 138.511 19.5538 138.515 19.5538C138.519 19.5538 138.523 19.5538 138.527 19.5538C138.531 19.5538 138.535 19.5538 138.539 19.5538C138.543 19.5538 138.546 19.5538 138.55 19.5538C138.554 19.5538 138.558 19.5538 138.562 19.5538C138.566 19.5538 138.57 19.5538 138.574 19.5538C138.578 19.5538 138.582 19.5538 138.586 19.5538C138.59 19.5538 138.594 19.5538 138.598 19.5538C138.602 19.5538 138.606 19.5538 138.609 19.5538C138.613 19.5538 138.617 19.5538 138.621 19.5538C138.625 19.5538 138.629 19.5538 138.633 19.5538C138.637 19.5538 138.641 19.5538 138.645 19.5538C138.649 19.5538 138.653 19.5538 138.657 19.5538C138.661 19.5538 138.665 19.5538 138.669 19.5538C138.672 19.5538 138.676 19.5538 138.68 19.5538C138.684 19.5538 138.688 19.5538 138.692 19.5538C138.696 19.5538 138.7 19.5538 138.704 19.5538C138.708 19.5538 138.712 19.5538 138.716 19.5538C138.72 19.5538 138.724 19.5538 138.728 19.5538C138.732 19.5538 138.735 19.5538 138.739 19.5538C138.743 19.5538 138.747 19.5538 138.751 19.5538C138.755 19.5538 138.759 19.5538 138.763 19.5538C138.767 19.5538 138.771 19.5538 138.775 19.5538C138.779 19.5538 138.783 19.5538 138.787 19.5538C138.791 19.5538 138.795 19.5538 138.799 19.5538C138.802 19.5538 138.806 19.5538 138.81 19.5538C138.814 19.5538 138.818 19.5538 138.822 19.5538C138.826 19.5538 138.83 19.5538 138.834 19.5538C138.838 19.5538 138.842 19.5538 138.846 19.5538C138.85 19.5538 138.854 19.5538 138.858 19.5538C138.861 19.5538 138.865 19.5538 138.869 19.5538C138.873 19.5538 138.877 19.5538 138.881 19.5538C138.885 19.5538 138.889 19.5538 138.893 19.5538C138.897 19.5538 138.901 19.5538 138.905 19.5538C138.909 19.5538 138.913 19.5538 138.917 19.5538C138.921 19.5538 138.924 19.5538 138.928 19.5538C138.932 19.5538 138.936 19.5538 138.94 19.5538C138.944 19.5538 138.948 19.5538 138.952 19.5538C138.956 19.5538 138.96 19.5538 138.964 19.5538C138.968 19.5538 138.972 19.5538 138.976 19.5538C138.98 19.5538 138.984 19.5538 138.987 19.5538C138.991 19.5538 138.995 19.5538 138.999 19.5538C139.003 19.5538 139.007 19.5538 139.011 19.5538C139.015 19.5538 139.019 19.5538 139.023 19.5538C139.027 19.5538 139.031 19.5538 139.035 19.5538C139.039 19.5538 139.043 19.5538 139.047 19.5538C139.05 19.5538 139.054 19.5538 139.058 19.5538C139.062 19.5538 139.066 19.5538 139.07 19.5538C139.074 19.5538 139.078 19.5538 139.082 19.5538C139.086 19.5538 139.09 19.5538 139.094 19.5538C139.098 19.5538 139.102 19.5538 139.106 19.5538C139.11 19.5538 139.113 19.5538 139.117 19.5538C139.121 19.5538 139.125 19.5538 139.129 19.5538C139.133 19.5538 139.137 19.5538 139.141 19.5538C139.145 19.5538 139.149 19.5538 139.153 19.5538C139.157 19.5538 139.161 19.5538 139.165 19.5538C139.169 19.5538 139.173 19.5538 139.176 19.5538C139.18 19.5538 139.184 19.5538 139.188 19.5538C139.192 19.5538 139.196 19.5538 139.2 19.5538C139.204 19.5538 139.208 19.5538 139.212 19.5538C139.216 19.5538 139.22 19.5538 139.224 19.5538C139.228 19.5538 139.232 19.5538 139.236 19.5538C139.239 19.5538 139.243 19.5538 139.247 19.5538C139.251 19.5538 139.255 19.5538 139.259 19.5538C139.263 19.5538 139.267 19.5538 139.271 19.5538C139.275 19.5538 139.279 19.5538 139.283 19.5538C139.287 19.5538 139.291 19.5538 139.295 19.5538C139.299 19.5538 139.302 19.5538 139.306 19.5538C139.31 19.5538 139.314 19.5538 139.318 19.5538C139.322 19.5538 139.326 19.5538 139.33 19.5538C139.334 19.5538 139.338 19.5538 139.342 19.5538C139.346 19.5538 139.35 19.5538 139.354 19.5538C139.358 19.5538 139.362 19.5538 139.365 19.5538C139.369 19.5538 139.373 19.5538 139.377 19.5538C139.381 19.5538 139.385 19.5538 139.389 19.5538C139.393 19.5538 139.397 19.5538 139.401 19.5538C139.405 19.5538 139.409 19.5538 139.413 19.5538C139.417 19.5538 139.421 19.5538 139.425 19.5538C139.428 19.5538 139.432 19.5538 139.436 19.5538C139.44 19.5538 139.444 19.5538 139.448 19.5538C139.452 19.5538 139.456 19.5538 139.46 19.5538C139.464 19.5538 139.468 19.5538 139.472 19.5538C139.476 19.5538 139.48 19.5538 139.484 19.5538C139.488 19.5538 139.491 19.5538 139.495 19.5538C139.499 19.5538 139.503 19.5538 139.507 19.5538C139.511 19.5538 139.515 19.5538 139.519 19.5538C139.523 19.5538 139.527 19.5538 139.531 19.5538C139.535 19.5538 139.539 19.5538 139.543 19.5538C139.547 19.5538 139.551 19.5538 139.554 19.5538C139.558 19.5538 139.562 19.5538 139.566 19.5538C139.57 19.5538 139.574 19.5538 139.578 19.5538C139.582 19.5538 139.586 19.5538 139.59 19.5538C139.594 19.5538 139.598 19.5538 139.602 19.5538C139.606 19.5538 139.61 19.5538 139.614 19.5538C139.617 19.5538 139.621 19.5538 139.625 19.5538C139.629 19.5538 139.633 19.5538 139.637 19.5538C139.641 19.5538 139.645 19.5538 139.649 19.5538C139.653 19.5538 139.657 19.5538 139.661 19.5538C139.665 19.5538 139.669 19.5538 139.673 19.5538C139.677 19.5538 139.68 19.5538 139.684 19.5538C139.688 19.5538 139.692 19.5538 139.696 19.5538C139.7 19.5538 139.704 19.5538 139.708 19.5538C139.712 19.5538 139.716 19.5538 139.72 19.5538C139.724 19.5538 139.728 19.5538 139.732 19.5538C139.736 19.5538 139.74 19.5538 139.743 19.5538C139.747 19.5538 139.751 19.5538 139.755 19.5538C139.759 19.5538 139.763 19.5538 139.767 19.5538C139.771 19.5538 139.775 19.5538 139.779 19.5538C139.783 19.5538 139.787 19.5538 139.791 19.5538C139.795 19.5538 139.799 19.5538 139.803 19.5538C139.806 19.5538 139.81 19.5538 139.814 19.5538C139.818 19.5538 139.822 19.5538 139.826 19.5538C139.83 19.5538 139.834 19.5538 139.838 19.5538C139.842 19.5538 139.846 19.5538 139.85 19.5538C139.854 19.5538 139.858 19.5538 139.862 19.5538C139.866 19.5538 139.869 19.5538 139.873 19.5538C139.877 19.5538 139.881 19.5538 139.885 19.5538C139.889 19.5538 139.893 19.5538 139.897 19.5538C139.901 19.5538 139.905 19.5538 139.909 19.5538C139.913 19.5538 139.917 19.5538 139.921 19.5538C139.925 19.5538 139.929 19.5538 139.932 19.5538C139.936 19.5538 139.94 19.5538 139.944 19.5538C139.948 19.5538 139.952 19.5538 139.956 19.5538C139.96 19.5538 139.964 19.5538 139.968 19.5538C139.972 19.5538 139.976 19.5538 139.98 19.5538C139.984 19.5538 139.988 19.5538 139.992 19.5538C139.995 19.5538 139.999 19.5538 140.003 19.5538C140.007 19.5538 140.011 19.5538 140.015 19.5538C140.019 19.5538 140.023 19.5538 140.027 19.5538C140.031 19.5538 140.035 19.5538 140.039 19.5538C140.043 19.5538 140.047 19.5538 140.051 19.5538C140.055 19.5538 140.058 19.5538 140.062 19.5538C140.066 19.5538 140.07 19.5538 140.074 19.5538C140.078 19.5538 140.082 19.5538 140.086 19.5538C140.09 19.5538 140.094 19.5538 140.098 19.5538C140.102 19.5538 140.106 19.5538 140.11 19.5538C140.114 19.5538 140.118 19.5538 140.121 19.5538C140.125 19.5538 140.129 19.5538 140.133 19.5538C140.137 19.5538 140.141 19.5538 140.145 19.5538C140.149 19.5538 140.153 19.5538 140.157 19.5538C140.161 19.5538 140.165 19.5538 140.169 19.5538C140.173 19.5538 140.177 19.5538 140.181 19.5538C140.184 19.5538 140.188 19.5538 140.192 19.5538C140.196 19.5538 140.2 19.5538 140.204 19.5538C140.208 19.5538 140.212 19.5538 140.216 19.5538C140.22 19.5538 140.224 19.5538 140.228 19.5538C140.232 19.5538 140.236 19.5538 140.24 19.5538C140.244 19.5538 140.247 19.5538 140.251 19.5538C140.255 19.5538 140.259 19.5538 140.263 19.5538C140.267 19.5538 140.271 19.5538 140.275 19.5538C140.279 19.5538 140.283 19.5538 140.287 19.5538C140.291 19.5538 140.295 19.5538 140.299 19.5538C140.303 19.5538 140.307 19.5538 140.31 19.5538C140.314 19.5538 140.318 19.5538 140.322 19.5538C140.326 19.5538 140.33 19.5538 140.334 19.5538C140.338 19.5538 140.342 19.5538 140.346 19.5538C140.35 19.5538 140.354 19.5538 140.358 19.5538C140.362 19.5538 140.366 19.5538 140.37 19.5538C140.373 19.5538 140.377 19.5538 140.381 19.5538C140.385 19.5538 140.389 19.5538 140.393 19.5538C140.397 19.5538 140.401 19.5538 140.405 19.5538C140.409 19.5538 140.413 19.5538 140.417 19.5538C140.421 19.5538 140.425 19.5538 140.429 19.5538C140.433 19.5538 140.436 19.5538 140.44 19.5538C140.444 19.5538 140.448 19.5538 140.452 19.5538C140.456 19.5538 140.46 19.5538 140.464 19.5538C140.468 19.5538 140.472 19.5538 140.476 19.5538C140.48 19.5538 140.484 19.5538 140.488 19.5538C140.492 19.5538 140.496 19.5538 140.499 19.5538C140.503 19.5538 140.507 19.5538 140.511 19.5538C140.515 19.5538 140.519 19.5538 140.523 19.5538C140.527 19.5538 140.531 19.5538 140.535 19.5538C140.539 19.5538 140.543 19.5538 140.547 19.5538C140.551 19.5538 140.555 19.5538 140.559 19.5538C140.562 19.5538 140.566 19.5538 140.57 19.5538C140.574 19.5538 140.578 19.5538 140.582 19.5538C140.586 19.5538 140.59 19.5538 140.594 19.5538C140.598 19.5538 140.602 19.5538 140.606 19.5538C140.61 19.5538 140.614 19.5538 140.618 19.5538C140.622 19.5538 140.625 19.5538 140.629 19.5538C140.633 19.5538 140.637 19.5538 140.641 19.5538C140.645 19.5538 140.649 19.5538 140.653 19.5538C140.657 19.5538 140.661 19.5538 140.665 19.5538C140.669 19.5538 140.673 19.5538 140.677 19.5538C140.681 19.5538 140.685 19.5538 140.688 19.5538C140.692 19.5538 140.696 19.5538 140.7 19.5538C140.704 19.5538 140.708 19.5538 140.712 19.5538C140.716 19.5538 140.72 19.5538 140.724 19.5538C140.728 19.5538 140.732 19.5538 140.736 19.5538C140.74 19.5538 140.744 19.5538 140.748 19.5538C140.751 19.5538 140.755 19.5538 140.759 19.5538C140.763 19.5538 140.767 19.5538 140.771 19.5538C140.775 19.5538 140.779 19.5538 140.783 19.5538C140.787 19.5538 140.791 19.5538 140.795 19.5538C140.799 19.5538 140.803 19.5538 140.807 19.5538C140.811 19.5538 140.814 19.5538 140.818 19.5538C140.822 19.5538 140.826 19.5538 140.83 19.5538C140.834 19.5538 140.838 19.5538 140.842 19.5538C140.846 19.5538 140.85 19.5538 140.854 19.5538C140.858 19.5538 140.862 19.5538 140.866 19.5538C140.87 19.5538 140.874 19.5538 140.877 19.5538C140.881 19.5538 140.885 19.5538 140.889 19.5538C140.893 19.5538 140.897 19.5538 140.901 19.5538C140.905 19.5538 140.909 19.5538 140.913 19.5538C140.917 19.5538 140.921 19.5538 140.925 19.5538C140.929 19.5538 140.933 19.5538 140.937 19.5538C140.94 19.5538 140.944 19.5538 140.948 19.5538C140.952 19.5538 140.956 19.5538 140.96 19.5538C140.964 19.5538 140.968 19.5538 140.972 19.5538C140.976 19.5538 140.98 19.5538 140.984 19.5538C140.988 19.5538 140.992 19.5538 140.996 19.5538C141 19.5538 141.003 19.5538 141.007 19.5538C141.011 19.5538 141.015 19.5538 141.019 19.5538C141.023 19.5538 141.027 19.5538 141.031 19.5538C141.035 19.5538 141.039 19.5538 141.043 19.5538C141.047 19.5538 141.051 19.5538 141.055 19.5538C141.059 19.5538 141.063 19.5538 141.066 19.5538C141.07 19.5538 141.074 19.5538 141.078 19.5538C141.082 19.5538 141.086 19.5538 141.09 19.5538C141.094 19.5538 141.098 19.5538 141.102 19.5538C141.106 19.5538 141.11 19.5538 141.114 19.5538C141.118 19.5538 141.122 19.5538 141.126 19.5538C141.129 19.5538 141.133 19.5538 141.137 19.5538C141.141 19.5538 141.145 19.5538 141.149 19.5538C141.153 19.5538 141.157 19.5538 141.161 19.5538C141.165 19.5538 141.169 19.5538 141.173 19.5538C141.177 19.5538 141.181 19.5538 141.185 19.5538C141.189 19.5538 141.192 19.5538 141.196 19.5538C141.2 19.5538 141.204 19.5538 141.208 19.5538C141.212 19.5538 141.216 19.5538 141.22 19.5538C141.224 19.5538 141.228 19.5538 141.232 19.5538C141.236 19.5538 141.24 19.5538 141.244 19.5538C141.248 19.5538 141.252 19.5538 141.255 19.5538C141.259 19.5538 141.263 19.5538 141.267 19.5538C141.271 19.5538 141.275 19.5538 141.279 19.5538C141.283 19.5538 141.287 19.5538 141.291 19.5538C141.295 19.5538 141.299 19.5538 141.303 19.5538C141.307 19.5538 141.311 19.5538 141.315 19.5538C141.318 19.5538 141.322 19.5538 141.326 19.5538C141.33 19.5538 141.334 19.5538 141.338 19.5538C141.342 19.5538 141.346 19.5538 141.35 19.5538C141.354 19.5538 141.358 19.5538 141.362 19.5538C141.366 19.5538 141.37 19.5538 141.374 19.5538C141.378 19.5538 141.382 19.5538 141.385 19.5538C141.389 19.5538 141.393 19.5538 141.397 19.5538C141.401 19.5538 141.405 19.5538 141.409 19.5538C141.413 19.5538 141.417 19.5538 141.421 19.5538C141.425 19.5538 141.429 19.5538 141.433 19.5538C141.437 19.5538 141.441 19.5538 141.444 19.5538C141.448 19.5538 141.452 19.5538 141.456 19.5538C141.46 19.5538 141.464 19.5538 141.468 19.5538C141.472 19.5538 141.476 19.5538 141.48 19.5538C141.484 19.5538 141.488 19.5538 141.492 19.5538C141.496 19.5538 141.5 19.5538 141.504 19.5538C141.507 19.5538 141.511 19.5538 141.515 19.5538C141.519 19.5538 141.523 19.5538 141.527 19.5538C141.531 19.5538 141.535 19.5538 141.539 19.5538C141.543 19.5538 141.547 19.5538 141.551 19.5538C141.555 19.5538 141.559 19.5538 141.563 19.5538C141.567 19.5538 141.57 19.5538 141.574 19.5538C141.578 19.5538 141.582 19.5538 141.586 19.5538C141.59 19.5538 141.594 19.5538 141.598 19.5538C141.602 19.5538 141.606 19.5538 141.61 19.5538C141.614 19.5538 141.618 19.5538 141.622 19.5538C141.626 19.5538 141.63 19.5538 141.633 19.5538C141.637 19.5538 141.641 19.5538 141.645 19.5538C141.649 19.5538 141.653 19.5538 141.657 19.5538C141.661 19.5538 141.665 19.5538 141.669 19.5538C141.673 19.5538 141.677 19.5538 141.681 19.5538C141.685 19.5538 141.689 19.5538 141.693 19.5538C141.696 19.5538 141.7 19.5538 141.704 19.5538C141.708 19.5538 141.712 19.5538 141.716 19.5538C141.72 19.5538 141.724 19.5538 141.728 19.5538C141.732 19.5538 141.736 19.5538 141.74 19.5538C141.744 19.5538 141.748 19.5538 141.752 19.5538C141.756 19.5538 141.759 19.5538 141.763 19.5538C141.767 19.5538 141.771 19.5538 141.775 19.5538C141.779 19.5538 141.783 19.5538 141.787 19.5538C141.791 19.5538 141.795 19.5538 141.799 19.5538C141.803 19.5538 141.807 19.5538 141.811 19.5538C141.815 19.5538 141.819 19.5538 141.822 19.5538C141.826 19.5538 141.83 19.5538 141.834 19.5538C141.838 19.5538 141.842 19.5538 141.846 19.5538C141.85 19.5538 141.854 19.5538 141.858 19.5538C141.862 19.5538 141.866 19.5538 141.87 19.5538C141.874 19.5538 141.878 19.5538 141.882 19.5538C141.885 19.5538 141.889 19.5538 141.893 19.5538C141.897 19.5538 141.901 19.5538 141.905 19.5538C141.909 19.5538 141.913 19.5538 141.917 19.5538C141.921 19.5538 141.925 19.5538 141.929 19.5538C141.933 19.5538 141.937 19.5538 141.941 19.5538C141.945 19.5538 141.948 19.5538 141.952 19.5538C141.956 19.5538 141.96 19.5538 141.964 19.5538C141.968 19.5538 141.972 19.5538 141.976 19.5538C141.98 19.5538 141.984 19.5538 141.988 19.5538C141.992 19.5538 141.996 19.5538 142 19.5538C142.004 19.5538 142.008 19.5538 142.011 19.5538C142.015 19.5538 142.019 19.5538 142.023 19.5538C142.027 19.5538 142.031 19.5538 142.035 19.5538C142.039 19.5538 142.043 19.5538 142.047 19.5538C142.051 19.5538 142.055 19.5538 142.059 19.5538C142.063 19.5538 142.067 19.5538 142.071 19.5538C142.074 19.5538 142.078 19.5538 142.082 19.5538C142.086 19.5538 142.09 19.5538 142.094 19.5538C142.098 19.5538 142.102 19.5538 142.106 19.5538C142.11 19.5538 142.114 19.5538 142.118 19.5538C142.122 19.5538 142.126 19.5538 142.13 19.5538C142.134 19.5538 142.137 19.5538 142.141 19.5538C142.145 19.5538 142.149 19.5538 142.153 19.5538C142.157 19.5538 142.161 19.5538 142.165 19.5538C142.169 19.5538 142.173 19.5538 142.177 19.5538C142.181 19.5538 142.185 19.5538 142.189 19.5538C142.193 19.5538 142.197 19.5538 142.201 19.5538C142.204 19.5538 142.208 19.5538 142.212 19.5538C142.216 19.5538 142.22 19.5538 142.224 19.5538C142.228 19.5538 142.232 19.5538 142.236 19.5538C142.24 19.5538 142.244 19.5538 142.248 19.5538C142.252 19.5538 142.256 19.5538 142.26 19.5538C142.263 19.5538 142.267 19.5538 142.271 19.5538C142.275 19.5538 142.279 19.5538 142.283 19.5538C142.287 19.5538 142.291 19.5538 142.295 19.5538C142.299 19.5538 142.303 19.5538 142.307 19.5538C142.311 19.5538 142.315 19.5538 142.319 19.5538C142.323 19.5538 142.326 19.5538 142.33 19.5538C142.334 19.5538 142.338 19.5538 142.342 19.5538C142.346 19.5538 142.35 19.5538 142.354 19.5538C142.358 19.5538 142.362 19.5538 142.366 19.5538C142.37 19.5538 142.374 19.5538 142.378 19.5538C142.382 19.5538 142.386 19.5538 142.389 19.5538C142.393 19.5538 142.397 19.5538 142.401 19.5538C142.405 19.5538 142.409 19.5538 142.413 19.5538C142.417 19.5538 142.421 19.5538 142.425 19.5538C142.429 19.5538 142.433 19.5538 142.437 19.5538C142.441 19.5538 142.445 19.5538 142.449 19.5538C142.452 19.5538 142.456 19.5538 142.46 19.5538C142.464 19.5538 142.468 19.5538 142.472 19.5538C142.476 19.5538 142.48 19.5538 142.484 19.5538C142.488 19.5538 142.492 19.5538 142.496 19.5538C142.5 19.5538 142.504 19.5538 142.508 19.5538C142.512 19.5538 142.515 19.5538 142.519 19.5538C142.523 19.5538 142.527 19.5538 142.531 19.5538C142.535 19.5538 142.539 19.5538 142.543 19.5538C142.547 19.5538 142.551 19.5538 142.555 19.5538C142.559 19.5538 142.563 19.5538 142.567 19.5538C142.571 19.5538 142.575 19.5538 142.578 19.5538C142.582 19.5538 142.586 19.5538 142.59 19.5538C142.594 19.5538 142.598 19.5538 142.602 19.5538C142.606 19.5538 142.61 19.5538 142.614 19.5538C142.618 19.5538 142.622 19.5538 142.626 19.5538C142.63 19.5538 142.634 19.5538 142.638 19.5538C142.641 19.5538 142.645 19.5538 142.649 19.5538C142.653 19.5538 142.657 19.5538 142.661 19.5538C142.665 19.5538 142.669 19.5538 142.673 19.5538C142.677 19.5538 142.681 19.5538 142.685 19.5538C142.689 19.5538 142.693 19.5538 142.697 19.5538C142.701 19.5538 142.704 19.5538 142.708 19.5538C142.712 19.5538 142.716 19.5538 142.72 19.5538C142.724 19.5538 142.728 19.5538 142.732 19.5538C142.736 19.5538 142.74 19.5538 142.744 19.5538C142.748 19.5538 142.752 19.5538 142.756 19.5538C142.76 19.5538 142.764 19.5538 142.767 19.5538C142.771 19.5538 142.775 19.5538 142.779 19.5538C142.783 19.5538 142.787 19.5538 142.791 19.5538C142.795 19.5538 142.799 19.5538 142.803 19.5538C142.807 19.5538 142.811 19.5538 142.815 19.5538C142.819 19.5538 142.823 19.5538 142.827 19.5538C142.83 19.5538 142.834 19.5538 142.838 19.5538C142.842 19.5538 142.846 19.5538 142.85 19.5538C142.854 19.5538 142.858 19.5538 142.862 19.5538C142.866 19.5538 142.87 19.5538 142.874 19.5538C142.878 19.5538 142.882 19.5538 142.886 19.5538C142.89 19.5538 142.893 19.5538 142.897 19.5538C142.901 19.5538 142.905 19.5538 142.909 19.5538C142.913 19.5538 142.917 19.5538 142.921 19.5538C142.925 19.5538 142.929 19.5538 142.933 19.5538C142.937 19.5538 142.941 19.5538 142.945 19.5538C142.949 19.5538 142.953 19.5538 142.956 19.5538C142.96 19.5538 142.964 19.5538 142.968 19.5538C142.972 19.5538 142.976 19.5538 142.98 19.5538C142.984 19.5538 142.988 19.5538 142.992 19.5538C142.996 19.5538 143 19.5538 143.004 19.5538C143.008 19.5538 143.012 19.5538 143.016 19.5538C143.019 19.5538 143.023 19.5538 143.027 19.5538C143.031 19.5538 143.035 19.5538 143.039 19.5538C143.043 19.5538 143.047 19.5538 143.051 19.5538C143.055 19.5538 143.059 19.5538 143.063 19.5538C143.067 19.5538 143.071 19.5538 143.075 19.5538C143.079 19.5538 143.082 19.5538 143.086 19.5538C143.09 19.5538 143.094 19.5538 143.098 19.5538C143.102 19.5538 143.106 19.5538 143.11 19.5538C143.114 19.5538 143.118 19.5538 143.122 19.5538C143.126 19.5538 143.13 19.5538 143.134 19.5538C143.138 19.5538 143.142 19.5538 143.146 19.5538C143.149 19.5538 143.153 19.5538 143.157 19.5538C143.161 19.5538 143.165 19.5538 143.169 19.5538C143.173 19.5538 143.177 19.5538 143.181 19.5538C143.185 19.5538 143.189 19.5538 143.193 19.5538C143.197 19.5538 143.201 19.5538 143.205 19.5538C143.208 19.5538 143.212 19.5538 143.216 19.5538C143.22 19.5538 143.224 19.5538 143.228 19.5538C143.232 19.5538 143.236 19.5538 143.24 19.5538C143.244 19.5538 143.248 19.5538 143.252 19.5538C143.256 19.5538 143.26 19.5538 143.264 19.5538C143.268 19.5538 143.271 19.5538 143.275 19.5538C143.279 19.5538 143.283 19.5538 143.287 19.5538C143.291 19.5538 143.295 19.5538 143.299 19.5538C143.303 19.5538 143.307 19.5538 143.311 19.5538C143.315 19.5538 143.319 19.5538 143.323 19.5538C143.327 19.5538 143.331 19.5538 143.334 19.5538C143.338 19.5538 143.342 19.5538 143.346 19.5538C143.35 19.5538 143.354 19.5538 143.358 19.5538C143.362 19.5538 143.366 19.5538 143.37 19.5538C143.374 19.5538 143.378 19.5538 143.382 19.5538C143.386 19.5538 143.39 19.5538 143.394 19.5538C143.397 19.5538 143.401 19.5538 143.405 19.5538C143.409 19.5538 143.413 19.5538 143.417 19.5538C143.421 19.5538 143.425 19.5538 143.429 19.5538C143.433 19.5538 143.437 19.5538 143.441 19.5538V9.55384C143.437 9.55384 143.433 9.55384 143.429 9.55384C143.425 9.55384 143.421 9.55384 143.417 9.55384C143.413 9.55384 143.409 9.55384 143.405 9.55384C143.401 9.55384 143.397 9.55384 143.394 9.55384C143.39 9.55384 143.386 9.55384 143.382 9.55384C143.378 9.55384 143.374 9.55384 143.37 9.55384C143.366 9.55384 143.362 9.55384 143.358 9.55384C143.354 9.55384 143.35 9.55384 143.346 9.55384C143.342 9.55384 143.338 9.55384 143.334 9.55384C143.331 9.55384 143.327 9.55384 143.323 9.55384C143.319 9.55384 143.315 9.55384 143.311 9.55384C143.307 9.55384 143.303 9.55384 143.299 9.55384C143.295 9.55384 143.291 9.55384 143.287 9.55384C143.283 9.55384 143.279 9.55384 143.275 9.55384C143.271 9.55384 143.268 9.55384 143.264 9.55384C143.26 9.55384 143.256 9.55384 143.252 9.55384C143.248 9.55384 143.244 9.55384 143.24 9.55384C143.236 9.55384 143.232 9.55384 143.228 9.55384C143.224 9.55384 143.22 9.55384 143.216 9.55384C143.212 9.55384 143.208 9.55384 143.205 9.55384C143.201 9.55384 143.197 9.55384 143.193 9.55384C143.189 9.55384 143.185 9.55384 143.181 9.55384C143.177 9.55384 143.173 9.55384 143.169 9.55384C143.165 9.55384 143.161 9.55384 143.157 9.55384C143.153 9.55384 143.149 9.55384 143.146 9.55384C143.142 9.55384 143.138 9.55384 143.134 9.55384C143.13 9.55384 143.126 9.55384 143.122 9.55384C143.118 9.55384 143.114 9.55384 143.11 9.55384C143.106 9.55384 143.102 9.55384 143.098 9.55384C143.094 9.55384 143.09 9.55384 143.086 9.55384C143.082 9.55384 143.079 9.55384 143.075 9.55384C143.071 9.55384 143.067 9.55384 143.063 9.55384C143.059 9.55384 143.055 9.55384 143.051 9.55384C143.047 9.55384 143.043 9.55384 143.039 9.55384C143.035 9.55384 143.031 9.55384 143.027 9.55384C143.023 9.55384 143.019 9.55384 143.016 9.55384C143.012 9.55384 143.008 9.55384 143.004 9.55384C143 9.55384 142.996 9.55384 142.992 9.55384C142.988 9.55384 142.984 9.55384 142.98 9.55384C142.976 9.55384 142.972 9.55384 142.968 9.55384C142.964 9.55384 142.96 9.55384 142.956 9.55384C142.953 9.55384 142.949 9.55384 142.945 9.55384C142.941 9.55384 142.937 9.55384 142.933 9.55384C142.929 9.55384 142.925 9.55384 142.921 9.55384C142.917 9.55384 142.913 9.55384 142.909 9.55384C142.905 9.55384 142.901 9.55384 142.897 9.55384C142.893 9.55384 142.89 9.55384 142.886 9.55384C142.882 9.55384 142.878 9.55384 142.874 9.55384C142.87 9.55384 142.866 9.55384 142.862 9.55384C142.858 9.55384 142.854 9.55384 142.85 9.55384C142.846 9.55384 142.842 9.55384 142.838 9.55384C142.834 9.55384 142.83 9.55384 142.827 9.55384C142.823 9.55384 142.819 9.55384 142.815 9.55384C142.811 9.55384 142.807 9.55384 142.803 9.55384C142.799 9.55384 142.795 9.55384 142.791 9.55384C142.787 9.55384 142.783 9.55384 142.779 9.55384C142.775 9.55384 142.771 9.55384 142.767 9.55384C142.764 9.55384 142.76 9.55384 142.756 9.55384C142.752 9.55384 142.748 9.55384 142.744 9.55384C142.74 9.55384 142.736 9.55384 142.732 9.55384C142.728 9.55384 142.724 9.55384 142.72 9.55384C142.716 9.55384 142.712 9.55384 142.708 9.55384C142.704 9.55384 142.701 9.55384 142.697 9.55384C142.693 9.55384 142.689 9.55384 142.685 9.55384C142.681 9.55384 142.677 9.55384 142.673 9.55384C142.669 9.55384 142.665 9.55384 142.661 9.55384C142.657 9.55384 142.653 9.55384 142.649 9.55384C142.645 9.55384 142.641 9.55384 142.638 9.55384C142.634 9.55384 142.63 9.55384 142.626 9.55384C142.622 9.55384 142.618 9.55384 142.614 9.55384C142.61 9.55384 142.606 9.55384 142.602 9.55384C142.598 9.55384 142.594 9.55384 142.59 9.55384C142.586 9.55384 142.582 9.55384 142.578 9.55384C142.575 9.55384 142.571 9.55384 142.567 9.55384C142.563 9.55384 142.559 9.55384 142.555 9.55384C142.551 9.55384 142.547 9.55384 142.543 9.55384C142.539 9.55384 142.535 9.55384 142.531 9.55384C142.527 9.55384 142.523 9.55384 142.519 9.55384C142.515 9.55384 142.512 9.55384 142.508 9.55384C142.504 9.55384 142.5 9.55384 142.496 9.55384C142.492 9.55384 142.488 9.55384 142.484 9.55384C142.48 9.55384 142.476 9.55384 142.472 9.55384C142.468 9.55384 142.464 9.55384 142.46 9.55384C142.456 9.55384 142.452 9.55384 142.449 9.55384C142.445 9.55384 142.441 9.55384 142.437 9.55384C142.433 9.55384 142.429 9.55384 142.425 9.55384C142.421 9.55384 142.417 9.55384 142.413 9.55384C142.409 9.55384 142.405 9.55384 142.401 9.55384C142.397 9.55384 142.393 9.55384 142.389 9.55384C142.386 9.55384 142.382 9.55384 142.378 9.55384C142.374 9.55384 142.37 9.55384 142.366 9.55384C142.362 9.55384 142.358 9.55384 142.354 9.55384C142.35 9.55384 142.346 9.55384 142.342 9.55384C142.338 9.55384 142.334 9.55384 142.33 9.55384C142.326 9.55384 142.323 9.55384 142.319 9.55384C142.315 9.55384 142.311 9.55384 142.307 9.55384C142.303 9.55384 142.299 9.55384 142.295 9.55384C142.291 9.55384 142.287 9.55384 142.283 9.55384C142.279 9.55384 142.275 9.55384 142.271 9.55384C142.267 9.55384 142.263 9.55384 142.26 9.55384C142.256 9.55384 142.252 9.55384 142.248 9.55384C142.244 9.55384 142.24 9.55384 142.236 9.55384C142.232 9.55384 142.228 9.55384 142.224 9.55384C142.22 9.55384 142.216 9.55384 142.212 9.55384C142.208 9.55384 142.204 9.55384 142.201 9.55384C142.197 9.55384 142.193 9.55384 142.189 9.55384C142.185 9.55384 142.181 9.55384 142.177 9.55384C142.173 9.55384 142.169 9.55384 142.165 9.55384C142.161 9.55384 142.157 9.55384 142.153 9.55384C142.149 9.55384 142.145 9.55384 142.141 9.55384C142.137 9.55384 142.134 9.55384 142.13 9.55384C142.126 9.55384 142.122 9.55384 142.118 9.55384C142.114 9.55384 142.11 9.55384 142.106 9.55384C142.102 9.55384 142.098 9.55384 142.094 9.55384C142.09 9.55384 142.086 9.55384 142.082 9.55384C142.078 9.55384 142.074 9.55384 142.071 9.55384C142.067 9.55384 142.063 9.55384 142.059 9.55384C142.055 9.55384 142.051 9.55384 142.047 9.55384C142.043 9.55384 142.039 9.55384 142.035 9.55384C142.031 9.55384 142.027 9.55384 142.023 9.55384C142.019 9.55384 142.015 9.55384 142.011 9.55384C142.008 9.55384 142.004 9.55384 142 9.55384C141.996 9.55384 141.992 9.55384 141.988 9.55384C141.984 9.55384 141.98 9.55384 141.976 9.55384C141.972 9.55384 141.968 9.55384 141.964 9.55384C141.96 9.55384 141.956 9.55384 141.952 9.55384C141.948 9.55384 141.945 9.55384 141.941 9.55384C141.937 9.55384 141.933 9.55384 141.929 9.55384C141.925 9.55384 141.921 9.55384 141.917 9.55384C141.913 9.55384 141.909 9.55384 141.905 9.55384C141.901 9.55384 141.897 9.55384 141.893 9.55384C141.889 9.55384 141.885 9.55384 141.882 9.55384C141.878 9.55384 141.874 9.55384 141.87 9.55384C141.866 9.55384 141.862 9.55384 141.858 9.55384C141.854 9.55384 141.85 9.55384 141.846 9.55384C141.842 9.55384 141.838 9.55384 141.834 9.55384C141.83 9.55384 141.826 9.55384 141.822 9.55384C141.819 9.55384 141.815 9.55384 141.811 9.55384C141.807 9.55384 141.803 9.55384 141.799 9.55384C141.795 9.55384 141.791 9.55384 141.787 9.55384C141.783 9.55384 141.779 9.55384 141.775 9.55384C141.771 9.55384 141.767 9.55384 141.763 9.55384C141.759 9.55384 141.756 9.55384 141.752 9.55384C141.748 9.55384 141.744 9.55384 141.74 9.55384C141.736 9.55384 141.732 9.55384 141.728 9.55384C141.724 9.55384 141.72 9.55384 141.716 9.55384C141.712 9.55384 141.708 9.55384 141.704 9.55384C141.7 9.55384 141.696 9.55384 141.693 9.55384C141.689 9.55384 141.685 9.55384 141.681 9.55384C141.677 9.55384 141.673 9.55384 141.669 9.55384C141.665 9.55384 141.661 9.55384 141.657 9.55384C141.653 9.55384 141.649 9.55384 141.645 9.55384C141.641 9.55384 141.637 9.55384 141.633 9.55384C141.63 9.55384 141.626 9.55384 141.622 9.55384C141.618 9.55384 141.614 9.55384 141.61 9.55384C141.606 9.55384 141.602 9.55384 141.598 9.55384C141.594 9.55384 141.59 9.55384 141.586 9.55384C141.582 9.55384 141.578 9.55384 141.574 9.55384C141.57 9.55384 141.567 9.55384 141.563 9.55384C141.559 9.55384 141.555 9.55384 141.551 9.55384C141.547 9.55384 141.543 9.55384 141.539 9.55384C141.535 9.55384 141.531 9.55384 141.527 9.55384C141.523 9.55384 141.519 9.55384 141.515 9.55384C141.511 9.55384 141.507 9.55384 141.504 9.55384C141.5 9.55384 141.496 9.55384 141.492 9.55384C141.488 9.55384 141.484 9.55384 141.48 9.55384C141.476 9.55384 141.472 9.55384 141.468 9.55384C141.464 9.55384 141.46 9.55384 141.456 9.55384C141.452 9.55384 141.448 9.55384 141.444 9.55384C141.441 9.55384 141.437 9.55384 141.433 9.55384C141.429 9.55384 141.425 9.55384 141.421 9.55384C141.417 9.55384 141.413 9.55384 141.409 9.55384C141.405 9.55384 141.401 9.55384 141.397 9.55384C141.393 9.55384 141.389 9.55384 141.385 9.55384C141.382 9.55384 141.378 9.55384 141.374 9.55384C141.37 9.55384 141.366 9.55384 141.362 9.55384C141.358 9.55384 141.354 9.55384 141.35 9.55384C141.346 9.55384 141.342 9.55384 141.338 9.55384C141.334 9.55384 141.33 9.55384 141.326 9.55384C141.322 9.55384 141.318 9.55384 141.315 9.55384C141.311 9.55384 141.307 9.55384 141.303 9.55384C141.299 9.55384 141.295 9.55384 141.291 9.55384C141.287 9.55384 141.283 9.55384 141.279 9.55384C141.275 9.55384 141.271 9.55384 141.267 9.55384C141.263 9.55384 141.259 9.55384 141.255 9.55384C141.252 9.55384 141.248 9.55384 141.244 9.55384C141.24 9.55384 141.236 9.55384 141.232 9.55384C141.228 9.55384 141.224 9.55384 141.22 9.55384C141.216 9.55384 141.212 9.55384 141.208 9.55384C141.204 9.55384 141.2 9.55384 141.196 9.55384C141.192 9.55384 141.189 9.55384 141.185 9.55384C141.181 9.55384 141.177 9.55384 141.173 9.55384C141.169 9.55384 141.165 9.55384 141.161 9.55384C141.157 9.55384 141.153 9.55384 141.149 9.55384C141.145 9.55384 141.141 9.55384 141.137 9.55384C141.133 9.55384 141.129 9.55384 141.126 9.55384C141.122 9.55384 141.118 9.55384 141.114 9.55384C141.11 9.55384 141.106 9.55384 141.102 9.55384C141.098 9.55384 141.094 9.55384 141.09 9.55384C141.086 9.55384 141.082 9.55384 141.078 9.55384C141.074 9.55384 141.07 9.55384 141.066 9.55384C141.063 9.55384 141.059 9.55384 141.055 9.55384C141.051 9.55384 141.047 9.55384 141.043 9.55384C141.039 9.55384 141.035 9.55384 141.031 9.55384C141.027 9.55384 141.023 9.55384 141.019 9.55384C141.015 9.55384 141.011 9.55384 141.007 9.55384C141.003 9.55384 141 9.55384 140.996 9.55384C140.992 9.55384 140.988 9.55384 140.984 9.55384C140.98 9.55384 140.976 9.55384 140.972 9.55384C140.968 9.55384 140.964 9.55384 140.96 9.55384C140.956 9.55384 140.952 9.55384 140.948 9.55384C140.944 9.55384 140.94 9.55384 140.937 9.55384C140.933 9.55384 140.929 9.55384 140.925 9.55384C140.921 9.55384 140.917 9.55384 140.913 9.55384C140.909 9.55384 140.905 9.55384 140.901 9.55384C140.897 9.55384 140.893 9.55384 140.889 9.55384C140.885 9.55384 140.881 9.55384 140.877 9.55384C140.874 9.55384 140.87 9.55384 140.866 9.55384C140.862 9.55384 140.858 9.55384 140.854 9.55384C140.85 9.55384 140.846 9.55384 140.842 9.55384C140.838 9.55384 140.834 9.55384 140.83 9.55384C140.826 9.55384 140.822 9.55384 140.818 9.55384C140.814 9.55384 140.811 9.55384 140.807 9.55384C140.803 9.55384 140.799 9.55384 140.795 9.55384C140.791 9.55384 140.787 9.55384 140.783 9.55384C140.779 9.55384 140.775 9.55384 140.771 9.55384C140.767 9.55384 140.763 9.55384 140.759 9.55384C140.755 9.55384 140.751 9.55384 140.748 9.55384C140.744 9.55384 140.74 9.55384 140.736 9.55384C140.732 9.55384 140.728 9.55384 140.724 9.55384C140.72 9.55384 140.716 9.55384 140.712 9.55384C140.708 9.55384 140.704 9.55384 140.7 9.55384C140.696 9.55384 140.692 9.55384 140.688 9.55384C140.685 9.55384 140.681 9.55384 140.677 9.55384C140.673 9.55384 140.669 9.55384 140.665 9.55384C140.661 9.55384 140.657 9.55384 140.653 9.55384C140.649 9.55384 140.645 9.55384 140.641 9.55384C140.637 9.55384 140.633 9.55384 140.629 9.55384C140.625 9.55384 140.622 9.55384 140.618 9.55384C140.614 9.55384 140.61 9.55384 140.606 9.55384C140.602 9.55384 140.598 9.55384 140.594 9.55384C140.59 9.55384 140.586 9.55384 140.582 9.55384C140.578 9.55384 140.574 9.55384 140.57 9.55384C140.566 9.55384 140.562 9.55384 140.559 9.55384C140.555 9.55384 140.551 9.55384 140.547 9.55384C140.543 9.55384 140.539 9.55384 140.535 9.55384C140.531 9.55384 140.527 9.55384 140.523 9.55384C140.519 9.55384 140.515 9.55384 140.511 9.55384C140.507 9.55384 140.503 9.55384 140.499 9.55384C140.496 9.55384 140.492 9.55384 140.488 9.55384C140.484 9.55384 140.48 9.55384 140.476 9.55384C140.472 9.55384 140.468 9.55384 140.464 9.55384C140.46 9.55384 140.456 9.55384 140.452 9.55384C140.448 9.55384 140.444 9.55384 140.44 9.55384C140.436 9.55384 140.433 9.55384 140.429 9.55384C140.425 9.55384 140.421 9.55384 140.417 9.55384C140.413 9.55384 140.409 9.55384 140.405 9.55384C140.401 9.55384 140.397 9.55384 140.393 9.55384C140.389 9.55384 140.385 9.55384 140.381 9.55384C140.377 9.55384 140.373 9.55384 140.37 9.55384C140.366 9.55384 140.362 9.55384 140.358 9.55384C140.354 9.55384 140.35 9.55384 140.346 9.55384C140.342 9.55384 140.338 9.55384 140.334 9.55384C140.33 9.55384 140.326 9.55384 140.322 9.55384C140.318 9.55384 140.314 9.55384 140.31 9.55384C140.307 9.55384 140.303 9.55384 140.299 9.55384C140.295 9.55384 140.291 9.55384 140.287 9.55384C140.283 9.55384 140.279 9.55384 140.275 9.55384C140.271 9.55384 140.267 9.55384 140.263 9.55384C140.259 9.55384 140.255 9.55384 140.251 9.55384C140.247 9.55384 140.244 9.55384 140.24 9.55384C140.236 9.55384 140.232 9.55384 140.228 9.55384C140.224 9.55384 140.22 9.55384 140.216 9.55384C140.212 9.55384 140.208 9.55384 140.204 9.55384C140.2 9.55384 140.196 9.55384 140.192 9.55384C140.188 9.55384 140.184 9.55384 140.181 9.55384C140.177 9.55384 140.173 9.55384 140.169 9.55384C140.165 9.55384 140.161 9.55384 140.157 9.55384C140.153 9.55384 140.149 9.55384 140.145 9.55384C140.141 9.55384 140.137 9.55384 140.133 9.55384C140.129 9.55384 140.125 9.55384 140.121 9.55384C140.118 9.55384 140.114 9.55384 140.11 9.55384C140.106 9.55384 140.102 9.55384 140.098 9.55384C140.094 9.55384 140.09 9.55384 140.086 9.55384C140.082 9.55384 140.078 9.55384 140.074 9.55384C140.07 9.55384 140.066 9.55384 140.062 9.55384C140.058 9.55384 140.055 9.55384 140.051 9.55384C140.047 9.55384 140.043 9.55384 140.039 9.55384C140.035 9.55384 140.031 9.55384 140.027 9.55384C140.023 9.55384 140.019 9.55384 140.015 9.55384C140.011 9.55384 140.007 9.55384 140.003 9.55384C139.999 9.55384 139.995 9.55384 139.992 9.55384C139.988 9.55384 139.984 9.55384 139.98 9.55384C139.976 9.55384 139.972 9.55384 139.968 9.55384C139.964 9.55384 139.96 9.55384 139.956 9.55384C139.952 9.55384 139.948 9.55384 139.944 9.55384C139.94 9.55384 139.936 9.55384 139.932 9.55384C139.929 9.55384 139.925 9.55384 139.921 9.55384C139.917 9.55384 139.913 9.55384 139.909 9.55384C139.905 9.55384 139.901 9.55384 139.897 9.55384C139.893 9.55384 139.889 9.55384 139.885 9.55384C139.881 9.55384 139.877 9.55384 139.873 9.55384C139.869 9.55384 139.866 9.55384 139.862 9.55384C139.858 9.55384 139.854 9.55384 139.85 9.55384C139.846 9.55384 139.842 9.55384 139.838 9.55384C139.834 9.55384 139.83 9.55384 139.826 9.55384C139.822 9.55384 139.818 9.55384 139.814 9.55384C139.81 9.55384 139.806 9.55384 139.803 9.55384C139.799 9.55384 139.795 9.55384 139.791 9.55384C139.787 9.55384 139.783 9.55384 139.779 9.55384C139.775 9.55384 139.771 9.55384 139.767 9.55384C139.763 9.55384 139.759 9.55384 139.755 9.55384C139.751 9.55384 139.747 9.55384 139.743 9.55384C139.74 9.55384 139.736 9.55384 139.732 9.55384C139.728 9.55384 139.724 9.55384 139.72 9.55384C139.716 9.55384 139.712 9.55384 139.708 9.55384C139.704 9.55384 139.7 9.55384 139.696 9.55384C139.692 9.55384 139.688 9.55384 139.684 9.55384C139.68 9.55384 139.677 9.55384 139.673 9.55384C139.669 9.55384 139.665 9.55384 139.661 9.55384C139.657 9.55384 139.653 9.55384 139.649 9.55384C139.645 9.55384 139.641 9.55384 139.637 9.55384C139.633 9.55384 139.629 9.55384 139.625 9.55384C139.621 9.55384 139.617 9.55384 139.614 9.55384C139.61 9.55384 139.606 9.55384 139.602 9.55384C139.598 9.55384 139.594 9.55384 139.59 9.55384C139.586 9.55384 139.582 9.55384 139.578 9.55384C139.574 9.55384 139.57 9.55384 139.566 9.55384C139.562 9.55384 139.558 9.55384 139.554 9.55384C139.551 9.55384 139.547 9.55384 139.543 9.55384C139.539 9.55384 139.535 9.55384 139.531 9.55384C139.527 9.55384 139.523 9.55384 139.519 9.55384C139.515 9.55384 139.511 9.55384 139.507 9.55384C139.503 9.55384 139.499 9.55384 139.495 9.55384C139.491 9.55384 139.488 9.55384 139.484 9.55384C139.48 9.55384 139.476 9.55384 139.472 9.55384C139.468 9.55384 139.464 9.55384 139.46 9.55384C139.456 9.55384 139.452 9.55384 139.448 9.55384C139.444 9.55384 139.44 9.55384 139.436 9.55384C139.432 9.55384 139.428 9.55384 139.425 9.55384C139.421 9.55384 139.417 9.55384 139.413 9.55384C139.409 9.55384 139.405 9.55384 139.401 9.55384C139.397 9.55384 139.393 9.55384 139.389 9.55384C139.385 9.55384 139.381 9.55384 139.377 9.55384C139.373 9.55384 139.369 9.55384 139.365 9.55384C139.362 9.55384 139.358 9.55384 139.354 9.55384C139.35 9.55384 139.346 9.55384 139.342 9.55384C139.338 9.55384 139.334 9.55384 139.33 9.55384C139.326 9.55384 139.322 9.55384 139.318 9.55384C139.314 9.55384 139.31 9.55384 139.306 9.55384C139.302 9.55384 139.299 9.55384 139.295 9.55384C139.291 9.55384 139.287 9.55384 139.283 9.55384C139.279 9.55384 139.275 9.55384 139.271 9.55384C139.267 9.55384 139.263 9.55384 139.259 9.55384C139.255 9.55384 139.251 9.55384 139.247 9.55384C139.243 9.55384 139.239 9.55384 139.236 9.55384C139.232 9.55384 139.228 9.55384 139.224 9.55384C139.22 9.55384 139.216 9.55384 139.212 9.55384C139.208 9.55384 139.204 9.55384 139.2 9.55384C139.196 9.55384 139.192 9.55384 139.188 9.55384C139.184 9.55384 139.18 9.55384 139.176 9.55384C139.173 9.55384 139.169 9.55384 139.165 9.55384C139.161 9.55384 139.157 9.55384 139.153 9.55384C139.149 9.55384 139.145 9.55384 139.141 9.55384C139.137 9.55384 139.133 9.55384 139.129 9.55384C139.125 9.55384 139.121 9.55384 139.117 9.55384C139.113 9.55384 139.11 9.55384 139.106 9.55384C139.102 9.55384 139.098 9.55384 139.094 9.55384C139.09 9.55384 139.086 9.55384 139.082 9.55384C139.078 9.55384 139.074 9.55384 139.07 9.55384C139.066 9.55384 139.062 9.55384 139.058 9.55384C139.054 9.55384 139.05 9.55384 139.047 9.55384C139.043 9.55384 139.039 9.55384 139.035 9.55384C139.031 9.55384 139.027 9.55384 139.023 9.55384C139.019 9.55384 139.015 9.55384 139.011 9.55384C139.007 9.55384 139.003 9.55384 138.999 9.55384C138.995 9.55384 138.991 9.55384 138.987 9.55384C138.984 9.55384 138.98 9.55384 138.976 9.55384C138.972 9.55384 138.968 9.55384 138.964 9.55384C138.96 9.55384 138.956 9.55384 138.952 9.55384C138.948 9.55384 138.944 9.55384 138.94 9.55384C138.936 9.55384 138.932 9.55384 138.928 9.55384C138.924 9.55384 138.921 9.55384 138.917 9.55384C138.913 9.55384 138.909 9.55384 138.905 9.55384C138.901 9.55384 138.897 9.55384 138.893 9.55384C138.889 9.55384 138.885 9.55384 138.881 9.55384C138.877 9.55384 138.873 9.55384 138.869 9.55384C138.865 9.55384 138.861 9.55384 138.858 9.55384C138.854 9.55384 138.85 9.55384 138.846 9.55384C138.842 9.55384 138.838 9.55384 138.834 9.55384C138.83 9.55384 138.826 9.55384 138.822 9.55384C138.818 9.55384 138.814 9.55384 138.81 9.55384C138.806 9.55384 138.802 9.55384 138.799 9.55384C138.795 9.55384 138.791 9.55384 138.787 9.55384C138.783 9.55384 138.779 9.55384 138.775 9.55384C138.771 9.55384 138.767 9.55384 138.763 9.55384C138.759 9.55384 138.755 9.55384 138.751 9.55384C138.747 9.55384 138.743 9.55384 138.739 9.55384C138.735 9.55384 138.732 9.55384 138.728 9.55384C138.724 9.55384 138.72 9.55384 138.716 9.55384C138.712 9.55384 138.708 9.55384 138.704 9.55384C138.7 9.55384 138.696 9.55384 138.692 9.55384C138.688 9.55384 138.684 9.55384 138.68 9.55384C138.676 9.55384 138.672 9.55384 138.669 9.55384C138.665 9.55384 138.661 9.55384 138.657 9.55384C138.653 9.55384 138.649 9.55384 138.645 9.55384C138.641 9.55384 138.637 9.55384 138.633 9.55384C138.629 9.55384 138.625 9.55384 138.621 9.55384C138.617 9.55384 138.613 9.55384 138.609 9.55384C138.606 9.55384 138.602 9.55384 138.598 9.55384C138.594 9.55384 138.59 9.55384 138.586 9.55384C138.582 9.55384 138.578 9.55384 138.574 9.55384C138.57 9.55384 138.566 9.55384 138.562 9.55384C138.558 9.55384 138.554 9.55384 138.55 9.55384C138.546 9.55384 138.543 9.55384 138.539 9.55384C138.535 9.55384 138.531 9.55384 138.527 9.55384C138.523 9.55384 138.519 9.55384 138.515 9.55384C138.511 9.55384 138.507 9.55384 138.503 9.55384C138.499 9.55384 138.495 9.55384 138.491 9.55384C138.487 9.55384 138.483 9.55384 138.48 9.55384C138.476 9.55384 138.472 9.55384 138.468 9.55384C138.464 9.55384 138.46 9.55384 138.456 9.55384C138.452 9.55384 138.448 9.55384 138.444 9.55384C138.44 9.55384 138.436 9.55384 138.432 9.55384C138.428 9.55384 138.424 9.55384 138.42 9.55384C138.417 9.55384 138.413 9.55384 138.409 9.55384C138.405 9.55384 138.401 9.55384 138.397 9.55384C138.393 9.55384 138.389 9.55384 138.385 9.55384C138.381 9.55384 138.377 9.55384 138.373 9.55384C138.369 9.55384 138.365 9.55384 138.361 9.55384C138.357 9.55384 138.354 9.55384 138.35 9.55384C138.346 9.55384 138.342 9.55384 138.338 9.55384C138.334 9.55384 138.33 9.55384 138.326 9.55384C138.322 9.55384 138.318 9.55384 138.314 9.55384C138.31 9.55384 138.306 9.55384 138.302 9.55384C138.298 9.55384 138.294 9.55384 138.291 9.55384C138.287 9.55384 138.283 9.55384 138.279 9.55384C138.275 9.55384 138.271 9.55384 138.267 9.55384C138.263 9.55384 138.259 9.55384 138.255 9.55384C138.251 9.55384 138.247 9.55384 138.243 9.55384C138.239 9.55384 138.235 9.55384 138.231 9.55384C138.228 9.55384 138.224 9.55384 138.22 9.55384C138.216 9.55384 138.212 9.55384 138.208 9.55384C138.204 9.55384 138.2 9.55384 138.196 9.55384C138.192 9.55384 138.188 9.55384 138.184 9.55384C138.18 9.55384 138.176 9.55384 138.172 9.55384C138.168 9.55384 138.165 9.55384 138.161 9.55384C138.157 9.55384 138.153 9.55384 138.149 9.55384C138.145 9.55384 138.141 9.55384 138.137 9.55384C138.133 9.55384 138.129 9.55384 138.125 9.55384C138.121 9.55384 138.117 9.55384 138.113 9.55384C138.109 9.55384 138.105 9.55384 138.102 9.55384C138.098 9.55384 138.094 9.55384 138.09 9.55384C138.086 9.55384 138.082 9.55384 138.078 9.55384C138.074 9.55384 138.07 9.55384 138.066 9.55384C138.062 9.55384 138.058 9.55384 138.054 9.55384C138.05 9.55384 138.046 9.55384 138.042 9.55384C138.039 9.55384 138.035 9.55384 138.031 9.55384C138.027 9.55384 138.023 9.55384 138.019 9.55384C138.015 9.55384 138.011 9.55384 138.007 9.55384C138.003 9.55384 137.999 9.55384 137.995 9.55384C137.991 9.55384 137.987 9.55384 137.983 9.55384C137.979 9.55384 137.976 9.55384 137.972 9.55384C137.968 9.55384 137.964 9.55384 137.96 9.55384C137.956 9.55384 137.952 9.55384 137.948 9.55384C137.944 9.55384 137.94 9.55384 137.936 9.55384C137.932 9.55384 137.928 9.55384 137.924 9.55384C137.92 9.55384 137.916 9.55384 137.913 9.55384C137.909 9.55384 137.905 9.55384 137.901 9.55384C137.897 9.55384 137.893 9.55384 137.889 9.55384C137.885 9.55384 137.881 9.55384 137.877 9.55384C137.873 9.55384 137.869 9.55384 137.865 9.55384C137.861 9.55384 137.857 9.55384 137.853 9.55384C137.85 9.55384 137.846 9.55384 137.842 9.55384C137.838 9.55384 137.834 9.55384 137.83 9.55384C137.826 9.55384 137.822 9.55384 137.818 9.55384C137.814 9.55384 137.81 9.55384 137.806 9.55384C137.802 9.55384 137.798 9.55384 137.794 9.55384C137.79 9.55384 137.787 9.55384 137.783 9.55384C137.779 9.55384 137.775 9.55384 137.771 9.55384C137.767 9.55384 137.763 9.55384 137.759 9.55384C137.755 9.55384 137.751 9.55384 137.747 9.55384C137.743 9.55384 137.739 9.55384 137.735 9.55384C137.731 9.55384 137.727 9.55384 137.724 9.55384C137.72 9.55384 137.716 9.55384 137.712 9.55384C137.708 9.55384 137.704 9.55384 137.7 9.55384C137.696 9.55384 137.692 9.55384 137.688 9.55384C137.684 9.55384 137.68 9.55384 137.676 9.55384C137.672 9.55384 137.668 9.55384 137.664 9.55384C137.661 9.55384 137.657 9.55384 137.653 9.55384C137.649 9.55384 137.645 9.55384 137.641 9.55384C137.637 9.55384 137.633 9.55384 137.629 9.55384C137.625 9.55384 137.621 9.55384 137.617 9.55384C137.613 9.55384 137.609 9.55384 137.605 9.55384C137.601 9.55384 137.598 9.55384 137.594 9.55384C137.59 9.55384 137.586 9.55384 137.582 9.55384C137.578 9.55384 137.574 9.55384 137.57 9.55384C137.566 9.55384 137.562 9.55384 137.558 9.55384C137.554 9.55384 137.55 9.55384 137.546 9.55384C137.542 9.55384 137.538 9.55384 137.535 9.55384C137.531 9.55384 137.527 9.55384 137.523 9.55384C137.519 9.55384 137.515 9.55384 137.511 9.55384C137.507 9.55384 137.503 9.55384 137.499 9.55384C137.495 9.55384 137.491 9.55384 137.487 9.55384C137.483 9.55384 137.479 9.55384 137.475 9.55384C137.472 9.55384 137.468 9.55384 137.464 9.55384C137.46 9.55384 137.456 9.55384 137.452 9.55384C137.448 9.55384 137.444 9.55384 137.44 9.55384C137.436 9.55384 137.432 9.55384 137.428 9.55384C137.424 9.55384 137.42 9.55384 137.416 9.55384C137.412 9.55384 137.409 9.55384 137.405 9.55384C137.401 9.55384 137.397 9.55384 137.393 9.55384V19.5538ZM138.441 14.5538V28.2178H148.441V14.5538H138.441ZM140.943 23.8864L136.559 26.4144L141.555 35.0773L145.939 32.5493L140.943 23.8864ZM134.057 30.7458V37.7538H144.057V30.7458H134.057ZM139.057 32.7538H134.257V42.7538H139.057V32.7538ZM139.257 37.7538V30.7458H129.257V37.7538H139.257ZM136.755 26.4144L132.371 23.8864L127.375 32.5493L131.759 35.0773L136.755 26.4144ZM134.873 28.2178V18.5538H124.873V28.2178H134.873ZM134.646 17.0646L133.398 13.0646L123.852 16.043L125.1 20.043L134.646 17.0646ZM128.625 19.5538H134.673V9.55384H128.625V19.5538ZM129.673 14.5538V25.4338H139.673V14.5538H129.673ZM132.162 29.7578L134.146 30.9098L139.167 22.2619L137.183 21.1099L132.162 29.7578ZM139.198 30.8919L141.15 29.7399L136.068 21.1278L134.116 22.2798L139.198 30.8919ZM143.609 25.4338V18.5538H133.609V25.4338H143.609ZM143.393 17.0996L142.177 13.0996L132.609 16.0081L133.825 20.0081L143.393 17.0996Z" fill="#F6EAE0" mask="url(#path-1-outside-1_69_135)"/>
<path fill-rule="evenodd" clip-rule="evenodd" d="M25.8197 32.0826L32.2406 25.6932C34.146 26.7391 36.3867 27.0119 38.4929 26.4503C40.6525 25.8745 42.4939 24.4685 43.6119 22.5416C43.6127 22.5402 43.6135 22.5388 43.6143 22.5373C44.7323 20.6105 45.0353 18.3207 44.4565 16.1716C43.8779 14.0225 42.4649 12.1901 40.5286 11.0777C37.9211 9.5796 34.881 7.83306 32.2735 6.33498C30.3372 5.22253 28.036 4.92103 25.8763 5.49691C23.7166 6.07278 21.8753 7.47876 20.7573 9.40559C20.7564 9.40702 20.7556 9.40846 20.7548 9.40992C20.1116 10.5184 19.7382 11.7472 19.6473 13.0001C19.6473 12.9993 13.0632 19.5511 13.0632 19.5511C11.8054 19.6413 10.5704 20.013 9.45607 20.6531C9.45466 20.654 9.45319 20.6548 9.45178 20.6556C7.51544 21.7681 6.10249 23.6004 5.52381 25.7495C4.9451 27.8986 5.24808 30.1885 6.36602 32.1153C7.87145 34.71 9.62664 37.7352 11.1321 40.3299C12.25 42.2567 14.0914 43.6627 16.2511 44.2386C18.4108 44.8144 20.7119 44.513 22.6483 43.4005C22.6497 43.3997 22.6511 43.3988 22.6526 43.398C24.589 42.2856 26.0019 40.4532 26.5806 38.3041C27.1449 36.2083 26.8708 33.9787 25.8197 32.0826ZM32.7362 22.7282C31.7271 22.1773 31.0205 22.9243 31.0056 22.9392C27.0097 26.9404 23.0521 30.8537 23.0521 30.8537C22.546 31.382 22.5435 32.0682 22.8401 32.5757C23.0289 32.8989 23.1336 33.0821 23.2768 33.3284C23.5076 33.7255 23.5073 33.7257 23.2873 33.3465C24.0299 34.6265 24.2312 36.1476 23.8467 37.5752C23.4623 39.0028 22.5237 40.22 21.2375 40.9589L21.2331 40.9615C19.9469 41.7004 18.4183 41.9007 16.9836 41.5181C15.549 41.1356 14.3258 40.2016 13.5832 38.9217C12.0777 36.327 10.3225 33.3018 8.81709 30.7071C8.07446 29.4272 7.87321 27.9061 8.25762 26.4784C8.64203 25.0508 9.58063 23.8337 10.8669 23.0947L10.8712 23.0922C11.7299 22.5989 12.6966 22.3456 13.6713 22.3456C14.0466 22.3456 14.4066 22.1973 14.6719 21.9332L22.0411 14.6002C22.3065 14.3361 22.4556 13.9779 22.4556 13.6044C22.4556 12.6346 22.7101 11.6726 23.2059 10.8181L23.2084 10.8138C23.951 9.53381 25.1742 8.59982 26.6088 8.2173C28.0435 7.83481 29.5721 8.03504 30.8584 8.77402C33.4659 10.2721 36.5059 12.0187 39.1134 13.5167C40.3997 14.2557 41.3383 15.4729 41.7227 16.9005C42.1071 18.3281 41.9059 19.8492 41.1633 21.1292L41.1607 21.1335C40.4181 22.4134 39.1949 23.3474 37.7603 23.7299C36.3398 24.1087 34.8272 23.9161 33.5489 23.1949L32.7362 22.7282ZM25.8138 32.0885L25.8133 32.089L25.8179 32.099L25.8449 32.1674C25.8354 32.1409 25.8251 32.1146 25.8138 32.0885ZM13.56 29.4255L12.5665 30.4141C12.0143 30.9637 12.0143 31.856 12.5665 32.4056C13.1188 32.9551 14.0156 32.9551 14.5678 32.4056L15.5613 31.417L16.5548 32.4056C17.1071 32.9551 18.0038 32.9552 18.5561 32.4056C19.1084 31.856 19.1084 30.9637 18.5561 30.4141L17.5626 29.4255L18.5561 28.4369C19.1084 27.8873 19.1083 26.995 18.5561 26.4455C18.0038 25.8959 17.1071 25.8959 16.5548 26.4455L15.5613 27.434L14.5678 26.4454C14.0156 25.8959 13.1188 25.8959 12.5665 26.4454C12.0142 26.995 12.0143 27.8873 12.5665 28.4369L13.56 29.4255Z" fill="#CE422B"/>
<path fill-rule="evenodd" clip-rule="evenodd" d="M30.4543 18.458C29.8698 17.8763 29.8698 16.9319 30.4543 16.3503C31.0388 15.7687 31.9878 15.7687 32.5723 16.3503C33.1568 16.9319 33.1569 17.8763 32.5724 18.458C31.9878 19.0396 31.0388 19.0396 30.4543 18.458ZM30.4543 12.4979C31.0388 11.9162 31.9878 11.9162 32.5724 12.4978C33.1569 13.0795 33.1568 14.0239 32.5723 14.6055C31.9878 15.1871 31.0388 15.1872 30.4543 14.6055C29.8698 14.0239 29.8698 13.0795 30.4543 12.4979ZM26.5828 16.3503C27.1673 15.7687 28.1164 15.7687 28.7009 16.3503C29.2854 16.9319 29.2854 17.8763 28.7009 18.458C28.1164 19.0396 27.1673 19.0396 26.5828 18.458C25.9983 17.8763 25.9983 16.9319 26.5828 16.3503ZM26.5828 14.6055C25.9983 14.0239 25.9983 13.0795 26.5828 12.4978C27.1673 11.9162 28.1164 11.9162 28.7009 12.4979C29.2854 13.0795 29.2854 14.0239 28.7009 14.6055C28.1164 15.1871 27.1673 15.1871 26.5828 14.6055Z" fill="#CE422B" fill-opacity="0.6"/>
</svg>
